<svg width="30" height="30" viewBox="0 0 30 30" fill="none" xmlns="http://www.w3.org/2000/svg">
<path fill-rule="evenodd" clip-rule="evenodd" d="M7.998 14.5193C7.998 16.1753 6.655 17.5193 5 17.5193C3.344 17.5193 2 16.1753 2 14.5193V14.5023C2.01 12.8533 3.35 11.5203 5 11.5203C6.655 11.5203 7.998 12.8633 7.998 14.5193ZM21.2705 14.5193C21.2705 16.1753 22.6135 17.5193 24.2695 17.5193C25.9245 17.5193 27.2685 16.1753 27.2685 14.5193V14.5023C27.2585 12.8533 25.9185 11.5203 24.2695 11.5203C22.6135 11.5203 21.2705 12.8633 21.2705 14.5193ZM9.873 28.5222H4.813C3.557 28.5222 2.537 27.5022 2.537 26.2462V20.8392C2.537 19.5832 3.557 18.5632 4.813 18.5632C6.07 18.5632 7.09 19.5832 7.09 20.8392V23.9692H9.873C11.13 23.9692 12.149 24.9892 12.149 26.2462C12.149 27.5022 11.13 28.5222 9.873 28.5222ZM19.3951 28.5222H24.4551C25.7121 28.5222 26.7311 27.5022 26.7311 26.2462V20.8392C26.7311 19.5832 25.7121 18.5632 24.4551 18.5632C23.1981 18.5632 22.1791 19.5832 22.1791 20.8392V23.9692H19.3951C18.1391 23.9692 17.1191 24.9892 17.1191 26.2462C17.1191 27.5022 18.1391 28.5222 19.3951 28.5222Z" fill="#70A2A1"/>
<rect x="9" y="3" width="12" height="12" rx="6" fill="#70A2A1"/>
<path d="M15.5068 5.22157V5.82212C16.2021 5.91692 16.7394 6.45418 16.8027 7.14955C16.8027 7.21282 16.8027 7.27588 16.7394 7.30762C16.7079 7.3709 16.6446 7.3709 16.5813 7.3709L15.9177 7.37068C15.8229 7.37068 15.7281 7.3074 15.6964 7.2126C15.6649 7.05453 15.5068 6.92821 15.3172 6.92821H14.7166C14.4005 6.92821 14.1161 7.14955 14.1161 7.43394C14.0846 7.59201 14.1476 7.75009 14.2742 7.87641C14.369 8.00273 14.527 8.06601 14.7166 8.06601H15.2224C15.6964 8.06601 16.1706 8.2556 16.4865 8.63479C16.8026 8.98246 16.9605 9.45647 16.9289 9.93067C16.8657 10.6575 16.2969 11.2581 15.5382 11.4161V12.0167C15.5382 12.143 15.4434 12.238 15.3169 12.238H14.6531C14.5267 12.238 14.4317 12.1432 14.4317 12.0167V11.4161C13.7364 11.3213 13.1991 10.7841 13.1358 10.0887C13.1358 10.0254 13.1358 9.96237 13.1991 9.93062C13.2306 9.8991 13.2939 9.86735 13.3572 9.86735H14.021C14.1158 9.86735 14.2106 9.93062 14.2424 10.0254C14.2739 10.1835 14.432 10.3098 14.6216 10.3098H15.2221C15.5383 10.3098 15.7909 10.0885 15.8227 9.80408C15.8542 9.64601 15.7911 9.48794 15.6646 9.36162C15.5698 9.23529 15.4117 9.17202 15.2221 9.17202H14.7797C13.8632 9.17202 13.1046 8.50819 13.0098 7.65502C12.915 6.77007 13.5156 5.97993 14.4005 5.8219V5.22135C14.4005 5.09502 14.4953 5 14.6219 5L15.2857 5.00022C15.412 5.00022 15.5068 5.09502 15.5068 5.22157Z" fill="white"/>
</svg>
