<svg xmlns="http://www.w3.org/2000/svg" viewBox="0 0 30 30"><g><path d="M27,17c-1.21-3.78-4.92-7.49-7.5-7.49a1.29,1.29,0,0,0-1,.38c-.66.68-.56,2.13-.45,3.65,0,.13,0,.9,0,1.72a7.35,7.35,0,0,1-2-4.78v-4s0-.09,0-.14V2.64a1,1,0,1,0-2,0v7.88a7.26,7.26,0,0,1-2.06,4.82c0-.83,0-1.63,0-1.76.11-1.52.21-3-.45-3.65a1.29,1.29,0,0,0-1-.38C7.94,9.55,4.23,13.26,3,17c-1.34,4.17-1.07,9.13,0,10.61a1.05,1.05,0,0,0,.84.49,1.68,1.68,0,0,0,1.15-.47c.18-.14.41-.31.74-.53a13.16,13.16,0,0,1,2.28-1.05c1.63-.63,3.16-1.23,3.16-2.78a7.07,7.07,0,0,0-.05-.72,12.51,12.51,0,0,1-.08-1.33,11.5,11.5,0,0,1,.36-2c.09-.41.18-.81.25-1.16a.54.54,0,0,0,.2-.1A10.67,10.67,0,0,0,15,14.43a11.6,11.6,0,0,0,3.21,3.75l.08,0c.06.33.15.69.23,1.07a11.5,11.5,0,0,1,.36,2,12.51,12.51,0,0,1-.08,1.33,7.07,7.07,0,0,0,0,.72c0,1.55,1.53,2.15,3.16,2.78a13.16,13.16,0,0,1,2.28,1.05c.33.22.56.39.74.53a1.68,1.68,0,0,0,1.15.47,1.05,1.05,0,0,0,.84-.49C28.05,26.17,28.32,21.21,27,17ZM4.56,23.81a1.15,1.15,0,1,1,1.17-1.15A1.16,1.16,0,0,1,4.56,23.81Zm.59-4.11a1.15,1.15,0,1,1,1.18-1.14A1.16,1.16,0,0,1,5.15,19.7Zm3.44,1.15A1.15,1.15,0,1,1,9.77,19.7,1.16,1.16,0,0,1,8.59,20.85Zm0-4.14a1.15,1.15,0,1,1,1.18-1.15A1.16,1.16,0,0,1,8.59,16.71Zm12.82,4.14a1.15,1.15,0,1,1,1.18-1.15A1.16,1.16,0,0,1,21.41,20.85Zm0-4.14a1.15,1.15,0,1,1,1.18-1.15A1.16,1.16,0,0,1,21.41,16.71Zm2.26,1.85a1.18,1.18,0,1,1,1.18,1.14A1.16,1.16,0,0,1,23.67,18.56Zm1.77,5.25a1.15,1.15,0,1,1,1.18-1.15A1.15,1.15,0,0,1,25.44,23.81Z" fill="#994b3d" fill-rule="evenodd"/></g></svg>