<svg xmlns="http://www.w3.org/2000/svg" viewBox="0 0 30 30"><g><path d="M28.56,9.23,24,1.34a2.27,2.27,0,0,0-3.94,0l-4.61,8a2.27,2.27,0,0,0,2,3.41h9.24a2.27,2.27,0,0,0,2.25-2.27A2.24,2.24,0,0,0,28.56,9.23ZM22,2.91A1,1,0,0,1,23.1,4l-.54,4.2a.52.52,0,0,1-.52.52.5.5,0,0,1-.53-.52L21,4A1,1,0,0,1,22,2.91Zm.77,8.23a1.1,1.1,0,0,1-.77.32,1.12,1.12,0,0,1-.78-.32,1.11,1.11,0,0,1,0-1.56A1.12,1.12,0,0,1,22,9.26a1.1,1.1,0,0,1,.77,1.88Z" fill="#e0381f"/><circle cx="8.41" cy="6.13" r="4.15" fill="#e0381f"/><path d="M16.15,18.38c-.17-.68-.36-1.35-.6-2a12.21,12.21,0,0,0-1.43-3,4.62,4.62,0,0,0-2.89-1.85,12.54,12.54,0,0,0-2.67-.27h-.3a12.54,12.54,0,0,0-2.67.27A4.62,4.62,0,0,0,2.7,13.38a12.21,12.21,0,0,0-1.43,3c-.24.67-.43,1.34-.6,2s-.28,1.35-.4,2A1.38,1.38,0,0,0,1.39,22,1.39,1.39,0,0,0,3,21V20.9c.14-.59.27-1.19.45-1.78s.37-1.15.6-1.7c0,0,0,0,0-.05h0V28.13a1.73,1.73,0,0,0,3.46,0V24a.85.85,0,1,1,1.7,0v4.19a1.73,1.73,0,0,0,3.46,0V17.37h0a.17.17,0,0,1,0,.05,16.29,16.29,0,0,1,.6,1.7c.18.59.32,1.19.45,1.78l0,.06a1.38,1.38,0,0,0,2.7-.55C16.43,19.73,16.31,19.05,16.15,18.38Z" fill="#e0381f"/></g></svg>