<svg xmlns="http://www.w3.org/2000/svg" viewBox="0 0 30 30"><g><path d="M16.8,4V2.79H15.6V1.6H14.4V2.79H13.2V4h1.2V5.18h1.2V4Zm1.49,18.73V20.66H16.1V18.61H13.9v2.05H11.71v2.06H13.9v2.05h2.2V22.72ZM15.11,1a9.46,9.46,0,0,1,6.05,2.74L19,7.53a5.12,5.12,0,0,0-4-1.85h0a5.12,5.12,0,0,0-4,1.85L8.84,3.74A9.46,9.46,0,0,1,14.89,1h.22Zm6.6,18.63A63.25,63.25,0,0,1,24,28H20.81l-1.53-5.4.36,5.4H10.36l.36-5.4L9.19,28H6a63.25,63.25,0,0,1,2.29-8.37v-.07C9.39,17.35,10.47,16,14.58,16h.84c4.11,0,5.19,1.33,6.28,3.54v.07ZM15,6.92a4,4,0,1,1-4,4A4,4,0,0,1,15,6.92Z" fill="#64a3c8" fill-rule="evenodd"/></g></svg>