<svg width="30" height="31" viewBox="0 0 30 31" fill="none" xmlns="http://www.w3.org/2000/svg">
<path fill-rule="evenodd" clip-rule="evenodd" d="M18.1657 6.26525V8.20904H17.5587C16.9599 8.20904 16.4743 8.6914 16.4743 9.28547C16.4743 9.87914 16.96 10.3614 17.5587 10.3614H18.1657V11.3685C18.1657 11.9626 18.6518 12.4444 19.25 12.4444C19.8488 12.4444 20.3349 11.9626 20.3349 11.3685V10.3614H20.9829C21.5812 10.3614 22.0673 9.87903 22.0673 9.28547C22.0673 8.6914 21.5811 8.20904 20.9829 8.20904H20.3344C20.3348 8.20904 20.3348 6.26525 20.3348 6.26525C21.5957 5.82188 22.5 4.62726 22.5 3.22467C22.5 1.4451 21.0439 0 19.25 0C17.4565 0 16 1.44518 16 3.22467C16 4.62731 16.9043 5.82183 18.1657 6.26525H18.1657ZM19.25 2.15245C19.8469 2.15245 20.3312 2.633 20.3312 3.22485C20.3312 3.81709 19.8469 4.29763 19.25 4.29763C18.6535 4.29763 18.1692 3.81709 18.1692 3.22485C18.1692 2.633 18.6535 2.15245 19.25 2.15245Z" fill="#F27964"/>
<path fill-rule="evenodd" clip-rule="evenodd" d="M25.2655 3.67392V6.17923C24.0037 6.6226 23.0992 7.81721 23.0992 9.21979C23.0992 10.9998 24.5557 12.4444 26.3501 12.4444C28.1445 12.4444 29.6011 10.9997 29.6011 9.21979C29.6011 7.81715 28.6965 6.62265 27.4347 6.17923V3.67392L27.848 4.08386C28.2718 4.50369 28.9592 4.50369 29.3826 4.08386C29.8058 3.66402 29.8058 2.98209 29.3826 2.56223L27.1173 0.315264C26.6935 -0.105088 26.0065 -0.105088 25.5827 0.315264L23.3174 2.56223C22.8942 2.98207 22.8942 3.66399 23.3174 4.08386C23.7407 4.50372 24.4286 4.50369 24.852 4.08386L25.2653 3.67392H25.2655ZM26.3502 10.2926C25.7535 10.2926 25.269 9.81162 25.269 9.21979C25.269 8.62797 25.7535 8.1474 26.3502 8.1474C26.9468 8.1474 27.4317 8.62794 27.4317 9.21979C27.4317 9.81164 26.9468 10.2926 26.3502 10.2926V10.2926Z" fill="#F27964"/>
<path fill-rule="evenodd" clip-rule="evenodd" d="M11.4625 6.4026C11.4625 7.72893 10.4041 8.8052 9.10009 8.8052C7.79579 8.8052 6.73766 7.72893 6.73766 6.4026C6.73766 5.07627 7.79579 4 9.10009 4C10.4041 4 11.4625 5.07627 11.4625 6.4026ZM15.4061 17.8521C15.4765 18.0165 15.5468 18.1809 15.6171 18.3454C15.8388 18.8635 15.6053 19.4667 15.0959 19.6921C14.9651 19.7498 14.8289 19.7774 14.6948 19.7774C14.3067 19.7774 13.9368 19.5472 13.7718 19.162L11.5744 14.0246L14.1743 26.8815H11.7766L11.6324 29.5236C11.6072 29.9906 11.2403 30.3737 10.7701 30.4003C10.2657 30.429 9.83441 30.0363 9.80624 29.5236L9.66202 26.8815H9.10059H8.53883L8.39428 29.5236C8.36644 30.0363 7.93514 30.429 7.43073 30.4003C6.96085 30.3737 6.59361 29.9906 6.56846 29.5236L6.42424 26.8815H4.0266L6.62648 14.0246L4.42905 19.162C4.26405 19.5472 3.89412 19.7774 3.50608 19.7774C3.37193 19.7774 3.23576 19.7498 3.10497 19.6921C2.59552 19.4667 2.36209 18.8635 2.58378 18.3454C2.72464 18.0165 2.86517 17.6876 3.00569 17.3588L4.38914 14.1249L5.63274 11.2181C5.85879 10.6896 6.11267 10.225 6.61273 9.91015C7.27813 9.49124 8.10182 9.41278 8.86683 9.41278H9.10059H9.33435C10.099 9.41278 10.9227 9.49124 11.5881 9.91015C12.0882 10.225 12.3421 10.6896 12.5681 11.2181L13.8117 14.1249L15.1952 17.3588C15.2654 17.5232 15.3358 17.6876 15.4061 17.8521Z" fill="#F27964"/>
</svg>
