<svg xmlns="http://www.w3.org/2000/svg" viewBox="0 0 30 30"><g><path d="M15,5.4h.07a2.69,2.69,0,1,0,0-5.38H15A2.69,2.69,0,1,0,15,5.4Z" fill="#f47963"/><path d="M20.8,13.06c.22-1-1.07-5.34-1.07-5.34A2.5,2.5,0,0,0,17,6.11h-3.9a2.5,2.5,0,0,0-2.78,1.61S9,12.05,9.2,13.06c.11.5,1.37,1.42,2.28,2L9.23,26H12l.17,3a1,1,0,0,0,2.08,0l.16-3h1.28l.16,3a1,1,0,0,0,2.08,0l.17-3h2.72L18.52,15C19.43,14.48,20.69,13.56,20.8,13.06Zm-2.45-1a4.43,4.43,0,0,1-2.24,1.1,3.22,3.22,0,0,1-1.38.05c-.48-.11-1.08-.47-1.09-1,0,0,0-.08,0-.12a1.51,1.51,0,0,1-.64.15,1.46,1.46,0,1,1,1.45-1.45,1.79,1.79,0,0,1,0,.23,3.75,3.75,0,0,1,1.64-.44,3.17,3.17,0,0,1,1.33.24,2,2,0,0,1,1,.9.3.3,0,0,1,.05.22A.38.38,0,0,1,18.35,12.06Z" fill="#f47963"/></g></svg>