<svg width="30" height="30" viewBox="0 0 30 30" fill="none" xmlns="http://www.w3.org/2000/svg">
<path fill-rule="evenodd" clip-rule="evenodd" d="M7.99776 15.5193C7.99776 17.1753 6.65476 18.5193 4.99976 18.5193C3.34376 18.5193 1.99976 17.1753 1.99976 15.5193V15.5023C2.00976 13.8533 3.34976 12.5203 4.99976 12.5203C6.65476 12.5203 7.99776 13.8633 7.99776 15.5193ZM21.2703 15.5193C21.2703 17.1753 22.6133 18.5193 24.2693 18.5193C25.9243 18.5193 27.2683 17.1753 27.2683 15.5193V15.5023C27.2583 13.8533 25.9183 12.5203 24.2693 12.5203C22.6133 12.5203 21.2703 13.8633 21.2703 15.5193ZM9.87276 29.5222H4.81276C3.55676 29.5222 2.53676 28.5022 2.53676 27.2462V21.8392C2.53676 20.5832 3.55676 19.5632 4.81276 19.5632C6.06976 19.5632 7.08976 20.5832 7.08976 21.8392V24.9692H9.87276C11.1298 24.9692 12.1488 25.9892 12.1488 27.2462C12.1488 28.5022 11.1298 29.5222 9.87276 29.5222ZM19.3949 29.5222H24.4549C25.7119 29.5222 26.7309 28.5022 26.7309 27.2462V21.8392C26.7309 20.5832 25.7119 19.5632 24.4549 19.5632C23.1979 19.5632 22.1789 20.5832 22.1789 21.8392V24.9692H19.3949C18.1389 24.9692 17.1189 25.9892 17.1189 27.2462C17.1189 28.5022 18.1389 29.5222 19.3949 29.5222Z" fill="#64A3C8"/>
<mask id="mask0_1255_20093" style="mask-type:alpha" maskUnits="userSpaceOnUse" x="8" y="1" width="15" height="15">
<path fill-rule="evenodd" clip-rule="evenodd" d="M8 3.38286V9.98125C8 11.2973 9.04983 12.3641 10.345 12.3641H12.5727L12.5095 14.8293C12.4736 15.1015 12.6091 15.3675 12.8486 15.4945C12.9489 15.5484 13.0602 15.5761 13.1734 15.5752C13.3836 15.5733 13.5846 15.487 13.7327 15.3353L16.6998 12.3641H20.0856C21.3808 12.3641 22.4307 11.2973 22.4307 9.98125V3.38286C22.4307 2.06676 21.3808 1 20.0856 1H10.345C9.04983 1 8 2.06676 8 3.38286" fill="white"/>
</mask>
<g mask="url(#mask0_1255_20093)">
<rect x="5.34839" y="-1.65186" width="19.8875" height="19.8875" fill="#64A3C8"/>
</g>
</svg>
