<svg width="30" height="30" viewBox="0 0 30 30" fill="none" xmlns="http://www.w3.org/2000/svg">
<path fill-rule="evenodd" clip-rule="evenodd" d="M13.3128 5.92903C13.3128 8.22103 11.4558 10.078 9.16485 10.078C6.87285 10.078 5.01585 8.22103 5.01585 5.92903C5.01585 3.63803 6.87285 1.78003 9.16485 1.78003C11.4558 1.78003 13.3128 3.63803 13.3128 5.92903ZM16.3041 16.1635C16.5491 16.8305 16.7311 17.5045 16.9031 18.1785C17.0651 18.8475 17.1871 19.5295 17.3071 20.2065C17.4401 20.9575 16.9391 21.6755 16.1871 21.8095C15.4601 21.9385 14.7641 21.4725 14.5991 20.7615L14.5861 20.7005C14.5703 20.6317 14.5546 20.5629 14.5388 20.494C14.4182 19.967 14.2971 19.438 14.1361 18.9215C13.9561 18.3435 13.7691 17.7685 13.5361 17.2225C13.5331 17.2156 13.5299 17.2089 13.5267 17.2022C13.5224 17.1932 13.5181 17.1842 13.5141 17.1745H13.4701V27.9295C13.4701 28.8845 12.6971 29.6585 11.7421 29.6585C10.8011 29.6585 10.0391 28.9065 10.0171 27.9705V23.7815C10.0171 23.3075 9.63615 22.9245 9.16515 22.9175C8.69215 22.9245 8.31115 23.3075 8.31115 23.7815V27.9705C8.29015 28.9065 7.52815 29.6585 6.58715 29.6585C5.63215 29.6585 4.85815 28.8845 4.85815 27.9295V17.1745H4.81415C4.81108 17.182 4.80781 17.1891 4.80461 17.196C4.80051 17.2049 4.79651 17.2135 4.79315 17.2225C4.55915 17.7685 4.37315 18.3435 4.19315 18.9215C4.03218 19.438 3.91111 19.967 3.7905 20.494C3.77474 20.5629 3.75898 20.6318 3.74315 20.7005L3.72915 20.7615C3.56415 21.4725 2.86915 21.9385 2.14115 21.8095C1.38915 21.6755 0.888146 20.9575 1.02115 20.2065C1.14115 19.5295 1.26315 18.8475 1.42515 18.1785C1.59715 17.5045 1.78015 16.8305 2.02415 16.1635C2.40315 15.1285 2.80215 14.0765 3.45015 13.1745C4.17415 12.1665 5.14015 11.6045 6.34415 11.3335C7.21715 11.1375 8.11915 11.0645 9.01215 11.0645H9.31615C10.2101 11.0645 11.1111 11.1375 11.9841 11.3335C13.1881 11.6045 14.1541 12.1665 14.8791 13.1745C15.5261 14.0765 15.9251 15.1285 16.3041 16.1635Z" fill="#E9AA22"/>
<mask id="mask0_2256_14685" style="mask-type:luminance" maskUnits="userSpaceOnUse" x="0" y="1" width="18" height="29">
<path fill-rule="evenodd" clip-rule="evenodd" d="M13.3128 5.92903C13.3128 8.22103 11.4558 10.078 9.16485 10.078C6.87285 10.078 5.01585 8.22103 5.01585 5.92903C5.01585 3.63803 6.87285 1.78003 9.16485 1.78003C11.4558 1.78003 13.3128 3.63803 13.3128 5.92903ZM16.3041 16.1635C16.5491 16.8305 16.7311 17.5045 16.9031 18.1785C17.0651 18.8475 17.1871 19.5295 17.3071 20.2065C17.4401 20.9575 16.9391 21.6755 16.1871 21.8095C15.4601 21.9385 14.7641 21.4725 14.5991 20.7615L14.5861 20.7005C14.5703 20.6317 14.5546 20.5629 14.5388 20.494C14.4182 19.967 14.2971 19.438 14.1361 18.9215C13.9561 18.3435 13.7691 17.7685 13.5361 17.2225C13.5331 17.2156 13.5299 17.2089 13.5267 17.2022C13.5224 17.1932 13.5181 17.1842 13.5141 17.1745H13.4701V27.9295C13.4701 28.8845 12.6971 29.6585 11.7421 29.6585C10.8011 29.6585 10.0391 28.9065 10.0171 27.9705V23.7815C10.0171 23.3075 9.63615 22.9245 9.16515 22.9175C8.69215 22.9245 8.31115 23.3075 8.31115 23.7815V27.9705C8.29015 28.9065 7.52815 29.6585 6.58715 29.6585C5.63215 29.6585 4.85815 28.8845 4.85815 27.9295V17.1745H4.81415C4.81108 17.182 4.80781 17.1891 4.80461 17.196C4.80051 17.2049 4.79651 17.2135 4.79315 17.2225C4.55915 17.7685 4.37315 18.3435 4.19315 18.9215C4.03218 19.438 3.91111 19.967 3.7905 20.494C3.77474 20.5629 3.75898 20.6318 3.74315 20.7005L3.72915 20.7615C3.56415 21.4725 2.86915 21.9385 2.14115 21.8095C1.38915 21.6755 0.888146 20.9575 1.02115 20.2065C1.14115 19.5295 1.26315 18.8475 1.42515 18.1785C1.59715 17.5045 1.78015 16.8305 2.02415 16.1635C2.40315 15.1285 2.80215 14.0765 3.45015 13.1745C4.17415 12.1665 5.14015 11.6045 6.34415 11.3335C7.21715 11.1375 8.11915 11.0645 9.01215 11.0645H9.31615C10.2101 11.0645 11.1111 11.1375 11.9841 11.3335C13.1881 11.6045 14.1541 12.1665 14.8791 13.1745C15.5261 14.0765 15.9251 15.1285 16.3041 16.1635Z" fill="white"/>
</mask>
<g mask="url(#mask0_2256_14685)">
<rect width="30" height="30" fill="#70A2A1"/>
</g>
<path fill-rule="evenodd" clip-rule="evenodd" d="M25.2856 8.96481H23.6901V10.5391H22.0936V8.96481H20.498V7.39097H22.0936V5.81565H23.6901V7.39097H25.2856V8.96481ZM28.7288 4.73636L23.3614 0.926008C23.0798 0.726813 22.7041 0.726813 22.4226 0.926008L17.0551 4.73636C16.5458 5.09727 16.8017 5.89849 17.4254 5.89849H18.4214V12.29C18.4214 12.6805 18.7414 13 19.1319 13H26.652C27.0425 13 27.3625 12.6805 27.3625 12.29V5.89849H28.3585C28.9822 5.89849 29.2381 5.09727 28.7288 4.73636V4.73636Z" fill="#70A2A1"/>
</svg>
