<svg width="30" height="30" viewBox="0 0 30 30" fill="none" xmlns="http://www.w3.org/2000/svg">
<path d="M26.531 15.7224L14.0907 3.2823C13.9294 3.12099 13.7278 3.04033 13.5261 3.04033L3.80658 3C3.36296 3 3 3.36296 3 3.80657L3.04033 13.526C3.04033 13.7277 3.12099 13.9293 3.2823 14.0906L15.7225 26.5307C15.8838 26.692 16.0855 26.7727 16.2871 26.7727C16.8517 27.3373 16.7308 26.692 16.8517 26.5307L26.5307 16.8518C26.692 16.6905 26.7727 16.4889 26.7727 16.2872C26.7727 16.0856 26.6923 15.8434 26.531 15.7224ZM7.07539 8.68824C6.18815 8.68824 5.46222 7.96232 5.46222 7.07509C5.46222 6.18786 6.18815 5.46194 7.07539 5.46194C7.96263 5.46194 8.68855 6.18786 8.68855 7.07509C8.68855 7.96232 7.96263 8.68824 7.07539 8.68824Z" fill="#C2892B"/>
<path d="M10.9435 9.73331L11.7154 10.5053C12.6597 9.80469 13.9858 9.85975 14.9544 10.6787C15.0357 10.7601 15.1168 10.8411 15.0828 10.9568C15.1268 11.0754 15.052 11.1502 14.9771 11.2251L14.1919 12.0097C14.0798 12.1218 13.8863 12.1526 13.7269 12.0683C13.4865 11.9024 13.1371 11.927 12.9129 12.1513L12.2025 12.8616C11.8286 13.2355 11.7767 13.8565 12.1423 14.222C12.3082 14.4625 12.5859 14.5911 12.898 14.6038C13.1725 14.654 13.4408 14.5484 13.665 14.3241L14.2632 13.726C14.8238 13.1653 15.6285 12.8481 16.4895 12.9619C17.3103 13.0348 18.1063 13.4574 18.6785 14.1042C19.538 15.1134 19.6372 16.5581 18.943 17.6585L19.7149 18.4305C19.8773 18.5928 19.8873 18.8271 19.7376 18.9768L18.9525 19.762C18.8031 19.9114 18.5688 19.9019 18.4061 19.7392L17.6342 18.9673C16.6899 19.6679 15.3638 19.6128 14.3952 18.7938C14.3139 18.7125 14.2328 18.6314 14.2668 18.5158C14.2636 18.438 14.2976 18.3223 14.3725 18.2475L15.1577 17.4623C15.2698 17.3502 15.4632 17.3194 15.6226 17.4037C15.8631 17.5696 16.2125 17.545 16.4367 17.3207L17.1471 16.6104C17.521 16.2365 17.5353 15.6531 17.2073 15.25C17.0414 15.0095 16.7637 14.8809 16.4516 14.8682C16.1771 14.818 15.9088 14.9236 15.6846 15.1479L15.1612 15.6712C14.0773 16.7552 12.3267 16.7992 11.1179 15.8147C9.86831 14.7893 9.563 13.0634 10.4066 11.8135L9.63465 11.0416C9.47227 10.8792 9.46227 10.6449 9.61195 10.4952L10.3974 9.71034C10.5468 9.56093 10.7808 9.57065 10.9435 9.73331Z" fill="white"/>
</svg>
