<svg width="30" height="30" viewBox="0 0 30 30" fill="none" xmlns="http://www.w3.org/2000/svg">
<path fill-rule="evenodd" clip-rule="evenodd" d="M29.661 4.52875L23.521 0.17175C23.2 -0.05725 22.769 -0.05725 22.448 0.17175L16.308 4.52875C15.726 4.94175 16.018 5.85775 16.732 5.85775H17.891V12.8958C17.891 13.3418 18.257 13.7078 18.704 13.7078H20.692C21.139 13.7078 21.504 13.3418 21.504 12.8958V11.3757V10.5627C21.504 9.74575 22.167 9.08275 22.984 9.08275C23.803 9.08275 24.465 9.74575 24.465 10.5627V11.3757V12.8958C24.465 13.3418 24.83 13.7078 25.277 13.7078H27.163C27.609 13.7078 27.975 13.3418 27.975 12.8958V5.85775H29.237C29.951 5.85775 30.243 4.94175 29.661 4.52875" fill="#70A2A0"/>
<path fill-rule="evenodd" clip-rule="evenodd" d="M11.1964 6.33637C11.1964 7.62709 10.1348 8.67274 8.82516 8.67274C7.5155 8.67274 6.45391 7.62709 6.45391 6.33637C6.45391 5.04531 7.5155 4 8.82516 4C10.1348 4 11.1964 5.04531 11.1964 6.33637ZM13.1234 11.8719L14.8484 18.6204C14.9847 19.1533 14.6565 19.6939 14.1159 19.8282C14.0331 19.8487 13.95 19.8584 13.8682 19.8584C13.4169 19.8584 13.0052 19.5579 12.8901 19.1065L11.6945 14.4298V18.6038C11.6953 18.6092 11.6967 18.6144 11.6981 18.6197C11.6996 18.6258 11.7012 18.6319 11.7019 18.6383C11.704 18.6549 11.706 18.6771 11.707 18.694L12.4101 28.7594C12.4546 29.3992 11.9645 29.9537 11.3152 29.9974C10.6831 30.0405 10.1328 29.5809 10.0631 28.9664L9.00051 19.4591H8.62488L7.56194 28.9664C7.49059 29.6035 6.90863 30.0634 6.26171 29.9931C5.63196 29.9248 5.17286 29.3766 5.21527 28.7594L5.91806 18.694C5.919 18.68 5.92186 18.6667 5.92471 18.6533C5.92695 18.6429 5.92918 18.6325 5.93051 18.6217V14.4298L4.73529 19.1065C4.61985 19.5576 4.20854 19.8584 3.75684 19.8584C3.67505 19.8584 3.59225 19.8487 3.50945 19.8282C2.96856 19.6939 2.64038 19.1533 2.7767 18.6204L4.5017 11.8719C4.52897 11.7655 4.57643 11.67 4.63331 11.5817C5.15098 10.3076 6.42395 9.32562 7.6545 9.32562H8.80024L8.82515 9.40422V9.32562H9.97055C11.2018 9.32562 12.4747 10.3083 12.9921 11.5831C13.049 11.6709 13.0961 11.7658 13.1234 11.8719Z" fill="#70A2A0"/>
</svg>
