<svg width="30" height="30" viewBox="0 0 30 30" fill="none" xmlns="http://www.w3.org/2000/svg">
<path d="M19.6287 20.0719L9.78016 10.2235C9.65245 10.0958 9.49282 10.0319 9.33318 10.0319L1.63854 10C1.28734 10 1 10.2873 1 10.6385L1.03193 18.3331C1.03193 18.4927 1.09578 18.6524 1.22349 18.7801L11.072 28.6285C11.1997 28.7562 11.3593 28.8201 11.519 28.8201C11.966 29.267 11.8702 28.7562 11.966 28.6285L19.6285 20.966C19.7562 20.8383 19.8201 20.6787 19.8201 20.5191C19.8201 20.3594 19.7564 20.1677 19.6287 20.0719ZM4.22635 14.5032C3.52395 14.5032 2.94926 13.9285 2.94926 13.2261C2.94926 12.5237 3.52395 11.949 4.22635 11.949C4.92875 11.949 5.50344 12.5237 5.50344 13.2261C5.50344 13.9285 4.92875 14.5032 4.22635 14.5032Z" fill="#C2892B"/>
<path d="M7.28862 15.3305L7.89975 15.9416C8.6473 15.387 9.69711 15.4306 10.464 16.079C10.5284 16.1434 10.5925 16.2075 10.5656 16.2991C10.6004 16.393 10.5412 16.4522 10.4819 16.5115L9.86033 17.1326C9.77156 17.2214 9.61841 17.2458 9.49222 17.1791C9.30184 17.0477 9.02528 17.0672 8.84774 17.2447L8.28539 17.8071C7.98936 18.1031 7.94828 18.5947 8.23767 18.8841C8.369 19.0744 8.5889 19.1763 8.83594 19.1863C9.05325 19.2261 9.26565 19.1425 9.44319 18.9649L9.91675 18.4914C10.3606 18.0475 10.9976 17.7964 11.6792 17.8865C12.329 17.9442 12.9592 18.2788 13.4122 18.7908C14.0926 19.5897 14.1712 20.7335 13.6216 21.6046L14.2327 22.2158C14.3613 22.3443 14.3692 22.5298 14.2507 22.6483L13.6291 23.2699C13.5108 23.3881 13.3254 23.3807 13.1966 23.2519L12.5855 22.6408C11.8379 23.1954 10.7881 23.1518 10.0212 22.5034C9.95686 22.439 9.8927 22.3749 9.91964 22.2833C9.91708 22.2217 9.94402 22.1302 10.0033 22.0709L10.6249 21.4493C10.7136 21.3605 10.8668 21.3362 10.993 21.4029C11.1834 21.5342 11.4599 21.5148 11.6375 21.3372L12.1998 20.7749C12.4958 20.4788 12.5072 20.017 12.2475 19.6979C12.1162 19.5075 11.8963 19.4057 11.6493 19.3957C11.4319 19.3559 11.2195 19.4395 11.042 19.617L10.6277 20.0314C9.76955 20.8895 8.38367 20.9244 7.42675 20.1449C6.43746 19.3332 6.19576 17.9668 6.86361 16.9773L6.25248 16.3662C6.12393 16.2377 6.11601 16.0522 6.23451 15.9337L6.85633 15.3123C6.97462 15.194 7.15985 15.2017 7.28862 15.3305Z" fill="white"/>
<path d="M23.7947 11.1688C24.0064 10.9602 24.125 10.6699 24.125 10.3724C24.125 10.078 24.0064 9.78669 23.7947 9.57815C23.587 9.36858 23.2976 9.25 23 9.25C22.7034 9.25 22.4119 9.36858 22.2033 9.57815C21.9936 9.78669 21.875 10.078 21.875 10.3724C21.875 10.6699 21.9936 10.9602 22.2033 11.1688C22.4119 11.3784 22.7034 11.5 23 11.5C23.2976 11.5 23.587 11.3784 23.7947 11.1688Z" fill="white"/>
<path d="M22.8124 3.25C22.0308 3.25 21.833 3.89803 21.882 4.28529L22.3538 8.36611C22.373 8.75435 22.6059 8.875 22.8124 8.875C22.9971 8.875 23.2553 8.73489 23.2711 8.36611L23.7429 4.28529C23.7919 3.90776 23.5993 3.25 22.8124 3.25Z" fill="white"/>
<path fill-rule="evenodd" clip-rule="evenodd" d="M23.2497 8.99977V8.24973C23.2497 8.0425 23.4181 7.87471 23.6253 7.87471H24.3747C24.5819 7.87471 24.7497 8.0425 24.7497 8.24973V8.99977C24.7497 9.207 24.5819 9.37479 24.3747 9.37479H23.6253C23.4181 9.37479 23.2497 9.207 23.2497 8.99977ZM20.6252 8.99977V8.24973C20.6252 8.0425 20.793 7.87471 20.9996 7.87471H21.7496C21.9575 7.87471 22.1247 8.0425 22.1247 8.24973V8.99977C22.1247 9.207 21.9575 9.37479 21.7496 9.37479H20.9996C20.793 9.37479 20.6252 9.207 20.6252 8.99977ZM25.8747 6.37471V5.62467C25.8747 5.41744 26.0425 5.24965 26.2497 5.24965H26.9998C27.2064 5.24965 27.3748 5.41744 27.3748 5.62467V6.37471C27.3748 6.58194 27.2064 6.74973 26.9998 6.74973H26.2497C26.0425 6.74973 25.8747 6.58194 25.8747 6.37471ZM23.2497 6.37471V5.62467C23.2497 5.41744 23.4181 5.24965 23.6253 5.24965H24.3747C24.5819 5.24965 24.7497 5.41744 24.7497 5.62467V6.37471C24.7497 6.58194 24.5819 6.74973 24.3747 6.74973H23.6253C23.4181 6.74973 23.2497 6.58194 23.2497 6.37471ZM20.6252 6.37471V5.62467C20.6252 5.41744 20.793 5.24965 20.9996 5.24965H21.7496C21.9575 5.24965 22.1247 5.41744 22.1247 5.62467V6.37471C22.1247 6.58194 21.9575 6.74973 21.7496 6.74973H20.9996C20.793 6.74973 20.6252 6.58194 20.6252 6.37471ZM19.5001 10.5H28.4999V4.12529H19.5001V10.5ZM28.8743 1.50008H28.1249V0.937236C28.1249 0.419471 27.7048 0 27.187 0C26.6693 0 26.2498 0.419471 26.2498 0.937236V1.50008H21.7496V0.937236C21.7496 0.419471 21.3307 0 20.8123 0C20.2946 0 19.8745 0.419471 19.8745 0.937236V1.50008H19.1251C18.5034 1.50008 18 2.00344 18 2.62451V10.8749C18 11.496 18.5034 12 19.1251 12H28.8743C29.4966 12 29.9994 11.496 29.9994 10.8749V2.62451C29.9994 2.00344 29.4966 1.50008 28.8743 1.50008Z" fill="#C2892B"/>
</svg>
