<svg xmlns="http://www.w3.org/2000/svg" viewBox="0 0 30 30"><g><path d="M26.47.12H21.53L18,5.35,20.71,19.1h6.58L30,5.35Zm.53,8H25v4H23v-4H21v-2h2v-2h2v2h2Z" fill="#a9a9a9"/><circle cx="9.35" cy="5.85" r="3.91" fill="#a9a9a9"/><path d="M14.5,21.14c-.1-.09-1.51-1.44-1.5-1.46l-2.38,2.81,1.86,1.81L11,26.53a1.4,1.4,0,0,0,2.2,1.71A33.52,33.52,0,0,0,15.94,25a2.4,2.4,0,0,0,0-2.39A9.05,9.05,0,0,0,14.5,21.14Z" fill="#a9a9a9"/><path d="M5.7,19.68s-1.4,1.37-1.49,1.46a9.05,9.05,0,0,0-1.47,1.5,2.42,2.42,0,0,0,0,2.39A33.62,33.62,0,0,0,5.5,28.24a1.39,1.39,0,0,0,2.19-1.71L6.22,24.3l1.87-1.81Z" fill="#a9a9a9"/><path d="M15.65,14c-.36-.44-2-2.68-3.92-3.18a9.45,9.45,0,0,0-2.25-.23H9.23A9.53,9.53,0,0,0,7,10.83c-2,.5-3.55,2.74-3.92,3.18S1.25,16.23.91,16.69a1.2,1.2,0,0,0,.27,1.68,1.21,1.21,0,0,0,1.46,0c.32-.26,2.91-2.64,3.08-2.81V18H13V15.52c.18.17,2.77,2.55,3.08,2.81a1.21,1.21,0,0,0,1.74-1.64C17.46,16.23,16,14.44,15.65,14Z" fill="#a9a9a9"/></g></svg>