<?xml version="1.0" encoding="UTF-8"?>
<svg width="30px" height="30px" viewBox="0 0 30 30" version="1.1" xmlns="http://www.w3.org/2000/svg" xmlns:xlink="http://www.w3.org/1999/xlink">
    <title>icon/03 forms/PNC-baby-danger-signpng</title>
    <defs>
        <path d="M12.3217,20.567 C12.3067,20.584 13.7187,21.928 13.8137,22.021 C14.3547,22.548 14.8837,22.906 15.2847,23.523 C15.7357,24.218 15.6547,25.192 15.2587,25.911 C14.8957,26.57 13.0197,28.581 12.5247,29.122 C12.0027,29.69 11.1207,29.729 10.5517,29.208 C10.0387,28.738 9.9577,27.972 10.3297,27.409 L10.3297,27.409 L11.7987,25.183 L9.9377,23.372 C9.9377,23.372 11.8025033,21.176963 12.2335347,20.670416 L12.3112847,20.579129 L12.3112847,20.579129 Z M5.0197,20.5669 L7.4027,23.3719 L5.5407,25.1829 L7.0107,27.4089 C7.3837,27.9719 7.3027,28.7379 6.7897,29.2079 C6.2207,29.7289 5.3367,29.6899 4.8167,29.1219 C4.3217,28.5809 2.4447,26.5699 2.0817,25.9109 C1.6857,25.1919 1.6057,24.2179 2.0557,23.5229 C2.4567,22.9059 2.9867,22.5479 3.5277,22.0209 C3.6227,21.9279 5.0347,20.5839 5.0197,20.5669 L5.0197,20.5669 Z M8.7979,11.4871 C9.5519,11.4871 10.3169,11.5281 11.0479,11.7141 C13.0119,12.2121 14.6039,14.4541 14.9719,14.8911 C15.13465,15.0805375 15.5006734,15.5285648 15.8891751,16.0117631 L16.2234647,16.4293354 C16.6100523,16.914393 16.9674625,17.3707875 17.1149,17.5751 C17.5019,18.1131 17.3799,18.8631 16.8419,19.2511 C16.3919,19.5761 15.7919,19.5421 15.3809,19.2071 C15.0639,18.9491 12.4759,16.5701 12.3019,16.3981 L12.3019,16.3981 L12.3019,18.8701 L5.0389,18.8701 L5.0389,16.3981 C4.8649,16.5701 2.2779,18.9491 1.9589,19.2071 C1.5489,19.5421 0.9499,19.5761 0.4979,19.2511 C-0.0391,18.8631 -0.1611,18.1131 0.2269,17.5751 C0.3743375,17.3707875 0.731364844,16.914393 1.11752183,16.4293354 L1.45143833,16.0117631 C1.83950938,15.5285648 2.20515,15.0805375 2.3679,14.8911 C2.7369,14.4541 4.3289,12.2121 6.2919,11.7141 C7.0239,11.5281 7.7889,11.4871 8.5429,11.4871 L8.5429,11.4871 Z M8.6701,2.8291 C10.8281,2.8291 12.5771,4.5781 12.5771,6.7361 C12.5771,8.8931 10.8281,10.6421 8.6701,10.6421 C6.5131,10.6421 4.7631,8.8931 4.7631,6.7361 C4.7631,4.5781 6.5131,2.8291 8.6701,2.8291 Z" id="path-1"></path>
        <path d="M23.5681,11.9384 C23.3651,12.1434 23.0821,12.2614 22.7911,12.2614 C22.5011,12.2614 22.2161,12.1434 22.0121,11.9384 C21.8071,11.7334 21.6911,11.4504 21.6911,11.1594 C21.6911,10.8704 21.8071,10.5864 22.0121,10.3814 C22.2161,10.1774 22.5011,10.0614 22.7911,10.0614 C23.0821,10.0614 23.3651,10.1774 23.5681,10.3814 C23.7751,10.5864 23.8911,10.8714 23.8911,11.1594 C23.8911,11.4504 23.7751,11.7334 23.5681,11.9384 M22.7911,3.7094 C23.6901,3.7094 23.9101,4.3854 23.8541,4.7724 L23.3151,8.9674 C23.2971,9.3464 23.0021,9.4904 22.7911,9.4904 C22.5551,9.4904 22.2891,9.3664 22.2671,8.9674 L21.7281,4.7724 C21.6721,4.3744 21.8981,3.7094 22.7911,3.7094 M29.3171,10.0304 L24.7601,2.1384 C24.3551,1.4364 23.5991,1.0004 22.7901,1.0004 C21.9791,1.0004 21.2241,1.4354 20.8191,2.1374 L16.2101,10.1204 C15.8041,10.8214 15.8051,11.6944 16.2101,12.3954 C16.6151,13.0964 17.3711,13.5334 18.1811,13.5334 L27.4001,13.5334 L27.4201,13.5334 C28.6661,13.5234 29.6761,12.5064 29.6761,11.2584 C29.6761,10.8204 29.5511,10.3964 29.3171,10.0304" id="path-3"></path>
    </defs>
    <g id="icon/03-forms/PNC-baby-danger-sign" stroke="none" stroke-width="1" fill="none" fill-rule="evenodd">
        <mask id="mask-2" fill="white">
            <use xlink:href="#path-1"></use>
        </mask>
        <use id="baby" fill="#E0381F" xlink:href="#path-1"></use>
        <mask id="mask-4" fill="white">
            <use xlink:href="#path-3"></use>
        </mask>
        <use id="danger-sign" fill="#E0381F" xlink:href="#path-3"></use>
    </g>
</svg>