<svg width="30" height="30" viewBox="0 0 30 30" fill="none" xmlns="http://www.w3.org/2000/svg">
<path fill-rule="evenodd" clip-rule="evenodd" d="M16.0865 5.46024C17.5675 5.46024 18.7705 4.23724 18.7705 2.73024C18.7705 1.22324 17.5675 0.000244141 16.0865 0.000244141C14.6045 0.000244141 13.4015 1.22324 13.4015 2.73024C13.4015 4.23724 14.6045 5.46024 16.0865 5.46024ZM19.4077 13.2615C19.4077 13.2615 18.5903 10.682 17.9077 9.36054C17.2251 8.03914 16.2367 6.90854 15.0337 6.17754C14.3527 5.76254 13.4537 5.58954 12.6587 5.76254C11.7209 5.96708 11.0851 6.93633 10.5382 7.76989C10.4087 7.96738 10.2841 8.15726 10.1617 8.32754C9.74246 8.91145 9.03241 9.89985 8.59516 10.5085L8.59397 10.5102L8.21371 11.0395L8.18371 11.0805C7.88371 11.5015 7.95771 12.0905 8.36471 12.4235L11.9687 15.3645C12.3127 15.6455 12.7817 15.6435 13.1347 15.4105C12.9408 16.186 10.9555 21.8381 10.0237 24.491L10.0237 24.4912C9.81156 25.0951 9.65405 25.5435 9.58471 25.7435L9.44071 26.1565H13.3547L13.5017 28.9315C13.5297 29.4745 13.9417 29.9205 14.4707 29.9515C15.0367 29.9845 15.5217 29.5285 15.5537 28.9315L15.6997 26.1565H19.1597C19.1467 25.8985 18.8757 20.8815 18.8347 20.4165C18.7937 19.9516 18.7937 19.1585 18.7937 19.1585C19.2135 18.6916 19.5307 18.2685 19.7597 17.7485C19.9657 17.2795 20.0877 16.7765 20.1157 16.2605C20.1737 15.2125 19.4077 13.2615 19.4077 13.2615ZM12.5007 9.12854L10.4097 11.5325L13.2227 13.8275C13.2552 13.8548 13.2788 13.888 13.3023 13.9211C13.315 13.9389 13.3277 13.9567 13.3417 13.9735C13.3667 13.0105 13.1807 12.0515 12.9587 11.1135C12.8027 10.4525 12.6477 9.79054 12.5007 9.12854Z" fill="#F47963"/>
</svg>
