<?xml version="1.0" encoding="UTF-8" standalone="no"?>
<svg
   version="1.1"
   width="7048.6582"
   height="3248.2498"
   style="clip-rule:evenodd;fill-rule:evenodd;image-rendering:optimizeQuality;shape-rendering:geometricPrecision;text-rendering:geometricPrecision"
   id="svg42"
   sodipodi:docname="logo.svg"
   inkscape:version="1.4.3 (0d15f75042, 2025-12-25)"
   xmlns:inkscape="http://www.inkscape.org/namespaces/inkscape"
   xmlns:sodipodi="http://sodipodi.sourceforge.net/DTD/sodipodi-0.dtd"
   xmlns="http://www.w3.org/2000/svg"
   xmlns:svg="http://www.w3.org/2000/svg">
  <defs
     id="defs42" />
  <sodipodi:namedview
     id="namedview42"
     pagecolor="#ffffff"
     bordercolor="#000000"
     borderopacity="0.25"
     inkscape:showpageshadow="2"
     inkscape:pageopacity="0.0"
     inkscape:pagecheckerboard="0"
     inkscape:deskcolor="#d1d1d1"
     inkscape:zoom="0.16413716"
     inkscape:cx="6515.8919"
     inkscape:cy="1678.4743"
     inkscape:window-width="2129"
     inkscape:window-height="967"
     inkscape:window-x="26"
     inkscape:window-y="23"
     inkscape:window-maximized="0"
     inkscape:current-layer="svg42" />
  <g
     id="g1"
     transform="translate(-915.53131,66.235863)">
    <path
       style="opacity:0.995"
       fill="#41afae"
       d="m 1369.5,850.5 c 85.61,-3.784 151.11,30.216 196.5,102 36.94,69.5 36.6,138.84 -1,208 -36.33,58.25 -88.83,91.42 -157.5,99.5 -71.3,4.92 -130.47,-19.25 -177.5,-72.5 -49.51,-64.24 -60.18,-134.57 -32,-211 22.56,-52.227 60.06,-89.394 112.5,-111.5 19.16,-7.459 38.82,-12.292 59,-14.5 z"
       id="path1" />
  </g>
  <g
     id="g2"
     transform="translate(-915.53131,66.235863)">
    <path
       style="opacity:0.989"
       fill="#37464d"
       d="m 2815.5,1030.5 c 23.84,-1.19 46.5,3.31 68,13.5 28.93,17.66 45.43,43.5 49.5,77.5 1.43,26.64 1.93,53.3 1.5,80 -24,0 -48,0 -72,0 0.17,-21 0,-42 -0.5,-63 -1.24,-23.57 -13.57,-36.24 -37,-38 -22.23,0.56 -34.56,11.9 -37,34 -0.67,97 -0.67,194 0,291 4.31,25.08 19.14,35.92 44.5,32.5 10.89,-1.57 19.06,-7.07 24.5,-16.5 2.81,-6.37 4.47,-13.04 5,-20 0.5,-27 0.67,-54 0.5,-81 24,0 48,0 72,0 0.17,29.67 0,59.34 -0.5,89 -1.95,31.07 -14.45,56.9 -37.5,77.5 -26.59,17.79 -55.92,24.79 -88,21 -51.6,-3.93 -83.1,-31.1 -94.5,-81.5 -1.47,-7.27 -2.47,-14.6 -3,-22 -0.67,-96.67 -0.67,-193.33 0,-290 4.9,-65.07 39.73,-99.73 104.5,-104 z"
       id="path2" />
  </g>
  <g
     id="g3"
     transform="translate(-915.53131,66.235863)">
    <path
       style="opacity:0.988"
       fill="#37464d"
       d="m 3100.5,1030.5 c 80.39,-0.44 121.56,39.56 123.5,120 0.67,86 0.67,172 0,258 0.86,30.06 -7.14,57.4 -24,82 -14.72,18.02 -33.56,29.52 -56.5,34.5 -33,7.06 -65,4.06 -96,-9 -28.36,-16.06 -45.53,-40.22 -51.5,-72.5 -1.47,-7.94 -2.47,-15.94 -3,-24 -0.67,-93.33 -0.67,-186.67 0,-280 4.31,-67.81 40.14,-104.14 107.5,-109 z m 4,70 c 27.98,0.48 42.15,14.81 42.5,43 0.98,94.02 0.64,188.02 -1,282 -3.15,21.91 -15.82,32.91 -38,33 -23.43,-1.1 -36.1,-13.43 -38,-37 -0.67,-94.33 -0.67,-188.67 0,-283 1.26,-22.31 12.76,-34.98 34.5,-38 z"
       id="path3" />
  </g>
  <g
     id="g4"
     transform="translate(-915.53131,66.235863)">
    <path
       style="opacity:0.991"
       fill="#37464d"
       d="m 3291.5,1037.5 c 36.33,0 72.67,0 109,0 16.12,115.33 32.28,230.66 48.5,346 16.4,-115.31 32.57,-230.64 48.5,-346 36.33,0 72.67,0 109,0 0,161.33 0,322.67 0,484 -24,0 -48,0 -72,0 0.17,-121.67 0,-243.33 -0.5,-365 -18.72,121.64 -37.22,243.31 -55.5,365 -21.67,0 -43.33,0 -65,0 -17.84,-121.7 -36.01,-243.37 -54.5,-365 -0.5,121.67 -0.67,243.33 -0.5,365 -22.33,0 -44.67,0 -67,0 0,-161.33 0,-322.67 0,-484 z"
       id="path4" />
  </g>
  <g
     id="g5"
     transform="translate(-915.53131,66.235863)">
    <path
       style="opacity:0.987"
       fill="#37464d"
       d="m 3679.5,1037.5 c 36.57,-0.33 73.07,0 109.5,1 16.08,114.32 32.08,228.66 48,343 16.95,-114.47 33.11,-229.14 48.5,-344 36.67,0 73.33,0 110,0 0,161.33 0,322.67 0,484 -24.33,0 -48.67,0 -73,0 0.17,-121.67 0,-243.33 -0.5,-365 -18.33,121.33 -36.67,242.67 -55,364 -21.42,0.99 -42.92,1.33 -64.5,1 -18.28,-121.69 -36.78,-243.36 -55.5,-365 -0.5,121.67 -0.67,243.33 -0.5,365 -22.33,0 -44.67,0 -67,0 0,-161.33 0,-322.67 0,-484 z"
       id="path5" />
  </g>
  <g
     id="g6"
     transform="translate(-915.53131,66.235863)">
    <path
       style="opacity:0.988"
       fill="#37464d"
       d="m 4065.5,1037.5 c 25.67,0 51.33,0 77,0 -0.17,129.33 0,258.67 0.5,388 2.92,21.58 15.25,32.58 37,33 23.91,-1.25 36.58,-13.91 38,-38 0.5,-127.67 0.67,-255.33 0.5,-383 24.67,0 49.33,0 74,0 0.17,128 0,256 -0.5,384 -5.29,69.96 -42.96,105.63 -113,107 -31.72,1.43 -59.39,-8.24 -83,-29 -18.57,-21.02 -28.57,-45.69 -30,-74 -0.5,-129.33 -0.67,-258.67 -0.5,-388 z"
       id="path6" />
  </g>
  <g
     id="g7"
     transform="translate(-915.53131,66.235863)">
    <path
       style="opacity:0.985"
       fill="#37464d"
       d="m 4362.5,1037.5 c 32.24,-0.33 64.41,0 96.5,1 24.33,95.33 48.67,190.67 73,286 0.5,-95.67 0.67,-191.33 0.5,-287 23,0 46,0 69,0 0,161.33 0,322.67 0,484 -26.73,0.65 -53.23,-0.01 -79.5,-2 -30,-116 -60,-232 -90,-348 -0.5,116.67 -0.67,233.33 -0.5,350 -23,0 -46,0 -69,0 0,-161.33 0,-322.67 0,-484 z"
       id="path7" />
  </g>
  <g
     id="g8"
     transform="translate(-915.53131,66.235863)">
    <path
       style="opacity:0.985"
       fill="#37464d"
       d="m 4674.5,1037.5 c 25.67,0 51.33,0 77,0 0,161.33 0,322.67 0,484 -25.67,0 -51.33,0 -77,0 0,-161.33 0,-322.67 0,-484 z"
       id="path8" />
  </g>
  <g
     id="g9"
     transform="translate(-915.53131,66.235863)">
    <path
       style="opacity:0.986"
       fill="#37464d"
       d="m 4803.5,1037.5 c 78.67,0 157.33,0 236,0 0,23.33 0,46.67 0,70 -26.33,0 -52.67,0 -79,0 0,138 0,276 0,414 -25.67,0 -51.33,0 -77,0 0,-138 0,-276 0,-414 -26.67,0 -53.33,0 -80,0 0,-23.33 0,-46.67 0,-70 z"
       id="path9" />
  </g>
  <g
     id="g10"
     transform="translate(-915.53131,66.235863)">
    <path
       style="opacity:0.986"
       fill="#37464d"
       d="m 5072.5,1038.5 c 27.4,-1.33 54.9,-1.33 82.5,0 16.95,58.84 34.28,117.51 52,176 17.07,-58.7 34.23,-117.37 51.5,-176 25,-1.33 50,-1.33 75,0 -30.6,91.96 -61.1,183.96 -91.5,276 -0.5,69 -0.67,138 -0.5,207 -25.67,0 -51.33,0 -77,0 0.17,-69.33 0,-138.67 -0.5,-208 -30.24,-91.87 -60.74,-183.54 -91.5,-275 z"
       id="path10" />
  </g>
  <g
     id="g11"
     transform="translate(-915.53131,66.235863)">
    <path
       style="opacity:0.989"
       fill="#37464d"
       d="m 5511.5,1037.5 c 25.67,0 51.33,0 77,0 0,65.67 0,131.33 0,197 26.67,0 53.33,0 80,0 0,-65.67 0,-131.33 0,-197 25.67,0 51.33,0 77,0 0,161.33 0,322.67 0,484 -25.67,0 -51.33,0 -77,0 0,-72.33 0,-144.67 0,-217 -26.67,0 -53.33,0 -80,0 0,72.33 0,144.67 0,217 -25.67,0 -51.33,0 -77,0 0,-161.33 0,-322.67 0,-484 z"
       id="path11" />
  </g>
  <g
     id="g12"
     transform="translate(-915.53131,66.235863)">
    <path
       style="opacity:0.989"
       fill="#37464d"
       d="m 5818.5,1037.5 c 69.33,0 138.67,0 208,0 0,23.33 0,46.67 0,70 -43.67,0 -87.33,0 -131,0 0,42.33 0,84.67 0,127 34.67,0 69.33,0 104,0 0,23.33 0,46.67 0,70 -34.67,0 -69.33,0 -104,0 0,49 0,98 0,147 43.67,0 87.33,0 131,0 0,23.33 0,46.67 0,70 -69.33,0 -138.67,0 -208,0 0,-161.33 0,-322.67 0,-484 z"
       id="path12" />
  </g>
  <g
     id="g13"
     transform="translate(-915.53131,66.235863)">
    <path
       style="opacity:0.987"
       fill="#37464d"
       d="m 6144.5,1037.5 c 35.06,-0.66 69.89,0.01 104.5,2 26.06,160.7 52.23,321.36 78.5,482 -25.67,0 -51.33,0 -77,0 -4.34,-31.25 -9.01,-62.41 -14,-93.5 -28.33,-0.5 -56.66,-0.67 -85,-0.5 -4.56,31.02 -9.23,62.02 -14,93 -23.66,1 -47.32,1.33 -71,1 26,-161.33 52,-322.67 78,-484 z m 49,86 c 11.69,78.82 23.02,157.82 34,237 -22.33,0 -44.67,0 -67,0 10.92,-79.01 21.92,-158.01 33,-237 z"
       id="path13" />
  </g>
  <g
     id="g14"
     transform="translate(-915.53131,66.235863)">
    <path
       style="opacity:0.996"
       fill="#37464d"
       d="m 6380.5,1037.5 c 25.33,0 50.67,0 76,0 0,138 0,276 0,414 41.67,0 83.33,0 125,0 0,23.33 0,46.67 0,70 -67,0 -134,0 -201,0 0,-161.33 0,-322.67 0,-484 z"
       id="path14" />
  </g>
  <g
     id="g15"
     transform="translate(-915.53131,66.235863)">
    <path
       style="opacity:0.988"
       fill="#37464d"
       d="m 6560.5,1037.5 c 78.67,0 157.33,0 236,0 0,23.33 0,46.67 0,70 -26.33,0 -52.67,0 -79,0 0,138 0,276 0,414 -25.67,0 -51.33,0 -77,0 0,-138 0,-276 0,-414 -26.67,0 -53.33,0 -80,0 0,-23.33 0,-46.67 0,-70 z"
       id="path15" />
  </g>
  <g
     id="g16"
     transform="translate(-915.53131,66.235863)">
    <path
       style="opacity:0.989"
       fill="#37464d"
       d="m 6849.5,1037.5 c 25.67,0 51.33,0 77,0 0,65.67 0,131.33 0,197 26.67,0 53.33,0 80,0 0,-65.67 0,-131.33 0,-197 25.67,0 51.33,0 77,0 0,161.33 0,322.67 0,484 -25.67,0 -51.33,0 -77,0 0,-72.33 0,-144.67 0,-217 -26.67,0 -53.33,0 -80,0 0,72.33 0,144.67 0,217 -25.67,0 -51.33,0 -77,0 0,-161.33 0,-322.67 0,-484 z"
       id="path16" />
  </g>
  <g
     id="g17"
     transform="translate(-915.53131,66.235863)">
    <path
       style="opacity:0.994"
       fill="#7ed6d2"
       d="m 2039.5,1072.5 c 63.02,1.91 108.52,30.91 136.5,87 21.64,54.29 15.3,104.96 -19,152 -37.94,43.98 -85.77,61.48 -143.5,52.5 -52.68,-11.68 -89.18,-42.51 -109.5,-92.5 -18.3,-55.85 -8.63,-106.19 29,-151 29.02,-30.39 64.52,-46.39 106.5,-48 z"
       id="path17" />
  </g>
  <g
     id="g18"
     transform="translate(-915.53131,66.235863)">
    <path
       style="opacity:0.995"
       fill="#41afaf"
       d="m 1654.5,1457.5 c -47.3,46.8 -94.47,93.8 -141.5,141 1.17,2.72 2.67,5.38 4.5,8 -12.13,-11.63 -24.13,-23.46 -36,-35.5 -66.37,-56.27 -141.03,-70.61 -224,-43 -73.39,30.07 -118.56,83.9 -135.5,161.5 -12.49,77.19 8.68,143.36 63.5,198.5 61,53.41 131,70.08 210,50 35.19,-10.57 65.85,-28.57 92,-54 37.87,-38.03 75.87,-75.87 114,-113.5 46.08,47.58 92.75,94.75 140,141.5 1.29,0.49 2.63,0.66 4,0.5 -43.16,43.99 -86.83,87.49 -131,130.5 -103.59,88.4 -222.92,121.4 -358,99 -137.36,-28.74 -237.53,-105.57 -300.5,-230.5 -53.623,-119.85 -53.956,-239.85 -1,-360 55.75,-113.41 144.25,-188.24 265.5,-224.5 124.15,-32.03 240.15,-13.7 348,55 31.53,21.68 60.19,46.85 86,75.5 z"
       id="path18" />
  </g>
  <g
     id="g19"
     transform="translate(-915.53131,66.235863)">
    <path
       style="opacity:0.995"
       fill="#7dd5d2"
       d="m 1851.5,1940.5 c 0.74,0.13 1.41,-0.04 2,-0.5 47.2,-47.37 94.53,-94.53 142,-141.5 10.61,11.45 22.28,21.62 35,30.5 45.16,23.97 88.82,21.63 131,-7 38.07,-32.55 51.57,-73.38 40.5,-122.5 -17.75,-53.41 -54.75,-81.41 -111,-84 -27.55,-0.04 -52.05,8.46 -73.5,25.5 -29.58,30.09 -59.58,59.59 -90,88.5 -0.33,0 -0.67,0 -1,0 -12,-12.67 -24.33,-25 -37,-37 -6.33,-7 -13,-13.67 -20,-20 -7.67,-8.33 -15.67,-16.33 -24,-24 -6.33,-7 -13,-13.67 -20,-20 -5.33,-6 -11,-11.67 -17,-17 -8,-8.33 -16,-16.67 -24,-25 32.13,-31.63 64.13,-63.47 96,-95.5 87.13,-71.77 185.79,-94.11 296,-67 104.34,31.68 175.84,98.51 214.5,200.5 29.3,90.11 21.97,177.11 -22,261 -54.06,91.99 -134.22,145.49 -240.5,160.5 -110.07,10.38 -202.4,-24.79 -277,-105.5 z"
       id="path19" />
  </g>
  <g
     id="g20"
     transform="translate(-915.53131,66.235863)">
    <path
       style="opacity:0.999"
       fill="#47b3b2"
       d="m 1654.5,1457.5 c 12.67,12 25,24.33 37,37 -47.3,46.8 -94.47,93.8 -141.5,141 0.06,1.94 0.89,3.6 2.5,5 0,0.33 0,0.67 0,1 -12,-11.33 -23.67,-23 -35,-35 -1.83,-2.62 -3.33,-5.28 -4.5,-8 47.03,-47.2 94.2,-94.2 141.5,-141 z"
       id="path20" />
  </g>
  <g
     id="g21"
     transform="translate(-915.53131,66.235863)">
    <path
       style="opacity:0.999"
       fill="#4bb5b4"
       d="m 1691.5,1494.5 c 1.67,1 3,2.33 4,4 -47.67,47.33 -95.33,94.67 -143,142 -1.61,-1.4 -2.44,-3.06 -2.5,-5 47.03,-47.2 94.2,-94.2 141.5,-141 z"
       id="path21" />
  </g>
  <g
     id="g22"
     transform="translate(-915.53131,66.235863)">
    <path
       style="opacity:0.996"
       fill="#4bb5b4"
       d="m 1695.5,1498.5 c 2,1.33 3.67,3 5,5 -47.33,48 -95,95.67 -143,143 -2,-1.33 -3.67,-3 -5,-5 0,-0.33 0,-0.67 0,-1 47.67,-47.33 95.33,-94.67 143,-142 z"
       id="path22" />
  </g>
  <g
     id="g23"
     transform="translate(-915.53131,66.235863)">
    <path
       style="opacity:0.995"
       fill="#4eb7b7"
       d="m 1700.5,1503.5 c 11.67,11 23,22.33 34,34 -47.33,48 -95,95.67 -143,143 -11.67,-11 -23,-22.33 -34,-34 48,-47.33 95.67,-95 143,-143 z"
       id="path23" />
  </g>
  <g
     id="g24"
     transform="translate(-915.53131,66.235863)">
    <path
       style="opacity:0.995"
       fill="#53bab9"
       d="m 1734.5,1537.5 c 6.67,6 13,12.33 19,19 -48,47.33 -95.67,95 -143,143 -6.67,-6 -13,-12.33 -19,-19 48,-47.33 95.67,-95 143,-143 z"
       id="path24" />
  </g>
  <g
     id="g25"
     transform="translate(-915.53131,66.235863)">
    <path
       style="opacity:0.995"
       fill="#56bcbb"
       d="m 1753.5,1556.5 c 6.33,5.67 12.33,11.67 18,18 -47.33,48 -95,95.67 -143,143 -6.33,-5.67 -12.33,-11.67 -18,-18 47.33,-48 95,-95.67 143,-143 z"
       id="path25" />
  </g>
  <g
     id="g26"
     transform="translate(-915.53131,66.235863)">
    <path
       style="opacity:0.998"
       fill="#5abfbe"
       d="m 1771.5,1574.5 c 4.33,4 8.67,8 13,12 8,8.33 16,16.67 24,25 -47.33,47.67 -94.67,95.33 -142,143 -8.39,-8.39 -17.05,-16.39 -26,-24 -4,-4.33 -8,-8.67 -12,-13 48,-47.33 95.67,-95 143,-143 z"
       id="path26" />
  </g>
  <g
     id="g27"
     transform="translate(-915.53131,66.235863)">
    <path
       style="opacity:1"
       fill="#5ec2c0"
       d="m 1808.5,1611.5 c 6,5.33 11.67,11 17,17 -46.25,47.75 -93.08,95.08 -140.5,142 -0.46,0.59 -0.63,1.26 -0.5,2 -6.33,-5.67 -12.33,-11.67 -18,-18 47.33,-47.67 94.67,-95.33 142,-143 z"
       id="path27" />
  </g>
  <g
     id="g28"
     transform="translate(-915.53131,66.235863)">
    <path
       style="opacity:0.999"
       fill="#61c3c2"
       d="m 1825.5,1628.5 c 7,6.33 13.67,13 20,20 -47.33,47.67 -94.67,95.33 -142,143 -6.67,-6 -13,-12.33 -19,-19 -0.13,-0.74 0.04,-1.41 0.5,-2 47.42,-46.92 94.25,-94.25 140.5,-142 z"
       id="path28" />
  </g>
  <g
     id="g29"
     transform="translate(-915.53131,66.235863)">
    <path
       style="opacity:0.999"
       fill="#65c6c4"
       d="m 1845.5,1648.5 c 8.33,7.67 16.33,15.67 24,24 -47.33,47.67 -94.67,95.33 -142,143 -8.33,-7.67 -16.33,-15.67 -24,-24 47.33,-47.67 94.67,-95.33 142,-143 z"
       id="path29" />
  </g>
  <g
     id="g30"
     transform="translate(-915.53131,66.235863)">
    <path
       style="opacity:0.999"
       fill="#68c8c6"
       d="m 1869.5,1672.5 c 7,6.33 13.67,13 20,20 -48.05,47.05 -95.38,94.72 -142,143 -7,-6.33 -13.67,-13 -20,-20 47.33,-47.67 94.67,-95.33 142,-143 z"
       id="path30" />
  </g>
  <g
     id="g31"
     transform="translate(-915.53131,66.235863)">
    <path
       style="opacity:0.983"
       fill="#37464d"
       d="m 3077.5,1687.5 c 14.77,-0.61 29.44,0.22 44,2.5 28.67,8.01 46.51,26.51 53.5,55.5 1.65,7.24 2.65,14.58 3,22 0.67,67 0.67,134 0,201 -3.49,52.49 -31.49,79.49 -84,81 -29.02,1.24 -52.36,-9.43 -70,-32 -8.69,-14.07 -13.35,-29.4 -14,-46 -0.67,-69 -0.67,-138 0,-207 2.59,-43.41 25.09,-69.07 67.5,-77 z m 9,51 c 18.99,-3.11 30.49,4.56 34.5,23 0.67,71.33 0.67,142.67 0,214 -2.83,14.83 -11.83,22.49 -27,23 -17.74,-1.41 -27.08,-11.08 -28,-29 -0.67,-67.33 -0.67,-134.67 0,-202 0.23,-14.67 7.06,-24.34 20.5,-29 z"
       id="path31" />
  </g>
  <g
     id="g32"
     transform="translate(-915.53131,66.235863)">
    <path
       style="opacity:0.987"
       fill="#37464d"
       d="m 3403.5,1687.5 c 14.77,-0.61 29.44,0.22 44,2.5 28.67,8.01 46.51,26.51 53.5,55.5 1.54,6.92 2.54,13.92 3,21 0.67,67.67 0.67,135.33 0,203 -3.96,51.96 -31.96,78.63 -84,80 -51.6,-1.27 -79.6,-27.6 -84,-79 -0.67,-68.33 -0.67,-136.67 0,-205 2.16,-43.97 24.66,-69.97 67.5,-78 z m 9,51 c 23.18,-2.65 35.01,7.68 35.5,31 0.97,68.69 0.64,137.35 -1,206 -2.83,14.83 -11.83,22.49 -27,23 -18.71,-1.72 -28.05,-12.05 -28,-31 -0.67,-66.33 -0.67,-132.67 0,-199 -0.25,-15.19 6.59,-25.19 20.5,-30 z"
       id="path32" />
  </g>
  <g
     id="g33"
     transform="translate(-915.53131,66.235863)">
    <path
       style="opacity:0.999"
       fill="#6dcbc9"
       d="m 1889.5,1692.5 c 12.67,12 25,24.33 37,37 -48.05,47.05 -95.38,94.72 -142,143 -12.67,-12 -25,-24.33 -37,-37 46.62,-48.28 93.95,-95.95 142,-143 z"
       id="path33" />
  </g>
  <g
     id="g34"
     transform="translate(-915.53131,66.235863)">
    <path
       style="opacity:0.986"
       fill="#37464d"
       d="m 2693.5,1692.5 c 57,0 114,0 171,0 0,17 0,34 0,51 -19.33,0 -38.67,0 -58,0 0,100.33 0,200.67 0,301 -18.67,0 -37.33,0 -56,0 0,-100.33 0,-200.67 0,-301 -19,0 -38,0 -57,0 0,-17 0,-34 0,-51 z"
       id="path34" />
  </g>
  <g
     id="g35"
     transform="translate(-915.53131,66.235863)">
    <path
       style="opacity:0.985"
       fill="#37464d"
       d="m 3665.5,1692.5 c 18.67,0 37.33,0 56,0 0,100.33 0,200.67 0,301 30.33,0 60.67,0 91,0 0,17 0,34 0,51 -49,0 -98,0 -147,0 0,-117.33 0,-234.67 0,-352 z"
       id="path35" />
  </g>
  <g
     id="g36"
     transform="translate(-915.53131,66.235863)">
    <path
       style="opacity:0.983"
       fill="#37464d"
       d="m 3963.5,1692.5 c 18.67,0 37.33,0 56,0 -0.17,48.33 0,96.67 0.5,145 23.11,-47.88 45.94,-95.88 68.5,-144 18.99,-1.17 37.99,-1.33 57,-0.5 -22,43 -44,86 -66,129 22.63,74.07 44.97,148.23 67,222.5 -19.67,0 -39.33,0 -59,0 -15.04,-51.84 -30.54,-103.51 -46.5,-155 -7,14.33 -14,28.67 -21,43 -0.5,37.33 -0.67,74.67 -0.5,112 -18.67,0 -37.33,0 -56,0 0,-117.33 0,-234.67 0,-352 z"
       id="path36" />
  </g>
  <g
     id="g37"
     transform="translate(-915.53131,66.235863)">
    <path
       style="opacity:0.972"
       fill="#37464d"
       d="m 4296.5,1692.5 c 19,0 38,0 57,0 0,117.33 0,234.67 0,352 -19,0 -38,0 -57,0 0,-117.33 0,-234.67 0,-352 z"
       id="path37" />
  </g>
  <g
     id="g38"
     transform="translate(-915.53131,66.235863)">
    <path
       style="opacity:0.989"
       fill="#37464d"
       d="m 4504.5,1692.5 c 57,0 114,0 171,0 0,17 0,34 0,51 -19.33,0 -38.67,0 -58,0 0,100.33 0,200.67 0,301 -18.67,0 -37.33,0 -56,0 0,-100.33 0,-200.67 0,-301 -19,0 -38,0 -57,0 0,-17 0,-34 0,-51 z"
       id="path38" />
  </g>
  <g
     id="g39"
     transform="translate(-915.53131,66.235863)">
    <path
       style="opacity:0.995"
       fill="#71cdcb"
       d="m 1926.5,1729.5 c 0.33,0 0.67,0 1,0 3.33,3.67 6.67,7.33 10,11 -48,47.33 -95.67,95 -143,143 -3.4,-3.4 -7.06,-6.4 -11,-9 0.33,-0.67 0.67,-1.33 1,-2 46.62,-48.28 93.95,-95.95 142,-143 z"
       id="path39" />
  </g>
  <g
     id="g40"
     transform="translate(-915.53131,66.235863)">
    <path
       style="opacity:1"
       fill="#117878"
       d="m 1640.5,1730.5 c 8.95,7.61 17.61,15.61 26,24 5.67,6.33 11.67,12.33 18,18 6,6.67 12.33,13 19,19 7.67,8.33 15.67,16.33 24,24 6.33,7 13,13.67 20,20 12,12.67 24.33,25 37,37 -0.33,0.67 -0.67,1.33 -1,2 -12.33,13 -25,25.67 -38,38 -1.37,0.16 -2.71,-0.01 -4,-0.5 -47.25,-46.75 -93.92,-93.92 -140,-141.5 13,-13.33 26,-26.67 39,-40 z"
       id="path40" />
  </g>
  <g
     id="g41"
     transform="translate(-915.53131,66.235863)">
    <path
       style="opacity:0.996"
       fill="#74cfcd"
       d="m 1937.5,1740.5 c 8.67,8 17,16.33 25,25 -46.42,47.92 -93.42,95.42 -141,142.5 -0.59,0.46 -1.26,0.63 -2,0.5 -8.67,-8 -17,-16.33 -25,-25 47.33,-48 95,-95.67 143,-143 z"
       id="path41" />
  </g>
  <g
     id="g42"
     transform="translate(-915.53131,66.235863)">
    <path
       style="opacity:0.999"
       fill="#79d2d0"
       d="m 1962.5,1765.5 c 11.33,10.67 22.33,21.67 33,33 -47.47,46.97 -94.8,94.13 -142,141.5 -0.59,0.46 -1.26,0.63 -2,0.5 -11,-10.33 -21.67,-21 -32,-32 0.74,0.13 1.41,-0.04 2,-0.5 47.58,-47.08 94.58,-94.58 141,-142.5 z"
       id="path42" />
  </g>
</svg>
