<?xml version="1.0" encoding="UTF-8"?>
<!DOCTYPE svg PUBLIC "-//W3C//DTD SVG 1.1//EN" "http://www.w3.org/Graphics/SVG/1.1/DTD/svg11.dtd">
<svg xmlns="http://www.w3.org/2000/svg" version="1.1" width="8000px" height="3001px" style="shape-rendering:geometricPrecision; text-rendering:geometricPrecision; image-rendering:optimizeQuality; fill-rule:evenodd; clip-rule:evenodd" xmlns:xlink="http://www.w3.org/1999/xlink">
<g><path style="opacity:0.995" fill="#41afae" d="M 1369.5,850.5 C 1455.11,846.716 1520.61,880.716 1566,952.5C 1602.94,1022 1602.6,1091.34 1565,1160.5C 1528.67,1218.75 1476.17,1251.92 1407.5,1260C 1336.2,1264.92 1277.03,1240.75 1230,1187.5C 1180.49,1123.26 1169.82,1052.93 1198,976.5C 1220.56,924.273 1258.06,887.106 1310.5,865C 1329.66,857.541 1349.32,852.708 1369.5,850.5 Z"/></g>
<g><path style="opacity:0.989" fill="#fefffe" d="M 2815.5,1030.5 C 2839.34,1029.31 2862,1033.81 2883.5,1044C 2912.43,1061.66 2928.93,1087.5 2933,1121.5C 2934.43,1148.14 2934.93,1174.8 2934.5,1201.5C 2910.5,1201.5 2886.5,1201.5 2862.5,1201.5C 2862.67,1180.5 2862.5,1159.5 2862,1138.5C 2860.76,1114.93 2848.43,1102.26 2825,1100.5C 2802.77,1101.06 2790.44,1112.4 2788,1134.5C 2787.33,1231.5 2787.33,1328.5 2788,1425.5C 2792.31,1450.58 2807.14,1461.42 2832.5,1458C 2843.39,1456.43 2851.56,1450.93 2857,1441.5C 2859.81,1435.13 2861.47,1428.46 2862,1421.5C 2862.5,1394.5 2862.67,1367.5 2862.5,1340.5C 2886.5,1340.5 2910.5,1340.5 2934.5,1340.5C 2934.67,1370.17 2934.5,1399.84 2934,1429.5C 2932.05,1460.57 2919.55,1486.4 2896.5,1507C 2869.91,1524.79 2840.58,1531.79 2808.5,1528C 2756.9,1524.07 2725.4,1496.9 2714,1446.5C 2712.53,1439.23 2711.53,1431.9 2711,1424.5C 2710.33,1327.83 2710.33,1231.17 2711,1134.5C 2715.9,1069.43 2750.73,1034.77 2815.5,1030.5 Z"/></g>
<g><path style="opacity:0.988" fill="#fefffe" d="M 3100.5,1030.5 C 3180.89,1030.06 3222.06,1070.06 3224,1150.5C 3224.67,1236.5 3224.67,1322.5 3224,1408.5C 3224.86,1438.56 3216.86,1465.9 3200,1490.5C 3185.28,1508.52 3166.44,1520.02 3143.5,1525C 3110.5,1532.06 3078.5,1529.06 3047.5,1516C 3019.14,1499.94 3001.97,1475.78 2996,1443.5C 2994.53,1435.56 2993.53,1427.56 2993,1419.5C 2992.33,1326.17 2992.33,1232.83 2993,1139.5C 2997.31,1071.69 3033.14,1035.36 3100.5,1030.5 Z M 3104.5,1100.5 C 3132.48,1100.98 3146.65,1115.31 3147,1143.5C 3147.98,1237.52 3147.64,1331.52 3146,1425.5C 3142.85,1447.41 3130.18,1458.41 3108,1458.5C 3084.57,1457.4 3071.9,1445.07 3070,1421.5C 3069.33,1327.17 3069.33,1232.83 3070,1138.5C 3071.26,1116.19 3082.76,1103.52 3104.5,1100.5 Z"/></g>
<g><path style="opacity:0.991" fill="#fefffe" d="M 3291.5,1037.5 C 3327.83,1037.5 3364.17,1037.5 3400.5,1037.5C 3416.62,1152.83 3432.78,1268.16 3449,1383.5C 3465.4,1268.19 3481.57,1152.86 3497.5,1037.5C 3533.83,1037.5 3570.17,1037.5 3606.5,1037.5C 3606.5,1198.83 3606.5,1360.17 3606.5,1521.5C 3582.5,1521.5 3558.5,1521.5 3534.5,1521.5C 3534.67,1399.83 3534.5,1278.17 3534,1156.5C 3515.28,1278.14 3496.78,1399.81 3478.5,1521.5C 3456.83,1521.5 3435.17,1521.5 3413.5,1521.5C 3395.66,1399.8 3377.49,1278.13 3359,1156.5C 3358.5,1278.17 3358.33,1399.83 3358.5,1521.5C 3336.17,1521.5 3313.83,1521.5 3291.5,1521.5C 3291.5,1360.17 3291.5,1198.83 3291.5,1037.5 Z"/></g>
<g><path style="opacity:0.987" fill="#fefffe" d="M 3679.5,1037.5 C 3716.07,1037.17 3752.57,1037.5 3789,1038.5C 3805.08,1152.82 3821.08,1267.16 3837,1381.5C 3853.95,1267.03 3870.11,1152.36 3885.5,1037.5C 3922.17,1037.5 3958.83,1037.5 3995.5,1037.5C 3995.5,1198.83 3995.5,1360.17 3995.5,1521.5C 3971.17,1521.5 3946.83,1521.5 3922.5,1521.5C 3922.67,1399.83 3922.5,1278.17 3922,1156.5C 3903.67,1277.83 3885.33,1399.17 3867,1520.5C 3845.58,1521.49 3824.08,1521.83 3802.5,1521.5C 3784.22,1399.81 3765.72,1278.14 3747,1156.5C 3746.5,1278.17 3746.33,1399.83 3746.5,1521.5C 3724.17,1521.5 3701.83,1521.5 3679.5,1521.5C 3679.5,1360.17 3679.5,1198.83 3679.5,1037.5 Z"/></g>
<g><path style="opacity:0.988" fill="#fefffe" d="M 4065.5,1037.5 C 4091.17,1037.5 4116.83,1037.5 4142.5,1037.5C 4142.33,1166.83 4142.5,1296.17 4143,1425.5C 4145.92,1447.08 4158.25,1458.08 4180,1458.5C 4203.91,1457.25 4216.58,1444.59 4218,1420.5C 4218.5,1292.83 4218.67,1165.17 4218.5,1037.5C 4243.17,1037.5 4267.83,1037.5 4292.5,1037.5C 4292.67,1165.5 4292.5,1293.5 4292,1421.5C 4286.71,1491.46 4249.04,1527.13 4179,1528.5C 4147.28,1529.93 4119.61,1520.26 4096,1499.5C 4077.43,1478.48 4067.43,1453.81 4066,1425.5C 4065.5,1296.17 4065.33,1166.83 4065.5,1037.5 Z"/></g>
<g><path style="opacity:0.985" fill="#fefffe" d="M 4362.5,1037.5 C 4394.74,1037.17 4426.91,1037.5 4459,1038.5C 4483.33,1133.83 4507.67,1229.17 4532,1324.5C 4532.5,1228.83 4532.67,1133.17 4532.5,1037.5C 4555.5,1037.5 4578.5,1037.5 4601.5,1037.5C 4601.5,1198.83 4601.5,1360.17 4601.5,1521.5C 4574.77,1522.15 4548.27,1521.49 4522,1519.5C 4492,1403.5 4462,1287.5 4432,1171.5C 4431.5,1288.17 4431.33,1404.83 4431.5,1521.5C 4408.5,1521.5 4385.5,1521.5 4362.5,1521.5C 4362.5,1360.17 4362.5,1198.83 4362.5,1037.5 Z"/></g>
<g><path style="opacity:0.985" fill="#fefffe" d="M 4674.5,1037.5 C 4700.17,1037.5 4725.83,1037.5 4751.5,1037.5C 4751.5,1198.83 4751.5,1360.17 4751.5,1521.5C 4725.83,1521.5 4700.17,1521.5 4674.5,1521.5C 4674.5,1360.17 4674.5,1198.83 4674.5,1037.5 Z"/></g>
<g><path style="opacity:0.986" fill="#fefffe" d="M 4803.5,1037.5 C 4882.17,1037.5 4960.83,1037.5 5039.5,1037.5C 5039.5,1060.83 5039.5,1084.17 5039.5,1107.5C 5013.17,1107.5 4986.83,1107.5 4960.5,1107.5C 4960.5,1245.5 4960.5,1383.5 4960.5,1521.5C 4934.83,1521.5 4909.17,1521.5 4883.5,1521.5C 4883.5,1383.5 4883.5,1245.5 4883.5,1107.5C 4856.83,1107.5 4830.17,1107.5 4803.5,1107.5C 4803.5,1084.17 4803.5,1060.83 4803.5,1037.5 Z"/></g>
<g><path style="opacity:0.986" fill="#fefffe" d="M 5072.5,1038.5 C 5099.9,1037.17 5127.4,1037.17 5155,1038.5C 5171.95,1097.34 5189.28,1156.01 5207,1214.5C 5224.07,1155.8 5241.23,1097.13 5258.5,1038.5C 5283.5,1037.17 5308.5,1037.17 5333.5,1038.5C 5302.9,1130.46 5272.4,1222.46 5242,1314.5C 5241.5,1383.5 5241.33,1452.5 5241.5,1521.5C 5215.83,1521.5 5190.17,1521.5 5164.5,1521.5C 5164.67,1452.17 5164.5,1382.83 5164,1313.5C 5133.76,1221.63 5103.26,1129.96 5072.5,1038.5 Z"/></g>
<g><path style="opacity:0.989" fill="#fefffe" d="M 5511.5,1037.5 C 5537.17,1037.5 5562.83,1037.5 5588.5,1037.5C 5588.5,1103.17 5588.5,1168.83 5588.5,1234.5C 5615.17,1234.5 5641.83,1234.5 5668.5,1234.5C 5668.5,1168.83 5668.5,1103.17 5668.5,1037.5C 5694.17,1037.5 5719.83,1037.5 5745.5,1037.5C 5745.5,1198.83 5745.5,1360.17 5745.5,1521.5C 5719.83,1521.5 5694.17,1521.5 5668.5,1521.5C 5668.5,1449.17 5668.5,1376.83 5668.5,1304.5C 5641.83,1304.5 5615.17,1304.5 5588.5,1304.5C 5588.5,1376.83 5588.5,1449.17 5588.5,1521.5C 5562.83,1521.5 5537.17,1521.5 5511.5,1521.5C 5511.5,1360.17 5511.5,1198.83 5511.5,1037.5 Z"/></g>
<g><path style="opacity:0.989" fill="#fefffe" d="M 5818.5,1037.5 C 5887.83,1037.5 5957.17,1037.5 6026.5,1037.5C 6026.5,1060.83 6026.5,1084.17 6026.5,1107.5C 5982.83,1107.5 5939.17,1107.5 5895.5,1107.5C 5895.5,1149.83 5895.5,1192.17 5895.5,1234.5C 5930.17,1234.5 5964.83,1234.5 5999.5,1234.5C 5999.5,1257.83 5999.5,1281.17 5999.5,1304.5C 5964.83,1304.5 5930.17,1304.5 5895.5,1304.5C 5895.5,1353.5 5895.5,1402.5 5895.5,1451.5C 5939.17,1451.5 5982.83,1451.5 6026.5,1451.5C 6026.5,1474.83 6026.5,1498.17 6026.5,1521.5C 5957.17,1521.5 5887.83,1521.5 5818.5,1521.5C 5818.5,1360.17 5818.5,1198.83 5818.5,1037.5 Z"/></g>
<g><path style="opacity:0.987" fill="#fefffe" d="M 6144.5,1037.5 C 6179.56,1036.84 6214.39,1037.51 6249,1039.5C 6275.06,1200.2 6301.23,1360.86 6327.5,1521.5C 6301.83,1521.5 6276.17,1521.5 6250.5,1521.5C 6246.16,1490.25 6241.49,1459.09 6236.5,1428C 6208.17,1427.5 6179.84,1427.33 6151.5,1427.5C 6146.94,1458.52 6142.27,1489.52 6137.5,1520.5C 6113.84,1521.5 6090.18,1521.83 6066.5,1521.5C 6092.5,1360.17 6118.5,1198.83 6144.5,1037.5 Z M 6193.5,1123.5 C 6205.19,1202.32 6216.52,1281.32 6227.5,1360.5C 6205.17,1360.5 6182.83,1360.5 6160.5,1360.5C 6171.42,1281.49 6182.42,1202.49 6193.5,1123.5 Z"/></g>
<g><path style="opacity:0.996" fill="#fefffe" d="M 6380.5,1037.5 C 6405.83,1037.5 6431.17,1037.5 6456.5,1037.5C 6456.5,1175.5 6456.5,1313.5 6456.5,1451.5C 6498.17,1451.5 6539.83,1451.5 6581.5,1451.5C 6581.5,1474.83 6581.5,1498.17 6581.5,1521.5C 6514.5,1521.5 6447.5,1521.5 6380.5,1521.5C 6380.5,1360.17 6380.5,1198.83 6380.5,1037.5 Z"/></g>
<g><path style="opacity:0.988" fill="#fefffe" d="M 6560.5,1037.5 C 6639.17,1037.5 6717.83,1037.5 6796.5,1037.5C 6796.5,1060.83 6796.5,1084.17 6796.5,1107.5C 6770.17,1107.5 6743.83,1107.5 6717.5,1107.5C 6717.5,1245.5 6717.5,1383.5 6717.5,1521.5C 6691.83,1521.5 6666.17,1521.5 6640.5,1521.5C 6640.5,1383.5 6640.5,1245.5 6640.5,1107.5C 6613.83,1107.5 6587.17,1107.5 6560.5,1107.5C 6560.5,1084.17 6560.5,1060.83 6560.5,1037.5 Z"/></g>
<g><path style="opacity:0.989" fill="#fefffe" d="M 6849.5,1037.5 C 6875.17,1037.5 6900.83,1037.5 6926.5,1037.5C 6926.5,1103.17 6926.5,1168.83 6926.5,1234.5C 6953.17,1234.5 6979.83,1234.5 7006.5,1234.5C 7006.5,1168.83 7006.5,1103.17 7006.5,1037.5C 7032.17,1037.5 7057.83,1037.5 7083.5,1037.5C 7083.5,1198.83 7083.5,1360.17 7083.5,1521.5C 7057.83,1521.5 7032.17,1521.5 7006.5,1521.5C 7006.5,1449.17 7006.5,1376.83 7006.5,1304.5C 6979.83,1304.5 6953.17,1304.5 6926.5,1304.5C 6926.5,1376.83 6926.5,1449.17 6926.5,1521.5C 6900.83,1521.5 6875.17,1521.5 6849.5,1521.5C 6849.5,1360.17 6849.5,1198.83 6849.5,1037.5 Z"/></g>
<g><path style="opacity:0.994" fill="#7ed6d2" d="M 2039.5,1072.5 C 2102.52,1074.41 2148.02,1103.41 2176,1159.5C 2197.64,1213.79 2191.3,1264.46 2157,1311.5C 2119.06,1355.48 2071.23,1372.98 2013.5,1364C 1960.82,1352.32 1924.32,1321.49 1904,1271.5C 1885.7,1215.65 1895.37,1165.31 1933,1120.5C 1962.02,1090.11 1997.52,1074.11 2039.5,1072.5 Z"/></g>
<g><path style="opacity:0.995" fill="#41afaf" d="M 1654.5,1457.5 C 1607.2,1504.3 1560.03,1551.3 1513,1598.5C 1514.17,1601.22 1515.67,1603.88 1517.5,1606.5C 1505.37,1594.87 1493.37,1583.04 1481.5,1571C 1415.13,1514.73 1340.47,1500.39 1257.5,1528C 1184.11,1558.07 1138.94,1611.9 1122,1689.5C 1109.51,1766.69 1130.68,1832.86 1185.5,1888C 1246.5,1941.41 1316.5,1958.08 1395.5,1938C 1430.69,1927.43 1461.35,1909.43 1487.5,1884C 1525.37,1845.97 1563.37,1808.13 1601.5,1770.5C 1647.58,1818.08 1694.25,1865.25 1741.5,1912C 1742.79,1912.49 1744.13,1912.66 1745.5,1912.5C 1702.34,1956.49 1658.67,1999.99 1614.5,2043C 1510.91,2131.4 1391.58,2164.4 1256.5,2142C 1119.14,2113.26 1018.97,2036.43 956,1911.5C 902.377,1791.65 902.044,1671.65 955,1551.5C 1010.75,1438.09 1099.25,1363.26 1220.5,1327C 1344.65,1294.97 1460.65,1313.3 1568.5,1382C 1600.03,1403.68 1628.69,1428.85 1654.5,1457.5 Z"/></g>
<g><path style="opacity:0.995" fill="#7dd5d2" d="M 1851.5,1940.5 C 1852.24,1940.63 1852.91,1940.46 1853.5,1940C 1900.7,1892.63 1948.03,1845.47 1995.5,1798.5C 2006.11,1809.95 2017.78,1820.12 2030.5,1829C 2075.66,1852.97 2119.32,1850.63 2161.5,1822C 2199.57,1789.45 2213.07,1748.62 2202,1699.5C 2184.25,1646.09 2147.25,1618.09 2091,1615.5C 2063.45,1615.46 2038.95,1623.96 2017.5,1641C 1987.92,1671.09 1957.92,1700.59 1927.5,1729.5C 1927.17,1729.5 1926.83,1729.5 1926.5,1729.5C 1914.5,1716.83 1902.17,1704.5 1889.5,1692.5C 1883.17,1685.5 1876.5,1678.83 1869.5,1672.5C 1861.83,1664.17 1853.83,1656.17 1845.5,1648.5C 1839.17,1641.5 1832.5,1634.83 1825.5,1628.5C 1820.17,1622.5 1814.5,1616.83 1808.5,1611.5C 1800.5,1603.17 1792.5,1594.83 1784.5,1586.5C 1816.63,1554.87 1848.63,1523.03 1880.5,1491C 1967.63,1419.23 2066.29,1396.89 2176.5,1424C 2280.84,1455.68 2352.34,1522.51 2391,1624.5C 2420.3,1714.61 2412.97,1801.61 2369,1885.5C 2314.94,1977.49 2234.78,2030.99 2128.5,2046C 2018.43,2056.38 1926.1,2021.21 1851.5,1940.5 Z"/></g>
<g><path style="opacity:0.999" fill="#47b3b2" d="M 1654.5,1457.5 C 1667.17,1469.5 1679.5,1481.83 1691.5,1494.5C 1644.2,1541.3 1597.03,1588.3 1550,1635.5C 1550.06,1637.44 1550.89,1639.1 1552.5,1640.5C 1552.5,1640.83 1552.5,1641.17 1552.5,1641.5C 1540.5,1630.17 1528.83,1618.5 1517.5,1606.5C 1515.67,1603.88 1514.17,1601.22 1513,1598.5C 1560.03,1551.3 1607.2,1504.3 1654.5,1457.5 Z"/></g>
<g><path style="opacity:0.999" fill="#4bb5b4" d="M 1691.5,1494.5 C 1693.17,1495.5 1694.5,1496.83 1695.5,1498.5C 1647.83,1545.83 1600.17,1593.17 1552.5,1640.5C 1550.89,1639.1 1550.06,1637.44 1550,1635.5C 1597.03,1588.3 1644.2,1541.3 1691.5,1494.5 Z"/></g>
<g><path style="opacity:0.996" fill="#4bb5b4" d="M 1695.5,1498.5 C 1697.5,1499.83 1699.17,1501.5 1700.5,1503.5C 1653.17,1551.5 1605.5,1599.17 1557.5,1646.5C 1555.5,1645.17 1553.83,1643.5 1552.5,1641.5C 1552.5,1641.17 1552.5,1640.83 1552.5,1640.5C 1600.17,1593.17 1647.83,1545.83 1695.5,1498.5 Z"/></g>
<g><path style="opacity:0.995" fill="#4eb7b7" d="M 1700.5,1503.5 C 1712.17,1514.5 1723.5,1525.83 1734.5,1537.5C 1687.17,1585.5 1639.5,1633.17 1591.5,1680.5C 1579.83,1669.5 1568.5,1658.17 1557.5,1646.5C 1605.5,1599.17 1653.17,1551.5 1700.5,1503.5 Z"/></g>
<g><path style="opacity:0.995" fill="#53bab9" d="M 1734.5,1537.5 C 1741.17,1543.5 1747.5,1549.83 1753.5,1556.5C 1705.5,1603.83 1657.83,1651.5 1610.5,1699.5C 1603.83,1693.5 1597.5,1687.17 1591.5,1680.5C 1639.5,1633.17 1687.17,1585.5 1734.5,1537.5 Z"/></g>
<g><path style="opacity:0.995" fill="#56bcbb" d="M 1753.5,1556.5 C 1759.83,1562.17 1765.83,1568.17 1771.5,1574.5C 1724.17,1622.5 1676.5,1670.17 1628.5,1717.5C 1622.17,1711.83 1616.17,1705.83 1610.5,1699.5C 1657.83,1651.5 1705.5,1603.83 1753.5,1556.5 Z"/></g>
<g><path style="opacity:0.998" fill="#5abfbe" d="M 1771.5,1574.5 C 1775.83,1578.5 1780.17,1582.5 1784.5,1586.5C 1792.5,1594.83 1800.5,1603.17 1808.5,1611.5C 1761.17,1659.17 1713.83,1706.83 1666.5,1754.5C 1658.11,1746.11 1649.45,1738.11 1640.5,1730.5C 1636.5,1726.17 1632.5,1721.83 1628.5,1717.5C 1676.5,1670.17 1724.17,1622.5 1771.5,1574.5 Z"/></g>
<g><path style="opacity:1" fill="#5ec2c0" d="M 1808.5,1611.5 C 1814.5,1616.83 1820.17,1622.5 1825.5,1628.5C 1779.25,1676.25 1732.42,1723.58 1685,1770.5C 1684.54,1771.09 1684.37,1771.76 1684.5,1772.5C 1678.17,1766.83 1672.17,1760.83 1666.5,1754.5C 1713.83,1706.83 1761.17,1659.17 1808.5,1611.5 Z"/></g>
<g><path style="opacity:0.999" fill="#61c3c2" d="M 1825.5,1628.5 C 1832.5,1634.83 1839.17,1641.5 1845.5,1648.5C 1798.17,1696.17 1750.83,1743.83 1703.5,1791.5C 1696.83,1785.5 1690.5,1779.17 1684.5,1772.5C 1684.37,1771.76 1684.54,1771.09 1685,1770.5C 1732.42,1723.58 1779.25,1676.25 1825.5,1628.5 Z"/></g>
<g><path style="opacity:0.999" fill="#65c6c4" d="M 1845.5,1648.5 C 1853.83,1656.17 1861.83,1664.17 1869.5,1672.5C 1822.17,1720.17 1774.83,1767.83 1727.5,1815.5C 1719.17,1807.83 1711.17,1799.83 1703.5,1791.5C 1750.83,1743.83 1798.17,1696.17 1845.5,1648.5 Z"/></g>
<g><path style="opacity:0.999" fill="#68c8c6" d="M 1869.5,1672.5 C 1876.5,1678.83 1883.17,1685.5 1889.5,1692.5C 1841.45,1739.55 1794.12,1787.22 1747.5,1835.5C 1740.5,1829.17 1733.83,1822.5 1727.5,1815.5C 1774.83,1767.83 1822.17,1720.17 1869.5,1672.5 Z"/></g>
<g><path style="opacity:0.983" fill="#fefffe" d="M 3077.5,1687.5 C 3092.27,1686.89 3106.94,1687.72 3121.5,1690C 3150.17,1698.01 3168.01,1716.51 3175,1745.5C 3176.65,1752.74 3177.65,1760.08 3178,1767.5C 3178.67,1834.5 3178.67,1901.5 3178,1968.5C 3174.51,2020.99 3146.51,2047.99 3094,2049.5C 3064.98,2050.74 3041.64,2040.07 3024,2017.5C 3015.31,2003.43 3010.65,1988.1 3010,1971.5C 3009.33,1902.5 3009.33,1833.5 3010,1764.5C 3012.59,1721.09 3035.09,1695.43 3077.5,1687.5 Z M 3086.5,1738.5 C 3105.49,1735.39 3116.99,1743.06 3121,1761.5C 3121.67,1832.83 3121.67,1904.17 3121,1975.5C 3118.17,1990.33 3109.17,1997.99 3094,1998.5C 3076.26,1997.09 3066.92,1987.42 3066,1969.5C 3065.33,1902.17 3065.33,1834.83 3066,1767.5C 3066.23,1752.83 3073.06,1743.16 3086.5,1738.5 Z"/></g>
<g><path style="opacity:0.987" fill="#fefffe" d="M 3403.5,1687.5 C 3418.27,1686.89 3432.94,1687.72 3447.5,1690C 3476.17,1698.01 3494.01,1716.51 3501,1745.5C 3502.54,1752.42 3503.54,1759.42 3504,1766.5C 3504.67,1834.17 3504.67,1901.83 3504,1969.5C 3500.04,2021.46 3472.04,2048.13 3420,2049.5C 3368.4,2048.23 3340.4,2021.9 3336,1970.5C 3335.33,1902.17 3335.33,1833.83 3336,1765.5C 3338.16,1721.53 3360.66,1695.53 3403.5,1687.5 Z M 3412.5,1738.5 C 3435.68,1735.85 3447.51,1746.18 3448,1769.5C 3448.97,1838.19 3448.64,1906.85 3447,1975.5C 3444.17,1990.33 3435.17,1997.99 3420,1998.5C 3401.29,1996.78 3391.95,1986.45 3392,1967.5C 3391.33,1901.17 3391.33,1834.83 3392,1768.5C 3391.75,1753.31 3398.59,1743.31 3412.5,1738.5 Z"/></g>
<g><path style="opacity:0.999" fill="#6dcbc9" d="M 1889.5,1692.5 C 1902.17,1704.5 1914.5,1716.83 1926.5,1729.5C 1878.45,1776.55 1831.12,1824.22 1784.5,1872.5C 1771.83,1860.5 1759.5,1848.17 1747.5,1835.5C 1794.12,1787.22 1841.45,1739.55 1889.5,1692.5 Z"/></g>
<g><path style="opacity:0.986" fill="#fefffe" d="M 2693.5,1692.5 C 2750.5,1692.5 2807.5,1692.5 2864.5,1692.5C 2864.5,1709.5 2864.5,1726.5 2864.5,1743.5C 2845.17,1743.5 2825.83,1743.5 2806.5,1743.5C 2806.5,1843.83 2806.5,1944.17 2806.5,2044.5C 2787.83,2044.5 2769.17,2044.5 2750.5,2044.5C 2750.5,1944.17 2750.5,1843.83 2750.5,1743.5C 2731.5,1743.5 2712.5,1743.5 2693.5,1743.5C 2693.5,1726.5 2693.5,1709.5 2693.5,1692.5 Z"/></g>
<g><path style="opacity:0.985" fill="#fefffe" d="M 3665.5,1692.5 C 3684.17,1692.5 3702.83,1692.5 3721.5,1692.5C 3721.5,1792.83 3721.5,1893.17 3721.5,1993.5C 3751.83,1993.5 3782.17,1993.5 3812.5,1993.5C 3812.5,2010.5 3812.5,2027.5 3812.5,2044.5C 3763.5,2044.5 3714.5,2044.5 3665.5,2044.5C 3665.5,1927.17 3665.5,1809.83 3665.5,1692.5 Z"/></g>
<g><path style="opacity:0.983" fill="#fefffe" d="M 3963.5,1692.5 C 3982.17,1692.5 4000.83,1692.5 4019.5,1692.5C 4019.33,1740.83 4019.5,1789.17 4020,1837.5C 4043.11,1789.62 4065.94,1741.62 4088.5,1693.5C 4107.49,1692.33 4126.49,1692.17 4145.5,1693C 4123.5,1736 4101.5,1779 4079.5,1822C 4102.13,1896.07 4124.47,1970.23 4146.5,2044.5C 4126.83,2044.5 4107.17,2044.5 4087.5,2044.5C 4072.46,1992.66 4056.96,1940.99 4041,1889.5C 4034,1903.83 4027,1918.17 4020,1932.5C 4019.5,1969.83 4019.33,2007.17 4019.5,2044.5C 4000.83,2044.5 3982.17,2044.5 3963.5,2044.5C 3963.5,1927.17 3963.5,1809.83 3963.5,1692.5 Z"/></g>
<g><path style="opacity:0.972" fill="#fefffe" d="M 4296.5,1692.5 C 4315.5,1692.5 4334.5,1692.5 4353.5,1692.5C 4353.5,1809.83 4353.5,1927.17 4353.5,2044.5C 4334.5,2044.5 4315.5,2044.5 4296.5,2044.5C 4296.5,1927.17 4296.5,1809.83 4296.5,1692.5 Z"/></g>
<g><path style="opacity:0.989" fill="#fefffe" d="M 4504.5,1692.5 C 4561.5,1692.5 4618.5,1692.5 4675.5,1692.5C 4675.5,1709.5 4675.5,1726.5 4675.5,1743.5C 4656.17,1743.5 4636.83,1743.5 4617.5,1743.5C 4617.5,1843.83 4617.5,1944.17 4617.5,2044.5C 4598.83,2044.5 4580.17,2044.5 4561.5,2044.5C 4561.5,1944.17 4561.5,1843.83 4561.5,1743.5C 4542.5,1743.5 4523.5,1743.5 4504.5,1743.5C 4504.5,1726.5 4504.5,1709.5 4504.5,1692.5 Z"/></g>
<g><path style="opacity:0.995" fill="#71cdcb" d="M 1926.5,1729.5 C 1926.83,1729.5 1927.17,1729.5 1927.5,1729.5C 1930.83,1733.17 1934.17,1736.83 1937.5,1740.5C 1889.5,1787.83 1841.83,1835.5 1794.5,1883.5C 1791.1,1880.1 1787.44,1877.1 1783.5,1874.5C 1783.83,1873.83 1784.17,1873.17 1784.5,1872.5C 1831.12,1824.22 1878.45,1776.55 1926.5,1729.5 Z"/></g>
<g><path style="opacity:1" fill="#117878" d="M 1640.5,1730.5 C 1649.45,1738.11 1658.11,1746.11 1666.5,1754.5C 1672.17,1760.83 1678.17,1766.83 1684.5,1772.5C 1690.5,1779.17 1696.83,1785.5 1703.5,1791.5C 1711.17,1799.83 1719.17,1807.83 1727.5,1815.5C 1733.83,1822.5 1740.5,1829.17 1747.5,1835.5C 1759.5,1848.17 1771.83,1860.5 1784.5,1872.5C 1784.17,1873.17 1783.83,1873.83 1783.5,1874.5C 1771.17,1887.5 1758.5,1900.17 1745.5,1912.5C 1744.13,1912.66 1742.79,1912.49 1741.5,1912C 1694.25,1865.25 1647.58,1818.08 1601.5,1770.5C 1614.5,1757.17 1627.5,1743.83 1640.5,1730.5 Z"/></g>
<g><path style="opacity:0.996" fill="#74cfcd" d="M 1937.5,1740.5 C 1946.17,1748.5 1954.5,1756.83 1962.5,1765.5C 1916.08,1813.42 1869.08,1860.92 1821.5,1908C 1820.91,1908.46 1820.24,1908.63 1819.5,1908.5C 1810.83,1900.5 1802.5,1892.17 1794.5,1883.5C 1841.83,1835.5 1889.5,1787.83 1937.5,1740.5 Z"/></g>
<g><path style="opacity:0.999" fill="#79d2d0" d="M 1962.5,1765.5 C 1973.83,1776.17 1984.83,1787.17 1995.5,1798.5C 1948.03,1845.47 1900.7,1892.63 1853.5,1940C 1852.91,1940.46 1852.24,1940.63 1851.5,1940.5C 1840.5,1930.17 1829.83,1919.5 1819.5,1908.5C 1820.24,1908.63 1820.91,1908.46 1821.5,1908C 1869.08,1860.92 1916.08,1813.42 1962.5,1765.5 Z"/></g>
</svg>
