<?xml version="1.0" encoding="UTF-8" standalone="no"?>
<svg
   version="1.0"
   width="30pt"
   height="30pt"
   viewBox="0 0 30 30"
   preserveAspectRatio="xMidYMid"
   id="svg10"
   sodipodi:docname="logo.svg"
   xmlns:inkscape="http://www.inkscape.org/namespaces/inkscape"
   xmlns:sodipodi="http://sodipodi.sourceforge.net/DTD/sodipodi-0.dtd"
   xmlns="http://www.w3.org/2000/svg"
   xmlns:svg="http://www.w3.org/2000/svg">
  <defs
     id="defs14" />
  <sodipodi:namedview
     id="namedview12"
     pagecolor="#ffffff"
     bordercolor="#000000"
     borderopacity="0.25"
     inkscape:showpageshadow="2"
     inkscape:pageopacity="0.0"
     inkscape:pagecheckerboard="0"
     inkscape:deskcolor="#d1d1d1"
     inkscape:document-units="pt"
     showgrid="false" />
  <g
     transform="matrix(0.01425486,0,0,-0.01425486,-6.1268548,35.340843)"
     fill="#ffffff"
     stroke="none"
     id="g8"
     inkscape:export-filename="logo.svg"
     inkscape:export-xdpi="11.943796"
     inkscape:export-ydpi="11.943796">
    <path
       d="m 1057,2400 c -142,-36 -238,-167 -224,-305 24,-239 311,-344 483,-178 143,140 96,391 -88,468 -47,19 -125,26 -171,15 z"
       id="path2" />
    <path
       d="m 1945,2076 c -34,-15 -92,-76 -106,-113 -26,-68 -1,-170 53,-220 97,-91 257,-61 319,59 21,41 25,120 8,165 -14,38 -67,92 -106,109 -40,17 -128,17 -168,0 z"
       id="path4" />
    <path
       d="M 900,1744 C 640,1676 460,1444 460,1180 461,908 647,671 910,609 c 77,-18 213,-16 285,5 121,36 191,82 341,228 l 140,137 80,-80 c 58,-59 99,-90 153,-117 73,-36 77,-37 190,-37 110,0 120,2 184,32 376,178 325,721 -78,829 -158,43 -301,-4 -447,-144 l -88,-85 -143,140 c -155,153 -225,199 -349,228 -79,18 -206,18 -278,-1 z m 271,-293 c 24,-12 103,-77 174,-146 l 130,-124 -120,-121 C 1207,911 1151,878 1042,879 c -96,0 -157,27 -222,98 -149,163 -83,410 129,490 53,20 167,12 222,-16 z m 1017,-138 c 44,-33 65,-69 70,-122 9,-97 -61,-171 -163,-171 -60,0 -87,15 -162,92 l -63,64 73,71 c 39,40 83,77 97,82 37,16 117,7 148,-16 z"
       id="path6" />
  </g>
</svg>
