<svg xmlns="http://www.w3.org/2000/svg" width="7068.736" height="2997.05" style="clip-rule:evenodd;fill-rule:evenodd;image-rendering:optimizeQuality;shape-rendering:geometricPrecision;text-rendering:geometricPrecision"><defs><linearGradient id="a" x1="0" x2="1" y1="0" y2="0" gradientTransform="rotate(225 919.602 729.581)scale(536.2952)" gradientUnits="userSpaceOnUse" spreadMethod="pad"><stop offset="0" style="stop-opacity:1;stop-color:#7ed6d3"/><stop offset=".997" style="stop-opacity:1;stop-color:#41afaf"/><stop offset="1" style="stop-opacity:1;stop-color:#41afaf"/></linearGradient></defs><path fill="#41afae" d="M1369.5 850.5q128.415-5.676 196.5 102c36.94 69.5 36.6 138.84-1 208-36.33 58.25-88.83 91.42-157.5 99.5-71.3 4.92-130.47-19.25-177.5-72.5-49.51-64.24-60.18-134.57-32-211q33.84-78.34 112.5-111.5c19.16-7.459 38.82-12.292 59-14.5" style="opacity:.995" transform="translate(-903.531 -7.866)"/><path fill="#fefffe" d="M2815.5 1030.5c23.84-1.19 46.5 3.31 68 13.5 28.93 17.66 45.43 43.5 49.5 77.5 1.43 26.64 1.93 53.3 1.5 80h-72c.17-21 0-42-.5-63-1.24-23.57-13.57-36.24-37-38-22.23.56-34.56 11.9-37 34q-1.005 145.5 0 291c4.31 25.08 19.14 35.92 44.5 32.5 10.89-1.57 19.06-7.07 24.5-16.5 2.81-6.37 4.47-13.04 5-20 .5-27 .67-54 .5-81h72c.17 29.67 0 59.34-.5 89-1.95 31.07-14.45 56.9-37.5 77.5-26.59 17.79-55.92 24.79-88 21-51.6-3.93-83.1-31.1-94.5-81.5-1.47-7.27-2.47-14.6-3-22-.67-96.67-.67-193.33 0-290 4.9-65.07 39.73-99.73 104.5-104" style="opacity:.989" transform="translate(-903.531 -7.866)"/><path fill="#fefffe" d="M3100.5 1030.5c80.39-.44 121.56 39.56 123.5 120q1.005 129 0 258c.86 30.06-7.14 57.4-24 82-14.72 18.02-33.56 29.52-56.5 34.5q-49.5 10.59-96-9c-28.36-16.06-45.53-40.22-51.5-72.5q-2.205-11.91-3-24c-.67-93.33-.67-186.67 0-280 4.31-67.81 40.14-104.14 107.5-109m4 70c27.98.48 42.15 14.81 42.5 43 .98 94.02.64 188.02-1 282-3.15 21.91-15.82 32.91-38 33-23.43-1.1-36.1-13.43-38-37-.67-94.33-.67-188.67 0-283 1.26-22.31 12.76-34.98 34.5-38" style="opacity:.988" transform="translate(-903.531 -7.866)"/><path fill="#fefffe" d="M3291.5 1037.5h109a416713 416713 0 0 0 48.5 346c16.4-115.31 32.57-230.64 48.5-346h109v484h-72c.17-121.67 0-243.33-.5-365-18.72 121.64-37.22 243.31-55.5 365h-65c-17.84-121.7-36.01-243.37-54.5-365-.5 121.67-.67 243.33-.5 365h-67z" style="opacity:.991" transform="translate(-903.531 -7.866)"/><path fill="#fefffe" d="M3679.5 1037.5c36.57-.33 73.07 0 109.5 1 16.08 114.32 32.08 228.66 48 343 16.95-114.47 33.11-229.14 48.5-344h110v484h-73c.17-121.67 0-243.33-.5-365-18.33 121.33-36.67 242.67-55 364-21.42.99-42.92 1.33-64.5 1-18.28-121.69-36.78-243.36-55.5-365-.5 121.67-.67 243.33-.5 365h-67z" style="opacity:.987" transform="translate(-903.531 -7.866)"/><path fill="#fefffe" d="M4065.5 1037.5h77c-.17 129.33 0 258.67.5 388 2.92 21.58 15.25 32.58 37 33 23.91-1.25 36.58-13.91 38-38 .5-127.67.67-255.33.5-383h74c.17 128 0 256-.5 384-5.29 69.96-42.96 105.63-113 107-31.72 1.43-59.39-8.24-83-29-18.57-21.02-28.57-45.69-30-74-.5-129.33-.67-258.67-.5-388" style="opacity:.988" transform="translate(-903.531 -7.866)"/><path fill="#fefffe" d="M4362.5 1037.5c32.24-.33 64.41 0 96.5 1 24.33 95.33 48.67 190.67 73 286 .5-95.67.67-191.33.5-287h69v484c-26.73.65-53.23-.01-79.5-2l-90-348c-.5 116.67-.67 233.33-.5 350h-69zM4674.5 1037.5h77v484h-77z" style="opacity:.985" transform="translate(-903.531 -7.866)"/><path fill="#fefffe" d="M4803.5 1037.5h236v70h-79v414h-77v-414h-80zM5072.5 1038.5q41.1-1.995 82.5 0c16.95 58.84 34.28 117.51 52 176 17.07-58.7 34.23-117.37 51.5-176q37.5-1.995 75 0-45.9 137.94-91.5 276c-.5 69-.67 138-.5 207h-77c.17-69.33 0-138.67-.5-208-30.24-91.87-60.74-183.54-91.5-275" style="opacity:.986" transform="translate(-903.531 -7.866)"/><path fill="#fefffe" d="M5511.5 1037.5h77v197h80v-197h77v484h-77v-217h-80v217h-77zM5818.5 1037.5h208v70h-131v127h104v70h-104v147h131v70h-208z" style="opacity:.989" transform="translate(-903.531 -7.866)"/><path fill="#fefffe" d="M6144.5 1037.5c35.06-.66 69.89.01 104.5 2 26.06 160.7 52.23 321.36 78.5 482h-77c-4.34-31.25-9.01-62.41-14-93.5-28.33-.5-56.66-.67-85-.5-4.56 31.02-9.23 62.02-14 93-23.66 1-47.32 1.33-71 1zm49 86a25345 25345 0 0 1 34 237h-67q16.38-118.515 33-237" style="opacity:.987" transform="translate(-903.531 -7.866)"/><path fill="#fefffe" d="M6380.5 1037.5h76v414h125v70h-201z" style="opacity:.996" transform="translate(-903.531 -7.866)"/><path fill="#fefffe" d="M6560.5 1037.5h236v70h-79v414h-77v-414h-80z" style="opacity:.988" transform="translate(-903.531 -7.866)"/><path fill="#fefffe" d="M6849.5 1037.5h77v197h80v-197h77v484h-77v-217h-80v217h-77z" style="opacity:.989" transform="translate(-903.531 -7.866)"/><path fill="#7ed6d2" d="M2039.5 1072.5q94.53 2.865 136.5 87c21.64 54.29 15.3 104.96-19 152-37.94 43.98-85.77 61.48-143.5 52.5-52.68-11.68-89.18-42.51-109.5-92.5-18.3-55.85-8.63-106.19 29-151q43.53-45.585 106.5-48" style="opacity:.994" transform="translate(-903.531 -7.866)"/><path fill="#41afaf" d="M1654.5 1457.5c-47.3 46.8-94.47 93.8-141.5 141 1.17 2.72 2.67 5.38 4.5 8a1796 1796 0 0 1-36-35.5c-66.37-56.27-141.03-70.61-224-43-73.39 30.07-118.56 83.9-135.5 161.5-12.49 77.19 8.68 143.36 63.5 198.5 61 53.41 131 70.08 210 50 35.19-10.57 65.85-28.57 92-54 37.87-38.03 75.87-75.87 114-113.5 46.08 47.58 92.75 94.75 140 141.5 1.29.49 2.63.66 4 .5a8100 8100 0 0 1-131 130.5c-103.59 88.4-222.92 121.4-358 99-137.36-28.74-237.53-105.57-300.5-230.5q-80.434-179.775-1-360c55.75-113.41 144.25-188.24 265.5-224.5 124.15-32.03 240.15-13.7 348 55 31.53 21.68 60.19 46.85 86 75.5" style="opacity:.995" transform="translate(-903.531 -7.866)"/><path fill="#7dd5d2" d="M1851.5 1940.5c.74.13 1.41-.04 2-.5 47.2-47.37 94.53-94.53 142-141.5a216.8 216.8 0 0 0 35 30.5c45.16 23.97 88.82 21.63 131-7 38.07-32.55 51.57-73.38 40.5-122.5q-26.625-80.115-111-84-41.325-.06-73.5 25.5a3713 3713 0 0 1-90 88.5h-1c-12-12.67-24.33-25-37-37-6.33-7-13-13.67-20-20a412 412 0 0 0-24-24c-6.33-7-13-13.67-20-20-5.33-6-11-11.67-17-17-8-8.33-16-16.67-24-25 32.13-31.63 64.13-63.47 96-95.5 87.13-71.77 185.79-94.11 296-67 104.34 31.68 175.84 98.51 214.5 200.5 29.3 90.11 21.97 177.11-22 261-54.06 91.99-134.22 145.49-240.5 160.5-110.07 10.38-202.4-24.79-277-105.5" style="opacity:.995" transform="translate(-903.531 -7.866)"/><path fill="#fefffe" d="M3077.5 1687.5c14.77-.61 29.44.22 44 2.5 28.67 8.01 46.51 26.51 53.5 55.5 1.65 7.24 2.65 14.58 3 22q1.005 100.5 0 201-5.235 78.735-84 81c-29.02 1.24-52.36-9.43-70-32-8.69-14.07-13.35-29.4-14-46q-1.005-103.5 0-207c2.59-43.41 25.09-69.07 67.5-77m9 51c18.99-3.11 30.49 4.56 34.5 23 .67 71.33.67 142.67 0 214-2.83 14.83-11.83 22.49-27 23-17.74-1.41-27.08-11.08-28-29-.67-67.33-.67-134.67 0-202 .23-14.67 7.06-24.34 20.5-29" style="opacity:.983" transform="translate(-903.531 -7.866)"/><path fill="#fefffe" d="M3403.5 1687.5c14.77-.61 29.44.22 44 2.5 28.67 8.01 46.51 26.51 53.5 55.5q2.31 10.38 3 21c.67 67.67.67 135.33 0 203-3.96 51.96-31.96 78.63-84 80-51.6-1.27-79.6-27.6-84-79-.67-68.33-.67-136.67 0-205q3.24-65.955 67.5-78m9 51c23.18-2.65 35.01 7.68 35.5 31 .97 68.69.64 137.35-1 206-2.83 14.83-11.83 22.49-27 23-18.71-1.72-28.05-12.05-28-31-.67-66.33-.67-132.67 0-199-.25-15.19 6.59-25.19 20.5-30" style="opacity:.987" transform="translate(-903.531 -7.866)"/><path fill="#fefffe" d="M2693.5 1692.5h171v51h-58v301h-56v-301h-57z" style="opacity:.986" transform="translate(-903.531 -7.866)"/><path fill="#fefffe" d="M3665.5 1692.5h56v301h91v51h-147z" style="opacity:.985" transform="translate(-903.531 -7.866)"/><path fill="#fefffe" d="M3963.5 1692.5h56c-.17 48.33 0 96.67.5 145 23.11-47.88 45.94-95.88 68.5-144a542 542 0 0 1 57-.5l-66 129c22.63 74.07 44.97 148.23 67 222.5h-59a8891 8891 0 0 0-46.5-155c-7 14.33-14 28.67-21 43-.5 37.33-.67 74.67-.5 112h-56z" style="opacity:.983" transform="translate(-903.531 -7.866)"/><path fill="#fefffe" d="M4296.5 1692.5h57v352h-57z" style="opacity:.972" transform="translate(-903.531 -7.866)"/><path fill="#fefffe" d="M4504.5 1692.5h171v51h-58v301h-56v-301h-57z" style="opacity:.989" transform="translate(-903.531 -7.866)"/><path fill="#117878" d="M1640.5 1730.5c8.95 7.61 17.61 15.61 26 24q8.505 9.495 18 18c6 6.67 12.33 13 19 19q11.505 12.495 24 24c6.33 7 13 13.67 20 20 12 12.67 24.33 25 37 37-.33.67-.67 1.33-1 2-12.33 13-25 25.67-38 38-1.37.16-2.71-.01-4-.5a9331 9331 0 0 1-140-141.5c13-13.33 26-26.67 39-40" style="opacity:1" transform="translate(-903.531 -7.866)"/><path d="m603.318 1587.941 154.017 154.024L900.2 1884.83l82.334 82.33 142.598-143.124-82.067-82.071L900.2 1599.093 746.18 1445.08z" style="clip-rule:evenodd;fill:url(#a);fill-rule:evenodd;stroke:none;stroke-width:3.3763;image-rendering:optimizeQuality;shape-rendering:geometricPrecision;text-rendering:geometricPrecision"/></svg>