<svg xmlns="http://www.w3.org/2000/svg" viewBox="0 0 30 30"><g><path d="M27,8.09v-2H25v-2H23v2H21v2h2v4h2v-4Zm-.53-8L30,5.32,27.32,19.07H20.74L18,5.32,21.57.09ZM10.71,9.38A12.12,12.12,0,0,0,7.84,6.2a3.34,3.34,0,0,0-2.38-.41C4.3,6,3.6,7.46,3,8.35L1,11.06l0,0a1,1,0,0,0,.18,1.35l3.6,2.94a1,1,0,0,0,1.17,0c-.24,1-3.18,9.26-3.55,10.34l-.15.41H6.16L6.3,29a1,1,0,0,0,2.06,0l.14-2.78H12c0-.26-.35-5.17-.32-5.74s.64-.91,1-1.26a5.49,5.49,0,0,0,1-1.41,4.23,4.23,0,0,0,.36-1.49,6.22,6.22,0,0,0-.71-3A22.56,22.56,0,0,0,10.71,9.38ZM6,13.85,3.21,11.56,5.3,9.15c.15.66.3,1.33.46,2A11,11,0,0,1,6.14,14C6.1,14,6.08,13.89,6,13.85ZM8.89,5.48a2.7,2.7,0,0,0,2.68-2.73,2.69,2.69,0,1,0-5.37,0A2.71,2.71,0,0,0,8.89,5.48Z" fill="#a9a9a9" fill-rule="evenodd"/></g></svg>