<svg xmlns="http://www.w3.org/2000/svg" viewBox="0 0 30 30"><g><path d="M15,8.45a3.67,3.67,0,1,1,3.67-3.67A3.67,3.67,0,0,1,15,8.45Zm6.68,3.25s1.85,6.08,1.54,7.52C23,20,21.83,21,20.45,21.76l2,6.86H7.92L10,22c-1.55-.81-3-1.89-3.2-2.78C6.47,17.8,8.3,11.65,8.3,11.65c.16-.74,1.24-2.43,3.94-2.27h5.45C20.47,9.38,21.5,11.13,21.68,11.7Zm-1.56,6.13A.62.62,0,0,1,20,18a6.85,6.85,0,0,1-3.47,1.7,4.93,4.93,0,0,1-2.16.08c-.74-.16-1.67-.73-1.69-1.57a1.11,1.11,0,0,1,0-.19,2.23,2.23,0,0,1-1,.24A2.26,2.26,0,1,1,13.93,16a2,2,0,0,1,0,.36,5.8,5.8,0,0,1,2.55-.67,4.68,4.68,0,0,1,2.06.36,3.16,3.16,0,0,1,1.54,1.41.49.49,0,0,1,.07.33" fill="#f47963" fill-rule="evenodd"/></g></svg>