<svg xmlns="http://www.w3.org/2000/svg" viewBox="0 0 30 30"><g><path d="M26.31,15.6s0-.06,0-.08a1,1,0,0,0-.19-.44c-1-1.32-5.84-2.54-8.59-3.14h-.05l1.81-1.62V7.67l2.95-3.11a.75.75,0,1,0-1.09-1L17.78,7.08V9.65l-1.09,1a7.39,7.39,0,0,0-1-2.75L15.5.82a.5.5,0,0,0-1,0l-.22,7.06a7.39,7.39,0,0,0-1,2.75l-1.09-1V7.08L8.86,3.53a.75.75,0,0,0-1.09,1l3,3.11v2.65l1.81,1.62h0c-2.75.6-7.58,1.82-8.59,3.14a1,1,0,0,0-.19.44s0,0,0,.08a2.53,2.53,0,0,0,.46,1.71,1.83,1.83,0,0,0,.13.16,2.58,2.58,0,0,0,.55.49,4.43,4.43,0,0,0,2.5.64H7.5c.18,0,.38,0,.58,0l-.44,2.56L5.23,23a.75.75,0,0,0,.46,1.34.72.72,0,0,0,.46-.16L9,22l.65-3.76a1.06,1.06,0,0,0,.19-.06l.56,3.47L8.49,28.72a.74.74,0,0,0,.52.92l.2,0a.75.75,0,0,0,.72-.55l2-7.43-.69-4.25c.18-.12.37-.23.56-.38,0,0,.58-.46.58-.44a.6.6,0,0,0,0,.08,1.61,1.61,0,0,1,.57-.06c.2,3.46,1,6.06,2,6.06s1.82-2.57,2-6h.58a.25.25,0,0,0,0-.08s.58.44.58.44a6.15,6.15,0,0,0,.56.38L18,21.68l2,7.43a.75.75,0,0,0,.72.55l.2,0a.74.74,0,0,0,.52-.92L19.58,21.6l.56-3.47a1.06,1.06,0,0,0,.19.06L21,22l2.87,2.23a.72.72,0,0,0,.46.16A.75.75,0,0,0,24.77,23l-2.41-1.88-.44-2.56c.2,0,.4,0,.58,0h.16A4.44,4.44,0,0,0,25.17,18a2.58,2.58,0,0,0,.55-.49,1.83,1.83,0,0,0,.13-.16A2.53,2.53,0,0,0,26.31,15.6Z" fill="#231f20"/></g></svg>