<svg xmlns="http://www.w3.org/2000/svg" viewBox="0 0 30 30"><g><path d="M28,10.43l-.19-.29a5,5,0,0,0-.54-.68l-5.51-7a1.48,1.48,0,0,0-2.05-.26,1.4,1.4,0,0,0-.27,2L22,7.55H6.82a1.43,1.43,0,1,0,0,2.85l7.21,0a1.43,1.43,0,1,0,0,2.85h.74a1.42,1.42,0,1,0,0,2.84h.24a1.42,1.42,0,0,0,.33,2.81h7.76a5.76,5.76,0,0,0,5.59-5.68A5.61,5.61,0,0,0,28,10.43Z" fill="#64a3c8" fill-rule="evenodd"/><path d="M1.27,23.6a5.88,5.88,0,0,0,6.1,5.63,5.89,5.89,0,0,0,6.12-5.63c0-3.11-6.12-12.23-6.12-12.23S1.27,20.49,1.27,23.6Zm9.1,2.76h-6v-1.5h6Zm0-6.81v1.5H8.12V23.3H6.62V21.05H4.38v-1.5H6.62V17.3h1.5v2.25Z" fill="#64a3c8" fill-rule="evenodd"/></g></svg>