<svg xmlns="http://www.w3.org/2000/svg" viewBox="0 0 30 30"><g><path d="M27,17c-1.21-3.78-4.92-7.49-7.5-7.49a1.29,1.29,0,0,0-1,.38c-.66.68-.56,2.13-.45,3.65,0,.13,0,.9,0,1.72a7.29,7.29,0,0,1-2-4.78v-4a.83.83,0,0,0,0-.15V2.64a1,1,0,0,0-2,0v7.88a7.16,7.16,0,0,1-2.05,4.81c0-.83,0-1.62,0-1.75.11-1.52.21-3-.45-3.65a1.29,1.29,0,0,0-1-.38C7.94,9.55,4.23,13.26,3,17c-1.34,4.17-1.07,9.13,0,10.61a1.05,1.05,0,0,0,.84.49,1.68,1.68,0,0,0,1.15-.47c.18-.14.41-.31.74-.53a13.16,13.16,0,0,1,2.28-1.05c1.63-.63,3.16-1.23,3.16-2.78a7.07,7.07,0,0,0-.05-.72,12.51,12.51,0,0,1-.08-1.33,11.5,11.5,0,0,1,.36-2c.09-.41.18-.81.25-1.16a.75.75,0,0,0,.2-.1A10.67,10.67,0,0,0,15,14.43a11.6,11.6,0,0,0,3.21,3.75l.08,0c.06.33.15.69.23,1.07a11.5,11.5,0,0,1,.36,2,12.51,12.51,0,0,1-.08,1.33,7.07,7.07,0,0,0,0,.72c0,1.55,1.53,2.15,3.16,2.78a13.16,13.16,0,0,1,2.28,1.05c.33.22.56.39.74.53a1.68,1.68,0,0,0,1.15.47,1.05,1.05,0,0,0,.84-.49C28.05,26.17,28.32,21.21,27,17Z" fill="#64a3c8" fill-rule="evenodd"/></g></svg>