<svg xmlns="http://www.w3.org/2000/svg" viewBox="0 0 30 30"><g><polygon points="7.74 11.61 13.77 10.59 9.86 5.88 7.74 11.61" fill="#79b0b1"/><rect x="14.23" y="5.23" width="3.55" height="3.55" transform="translate(2.32 17.88) rotate(-62.11)" fill="#79b0b1"/><path d="M26.55,15.57c-.79-1.72-.54-3.83-.58-5.63A9,9,0,0,0,24.42,5.1,10.12,10.12,0,0,0,20.37,2,15.28,15.28,0,0,0,13.92.58a11,11,0,0,0-11,11c0,3.51,2.69,7.68,5.25,9.69l0,6.21A4.4,4.4,0,0,0,12.52,30c3.4,0,4-2,4-2V25.49s9,2.37,9-5.06c0,0,2.37-.38,2.61-1.76S27,16.5,26.55,15.57ZM12.7,27.66H10.09V26.24H12.7Zm0-3.08H10.09V23.17H12.7Zm0-3.06H10.09v-1.1c0-.11,0-.21,0-.32H12.7Zm5.95-10.08a2.82,2.82,0,0,1-3.18,0,3.19,3.19,0,0,1-1.18.79,2.85,2.85,0,0,0-1.59,2.56v3H10A4.33,4.33,0,0,0,8,14.63H8a2.84,2.84,0,0,1-1.71-2.39,2.82,2.82,0,0,1-.77-1.94,2.79,2.79,0,0,1,.58-1.72A2.59,2.59,0,0,1,6,7.83,2.83,2.83,0,0,1,8,5.12a2.83,2.83,0,0,1,2.58-1.68,3,3,0,0,1,.67.08,2.83,2.83,0,0,1,3.49-.29,2.85,2.85,0,0,1,3.68.91h.2a2.83,2.83,0,0,1,2.77,2.22,2.9,2.9,0,0,1-1.13,5.56A2.83,2.83,0,0,1,18.65,11.44Zm4.31,5a1.47,1.47,0,1,1,1.47-1.47A1.47,1.47,0,0,1,23,16.39Z" fill="#79b0b1"/></g></svg>