<svg xmlns="http://www.w3.org/2000/svg" viewBox="0 0 30 30"><g><path d="M23.4,2.82h0a3,3,0,0,1,2.08.85l1-2.41a5.33,5.33,0,0,0-3-1.18h-.13a5.35,5.35,0,0,0-3,1.18l1,2.41A3,3,0,0,1,23.4,2.82Z" fill="#f47963"/><path d="M26.28,9.91v0h0A2.4,2.4,0,0,0,23.6,8.05h-.18v0h-.17a2.4,2.4,0,0,0-2.68,1.82h0v0A18.37,18.37,0,0,0,20,12h6.79A14.73,14.73,0,0,0,26.28,9.91Z" fill="#f47963"/><path d="M21.37,5.53a2.05,2.05,0,1,0,2.05-2A2.05,2.05,0,0,0,21.37,5.53Z" fill="#f47963"/><polygon points="13.06 9.79 15.06 9.79 15.06 7.73 17.12 7.73 17.12 5.73 15.06 5.73 15.06 3.67 13.06 3.67 13.06 5.73 11.01 5.73 11.01 7.73 13.06 7.73 13.06 9.79" fill="#f47963"/><circle cx="4.29" cy="13.37" r="2.73" fill="#f47963"/><path d="M27.54,22H27a1.46,1.46,0,0,0,.39-.16,1.41,1.41,0,0,0,.38-1.95L24,14.23a1.34,1.34,0,0,0-.11-.14,1.38,1.38,0,0,0-2-.13l-.17.14-2.55,2.23A3.81,3.81,0,0,0,15.72,14a10.19,10.19,0,0,0-6.39,2.87l1.15,1.36h4A2.75,2.75,0,0,1,17.23,21,2.68,2.68,0,0,1,17,22H15.12A1.23,1.23,0,0,0,15.73,21a1.25,1.25,0,0,0-1.25-1.25H9.79L7.52,17.05a1.25,1.25,0,0,0-.95-.44,1.28,1.28,0,0,0-.81.29,1.26,1.26,0,0,0-.15,1.77l2.64,3.12a2.17,2.17,0,0,0,.29.24H3.29V18.94a1.25,1.25,0,0,0-2.5,0v9.73a1.25,1.25,0,0,0,2.5,0V26h23v2.7a1.25,1.25,0,0,0,2.5,0V23.28A1.25,1.25,0,0,0,27.54,22ZM20,22a4.8,4.8,0,0,0,.32-.43l2.52-4,2.62,3.89a1.31,1.31,0,0,0,.76.55Z" fill="#f47963"/></g></svg>