<svg xmlns="http://www.w3.org/2000/svg" viewBox="0 0 30 30"><g><path d="M19.58,16.26V6.43a3.49,3.49,0,1,0-7,0v9.76A6.26,6.26,0,0,0,10,21.26,6.11,6.11,0,1,0,20.5,17,6.87,6.87,0,0,0,19.58,16.26Zm-3.49,9.36a4.37,4.37,0,0,1-4.37-4.36,4.49,4.49,0,0,1,2.2-3.83.88.88,0,0,0,.42-.75V6.43a1.75,1.75,0,1,1,3.49,0v10.3a.85.85,0,0,0,.43.75,4.36,4.36,0,0,1-2.18,8.14Z" fill="#e0381f"/><path d="M24.81,14.28H22.19a.88.88,0,0,0,0,1.75h2.62a.88.88,0,0,0,0-1.75Z" fill="#e0381f"/><path d="M22.19,7.3h2.62a.87.87,0,1,0,0-1.74H22.19a.87.87,0,0,0,0,1.74Z" fill="#e0381f"/><path d="M22.19,11.66h.88a.87.87,0,1,0,0-1.74h-.88a.87.87,0,0,0,0,1.74Z" fill="#e0381f"/><path d="M17,18.33V10.79h0V7.3a.88.88,0,0,0-1.75,0v11a3.06,3.06,0,1,0,1.75,0Z" fill="#e0381f"/><path d="M10.53,11.32a.33.33,0,0,0-.31-.22.35.35,0,0,0-.28.15,3.49,3.49,0,0,1-1.38,1.18A5.27,5.27,0,0,0,5.69,6.82a.34.34,0,0,0-.2,0,.33.33,0,0,0-.3.36c.1,1.48-1.29,3.43-2.09,4.44a3.38,3.38,0,0,0-.77,2.48,2.92,2.92,0,0,0,2.91,2.48h0a.15.15,0,0,0,.14-.17,3.36,3.36,0,0,1,1.07-2.85.24.24,0,0,1,.33,0,3.38,3.38,0,0,1,1.07,2.86v0a.15.15,0,0,0,.15.15C11.83,16,11.07,12.75,10.53,11.32Z" fill="#e0381f"/></g></svg>