<svg xmlns="http://www.w3.org/2000/svg" viewBox="0 0 30 30"><g><path d="M25.63,24.5l-.26,0v-2H4.63v2l-.26,0a1.5,1.5,0,0,0,0,3H25.63a1.5,1.5,0,0,0,0-3Z" fill="#436e84"/><path d="M8.77,20.92V14.49a1.26,1.26,0,0,0,.9-1.2v-.84H4.87v.84a1.26,1.26,0,0,0,.9,1.2v6.43Z" fill="#436e84"/><path d="M16.5,20.92V14.49a1.26,1.26,0,0,0,.9-1.2v-.84H12.6v.84a1.26,1.26,0,0,0,.9,1.2v6.43Z" fill="#436e84"/><path d="M24.18,20.92V14.49a1.26,1.26,0,0,0,.9-1.2v-.84h-4.8v.84a1.26,1.26,0,0,0,.9,1.2v6.43Z" fill="#436e84"/><path d="M3.91,11H26.09a1.29,1.29,0,0,0,.75-2.35L16,2.69a1.65,1.65,0,0,0-1.9,0L3.16,8.6A1.29,1.29,0,0,0,3.91,11Z" fill="#436e84"/></g></svg>