<svg xmlns="http://www.w3.org/2000/svg" viewBox="0 0 30 30"><g><path d="M9.8,20.73h2.38l-.07,2.58a.69.69,0,0,0,.36.7.62.62,0,0,0,.35.08.82.82,0,0,0,.59-.25l3.17-3.11h1.13L7.45,10.47a2.54,2.54,0,0,0-.15.83v6.93A2.5,2.5,0,0,0,9.8,20.73Z" fill="#a9a9a9"/><path d="M15,2.42A12.58,12.58,0,1,0,27.58,15,12.6,12.6,0,0,0,15,2.42Zm0,23.22a10.63,10.63,0,0,1-7.71-18l15,15A10.63,10.63,0,0,1,15,25.64Zm8.61-4.4-1.47-1.46a2.5,2.5,0,0,0,.55-1.55V11.3a2.5,2.5,0,0,0-2.5-2.5h-9L8.75,6.39A10.63,10.63,0,0,1,23.61,21.24Z" fill="#a9a9a9"/></g></svg>