<svg xmlns="http://www.w3.org/2000/svg" viewBox="0 0 30 30"><g><circle cx="14.99" cy="4.54" r="4.44" transform="translate(-0.53 2.46) rotate(-9.22)" fill="#79b0b1"/><path d="M23.7,19.8c-.13-.72-.81-3.61-1.07-4.32a13.42,13.42,0,0,0-1.52-3.2,4.94,4.94,0,0,0-3.1-2A13,13,0,0,0,15.16,10h-.33a13,13,0,0,0-2.85.29,4.94,4.94,0,0,0-3.1,2,13.05,13.05,0,0,0-1.52,3.2c-.26.71-.94,3.6-1.07,4.32a1.48,1.48,0,0,0,2.89.6s.89-3.2,1.14-3.79a.08.08,0,0,0,0-.05h.05v11.5a1.85,1.85,0,0,0,3.69.05V23.63a.92.92,0,1,1,1.83,0v4.48a1.85,1.85,0,0,0,3.69-.05V16.56h0a.08.08,0,0,0,0,.05c.25.59,1.14,3.79,1.14,3.79a1.48,1.48,0,0,0,2.89-.6Z" fill="#79b0b1"/></g></svg>