<?xml version="1.0" encoding="UTF-8"?>
<svg width="30px" height="30px" viewBox="0 0 30 30" version="1.1" xmlns="http://www.w3.org/2000/svg" xmlns:xlink="http://www.w3.org/1999/xlink">
    <title>icon/03 forms/livelihoodpng</title>
    <defs>
        <path d="M10.1180601,2.07497816 L11.2193354,4.58792402 L9.01773457,4.58792402 L10.1180601,2.07497816 Z M1.11505149,6.70734816 L2.24244586,4.13347634 L3.36984022,6.70734816 L1.11505149,6.70734816 Z M8.0698495,4.58792402 C7.97392125,4.58842342 7.8969887,4.67032388 7.8969887,4.77070188 C7.89746359,4.77519642 7.89746359,4.77969096 7.89793848,4.78468489 C8.00668882,6.07461716 9.08944331,7.02795851 10.3165651,6.9135975 C11.393146,6.81321949 12.2455777,5.91581017 12.3415059,4.78468489 C12.3486293,4.68430688 12.2778703,4.5969131 12.182417,4.58842342 C12.1776681,4.58842342 12.1729191,4.58792402 12.1681702,4.58792402 L12.0038575,4.58792402 L10.7178491,1.65299102 C10.9021073,1.47970163 11.0203555,1.2300051 11.0203555,0.94884681 C11.0203555,0.424484099 10.616697,0 10.118535,0 C9.75571724,0 9.44513766,0.226225055 9.30172018,0.55033115 L2.81801535,2.28222628 C2.66130088,2.14489318 2.462321,2.05849819 2.24244586,2.05849819 C1.74380892,2.05849819 1.34015045,2.48298228 1.34015045,3.007345 C1.34015045,3.28850329 1.45839864,3.53819982 1.64265686,3.71148921 L0.330529381,6.70734816 L0.320556642,6.70734816 L0.172865131,6.70734816 C0.0769368828,6.70784756 -0.000470565216,6.78974802 2.15365371e-06,6.89062542 C2.15365371e-06,6.89462056 2.15365371e-06,6.89961449 0.000479219421,6.90410903 C0.105430422,8.19454069 1.18533556,9.15137779 2.41245731,9.04101192 C3.4947369,8.94412967 4.35286732,8.04172641 4.44547132,6.90410903 C4.45259471,6.80373102 4.38183575,6.71633724 4.28685729,6.70784756 C4.28210837,6.70784756 4.27783434,6.70734816 4.27356031,6.70734816 L4.15388744,6.70734816 L2.84223486,3.71148921 C2.97520471,3.58614155 3.07255763,3.42134184 3.11624772,3.23257126 L5.45841664,2.60733116 L5.45841664,10.2240741 L5.4114023,10.2240741 L2.24861946,11.2802904 C2.03824216,11.3482079 1.89624936,11.552959 1.89719914,11.784178 L1.89719914,11.8186361 C1.89719914,12.1072853 2.12039853,12.342 2.39536118,12.342 L9.94045035,12.342 C10.215413,12.342 10.4381375,12.1072853 10.4381375,11.8186361 L10.4381375,11.7776859 C10.4376626,11.550462 10.2980443,11.349706 10.091941,11.2802904 L6.93343218,10.2330632 L6.8830936,10.2330632 L6.8830936,2.22679365 L9.4242424,1.54811848 C9.45368572,1.58607235 9.48455372,1.62102987 9.51874597,1.65299102 L8.23273757,4.58792402 L8.0698495,4.58792402 Z" id="path-1"></path>
    </defs>
    <g id="icon/03-forms/livelihood" stroke="none" stroke-width="1" fill="none" fill-rule="evenodd">
        <g id="Group" transform="translate(17.000000, 0.000000)">
            <mask id="mask-2" fill="white">
                <use xlink:href="#path-1"></use>
            </mask>
            <use id="scales" fill="#C78330" xlink:href="#path-1"></use>
        </g>
        <path d="M28.7870912,28.0005 C28.3407408,28.0005 26.8195208,28.0003333 24.2234313,28 L23.6576094,28 L11.730316,28 L11.1644941,28 L11.022915,28 L10.457093,28 L6.02979966,28 L5.46397771,28 L1.21290878,28 C0.543383133,28 0,28.448 0,29 C0,29.552 0.543383133,30 1.21290878,30 L28.7870912,30 C29.4566169,30 30,29.552 30,29 C30,28.448 29.4566169,28.0005 28.7870912,28.0005 Z" id="Path-Copy" fill="#C78330" fill-rule="nonzero" transform="translate(15.000000, 29.000000) scale(-1, 1) translate(-15.000000, -29.000000) "></path>
        <path d="M14.3717113,15.9396171 L12.3214286,13.3054944 C12.3948433,10.9366082 12.3135516,9.4210754 12.0775536,8.75889605 C11.7235566,7.76562702 11.0574326,6.90610059 10.142164,6.41474195 C9.22689542,5.92338332 7.72321518,5.92610054 6.4645936,6.12732873 C5.62551254,6.26148086 4.22694804,6.79360773 2.26890011,7.72370934 C1.96282411,7.87258789 1.73125753,8.15675029 1.63479721,8.50291778 L0.809340939,12.6794436 C0.624149505,13.3406103 0.633712298,14.031982 1.25019263,14.2296025 C1.3624205,14.2660761 1.47495753,14.2833181 1.58563955,14.2833181 C2.08772785,14.2833181 2.4105894,13.8469614 2.56239073,13.3054944 C2.66359161,12.9445165 2.94851098,11.7490578 3.41714883,9.71911843 L5.29722906,9.19123383 L3.41714883,14.6211962 C3.37912121,14.7481906 3.34727694,14.8761797 3.33800191,15.0127899 L3.20845802,20.7184142 L0.396271528,24.6658173 C-0.0458382405,25.3180314 -0.211861279,26.2459915 0.396271528,26.7204797 C0.637731478,26.9084845 0.650694679,26.8980957 0.927708911,26.8980957 C1.34817694,26.8980957 1.76277079,26.6895331 2.02927332,26.2972763 L5.54704899,21.600942 C5.69668614,21.3804426 5.78541727,21.1188275 5.80365816,20.8469335 L6.27849562,17.6179987 L8.07877896,20.8469335 L7.24978932,24.9974916 C7.03429946,25.7694053 7.08418657,26.7062218 7.8039289,26.9379949 C7.93439766,26.9797737 8.06579392,27 8.19502601,27 C8.78058957,27 9.23755839,26.5333492 9.4144023,25.9010298 C9.53229824,25.4794836 9.91009479,23.9359726 10.547792,21.2704968 C10.643634,20.929303 10.6192097,20.5629093 10.4800843,20.2396206 L8.44761599,15.7667984 L10.1665882,11.7808985 L10.142164,13.9699769 C10.1650424,14.2647498 10.2849995,14.5409543 10.4800843,14.7501801 L13.3696295,17.6179987 C13.5974861,17.8623718 13.7275815,18.0351239 14.0259283,18.0351239 C14.3242751,18.0351239 14.6226219,17.9131032 14.8504784,17.6687302 C15.1544933,17.3435626 14.9949043,16.7671916 14.3717113,15.9396171 Z" id="Path" fill="#C78330" fill-rule="nonzero"></path>
        <path d="M23.5768495,16.3069213 L19.368861,15.0206979 C19.1409993,14.9524994 18.900056,15.0449084 18.7588974,15.2553007 L17.8383238,16.6312051 L2.7243074,12.0230336 C2.41917347,11.9289196 2.1033918,12.1318101 2.0203394,12.4748485 C1.93698277,12.8175459 2.11738598,13.171155 2.42343257,13.263905 L17.0978493,17.7377255 L16.4641564,18.6846615 C16.3500734,18.8551577 16.3187386,19.0774847 16.3804956,19.2786703 C16.4419483,19.4801968 16.5882787,19.6346664 16.7714199,19.6909301 L20.9517242,20.9771535 C21.0025292,20.9928392 21.0536383,21 21.1041391,21 C21.3560343,21 21.5872424,20.8127952 21.6569091,20.5270435 C21.7408742,20.1846871 21.5613836,19.830396 21.2556413,19.7366231 L17.8882161,18.7003471 L18.2897882,18.1002005 L22.1004637,19.2619616 C22.1509644,19.2776473 22.2014652,19.2844671 22.2513574,19.2844671 C22.5038611,19.2844671 22.7350692,19.0965803 22.8047359,18.8101467 C22.8880925,18.4674493 22.7076893,18.1138402 22.4016427,18.0207492 L19.0299585,16.9933391 L19.4433952,16.3754608 L23.275062,17.5471108 C23.5798917,17.6398607 23.8962818,17.4386752 23.9796384,17.0956368 C24.0629951,16.7539624 23.8828961,16.4000123 23.5768495,16.3069213 Z" id="Path" fill="#C78330" fill-rule="nonzero" transform="translate(13.000000, 16.500000) rotate(-3.000000) translate(-13.000000, -16.500000) "></path>
        <circle id="Oval" fill="#C78330" fill-rule="nonzero" cx="12" cy="4" r="2"></circle>
        <path d="M26.8695258,28 L26.8695258,27.5650877 C26.9790327,27.5816034 27.0862738,27.593302 27.1882285,27.593302 C28.5106178,27.593302 28.9373168,26.2527813 28.9796091,25.4600298 L29,25.0953091 L28.6004889,25.1242115 C27.8339411,25.1785755 27.2546878,25.3753871 26.8695258,25.7057002 L26.8695258,25.090492 C27.2199477,24.8585847 27.4404718,24.5654318 27.509952,24.2089689 C27.6904494,23.2792751 26.7698369,22.3137975 26.7298102,22.2731965 L26.4654834,22 L26.2011566,22.2731965 C25.572814,22.9235004 25.3115081,23.5476545 25.4232805,24.1257025 C25.5297665,24.6755362 25.9474029,25.0127308 26.1649061,25.1551783 L26.1649061,25.8570937 C25.813729,25.4552128 25.2239026,25.1930267 24.4067551,25.0781053 L24.0110201,25.0216768 L24.000447,25.3863975 C23.9989366,25.4352563 23.9740144,26.5989219 24.6529567,27.2333983 C24.942961,27.5045303 25.3099976,27.6421608 25.7442488,27.6421608 C25.8749018,27.6421608 26.0138622,27.6290859 26.1558434,27.6029361 L26.1649061,28 L25.9885972,28 L25.2839774,28 L26.8695258,28 Z" id="Path-Copy-2" fill="#C78330" fill-rule="nonzero" transform="translate(26.500000, 25.000000) scale(-1, 1) translate(-26.500000, -25.000000) "></path>
        <path d="M20.8695258,28 L20.8695258,27.5650877 C20.9790327,27.5816034 21.0862738,27.593302 21.1882285,27.593302 C22.5106178,27.593302 22.9373168,26.2527813 22.9796091,25.4600298 L23,25.0953091 L22.6004889,25.1242115 C21.8339411,25.1785755 21.2546878,25.3753871 20.8695258,25.7057002 L20.8695258,25.090492 C21.2199477,24.8585847 21.4404718,24.5654318 21.509952,24.2089689 C21.6904494,23.2792751 20.7698369,22.3137975 20.7298102,22.2731965 L20.4654834,22 L20.2011566,22.2731965 C19.572814,22.9235004 19.3115081,23.5476545 19.4232805,24.1257025 C19.5297665,24.6755362 19.9474029,25.0127308 20.1649061,25.1551783 L20.1649061,25.8570937 C19.813729,25.4552128 19.2239026,25.1930267 18.4067551,25.0781053 L18.0110201,25.0216768 L18.000447,25.3863975 C17.9989366,25.4352563 17.9740144,26.5989219 18.6529567,27.2333983 C18.942961,27.5045303 19.3099976,27.6421608 19.7442488,27.6421608 C19.8749018,27.6421608 20.0138622,27.6290859 20.1558434,27.6029361 L20.1649061,28 L19.9885972,28 L19.2839774,28 L20.8695258,28 Z" id="Path-Copy-3" fill="#C78330" fill-rule="nonzero" transform="translate(20.500000, 25.000000) scale(-1, 1) translate(-20.500000, -25.000000) "></path>
        <path d="M14.8695258,28 L14.8695258,27.5650877 C14.9790327,27.5816034 15.0862738,27.593302 15.1882285,27.593302 C16.5106178,27.593302 16.9373168,26.2527813 16.9796091,25.4600298 L17,25.0953091 L16.6004889,25.1242115 C15.8339411,25.1785755 15.2546878,25.3753871 14.8695258,25.7057002 L14.8695258,25.090492 C15.2199477,24.8585847 15.4404718,24.5654318 15.509952,24.2089689 C15.6904494,23.2792751 14.7698369,22.3137975 14.7298102,22.2731965 L14.4654834,22 L14.2011566,22.2731965 C13.572814,22.9235004 13.3115081,23.5476545 13.4232805,24.1257025 C13.5297665,24.6755362 13.9474029,25.0127308 14.1649061,25.1551783 L14.1649061,25.8570937 C13.813729,25.4552128 13.2239026,25.1930267 12.4067551,25.0781053 L12.0110201,25.0216768 L12.000447,25.3863975 C11.9989366,25.4352563 11.9740144,26.5989219 12.6529567,27.2333983 C12.942961,27.5045303 13.3099976,27.6421608 13.7442488,27.6421608 C13.8749018,27.6421608 14.0138622,27.6290859 14.1558434,27.6029361 L14.1649061,28 L13.9885972,28 L13.2839774,28 L14.8695258,28 Z" id="Path-Copy-4" fill="#C78330" fill-rule="nonzero" transform="translate(14.500000, 25.000000) scale(-1, 1) translate(-14.500000, -25.000000) "></path>
    </g>
</svg>