<svg xmlns="http://www.w3.org/2000/svg" viewBox="0 0 30 30"><g><path d="M15,5.39A2.71,2.71,0,0,0,17.75,2.7a2.74,2.74,0,0,0-5.47,0A2.71,2.71,0,0,0,15,5.39Z" fill="#79b0b1" fill-rule="evenodd"/><path d="M22,16.87,20,9.08a4.13,4.13,0,0,0-3.63-2.94H13.66A4.13,4.13,0,0,0,10,9.08L8,16.87a1.14,1.14,0,0,0,.84,1.39,1,1,0,0,0,.29,0,1.17,1.17,0,0,0,1.13-.87L11.67,12v4.84s-.82,11.7-.82,11.7A1.35,1.35,0,0,0,12.06,30a1.36,1.36,0,0,0,1.5-1.18l1.22-11h.44l1.22,11A1.36,1.36,0,0,0,17.94,30a1.35,1.35,0,0,0,1.21-1.42s-.82-11.67-.82-11.7V12l1.37,5.4a1.17,1.17,0,0,0,1.13.87,1,1,0,0,0,.29,0A1.14,1.14,0,0,0,22,16.87Z" fill="#79b0b1" fill-rule="evenodd"/></g></svg>