<svg xmlns="http://www.w3.org/2000/svg" viewBox="0 0 30 30"><g><path d="M19.18,11.67a.37.37,0,0,0-.36.37v0a4.69,4.69,0,0,0,9.35,0,.35.35,0,0,0-.33-.39h-.38L24.76,5.8a1.92,1.92,0,0,0,.63-1.41,1.9,1.9,0,0,0-3.62-.8L8.12,7.06a1.86,1.86,0,0,0-1.21-.45A1.89,1.89,0,0,0,5.65,9.92l-2.77,6H2.55a.36.36,0,0,0-.36.36v0a4.7,4.7,0,0,0,9.36,0,.37.37,0,0,0-.34-.39h-.28l-2.76-6a1.87,1.87,0,0,0,.58-1l4.93-1.25V23h-.1L6.92,25.07a1.06,1.06,0,0,0-.74,1v.07A1,1,0,0,0,7.23,27.2H23.12a1,1,0,0,0,1.05-1.05v-.08a1.06,1.06,0,0,0-.73-1L16.79,23h-.11V7L22,5.59l.2.21-2.71,5.87ZM4.53,15.92l2.38-5.16,2.37,5.16Zm19-9.28,2.32,5H21.18Z" fill="#c2892b"/></g></svg>