<?xml version="1.0" encoding="UTF-8"?>
<svg width="32px" height="29px" viewBox="0 0 32 29" version="1.1" xmlns="http://www.w3.org/2000/svg" xmlns:xlink="http://www.w3.org/1999/xlink">
    <!-- Generator: Sketch 64 (93537) - https://sketch.com -->
    <title>icon-warning-red</title>
    <desc>Created with Sketch.</desc>
    <g id="Page-2" stroke="none" stroke-width="1" fill="none" fill-rule="evenodd">
        <g id="icon-warning-red" fill-rule="nonzero">
            <path d="M30.7639837,20.8063183 C31.3007598,21.651935 31.5874992,22.6265831 31.5874992,23.6357932 C31.5874992,26.5113509 29.2706449,28.8546538 26.4124265,28.8799993 L26.3665482,28.8799993 L5.21894407,28.8799993 C3.36087276,28.8799993 1.62667288,27.8730933 0.697637223,26.2555921 C-0.23139843,24.6403951 -0.233692345,22.6311914 0.697637223,21.0136902 L11.2702923,2.61979888 C12.199328,1.00460186 13.931234,0 15.7915992,0 C17.6473766,0 19.3815765,1.00460186 20.3106121,2.62210301 L30.7639837,20.8063183 Z" id="path-1-path" fill="#E33030"></path>
            <path d="M18.1574791,24.4728799 C18.6669813,23.9709899 18.9524995,23.2722802 18.9524995,22.5563488 C18.9524995,21.8477982 18.6669813,21.1466283 18.1574791,20.6447382 C17.6578223,20.140388 16.9612564,19.8549995 16.2449996,19.8549995 C15.5312042,19.8549995 14.8297155,20.140388 14.3275974,20.6447382 C13.8230178,21.1466283 13.5374997,21.8477982 13.5374997,22.5563488 C13.5374997,23.2722802 13.8230178,23.9709899 14.3275974,24.4728799 C14.8297155,24.9772302 15.5312042,25.2699994 16.2449996,25.2699994 C16.9612564,25.2699994 17.6578223,24.9772302 18.1574791,24.4728799 Z" id="path-1-path" fill="#FFFFFF"></path>
            <path d="M15.7935975,5.41499986 C13.9124581,5.41499986 13.4363803,6.97458727 13.5543465,7.90659295 L14.689771,17.7277785 C14.7361149,18.6621259 15.2964543,18.9524995 15.7935975,18.9524995 C16.2380772,18.9524995 16.8595063,18.6152914 16.897424,17.7277785 L18.0328485,7.90659295 C18.1508147,6.99800449 17.6873761,5.41499986 15.7935975,5.41499986 Z" id="path-1-path" fill="#FFFFFF"></path>
        </g>
    </g>
</svg>