<svg xmlns="http://www.w3.org/2000/svg" viewBox="0 0 30 30"><g><path d="M15.71,5.5a2.72,2.72,0,1,1,2.72-2.72A2.72,2.72,0,0,1,15.71,5.5Z" fill="#64a3c8"/><path d="M9.36,17.89a1,1,0,0,0,.46,0,1.15,1.15,0,0,0,1-.8l1.88-6.2L12.56,13,9.87,26h2.76l.16,3a1.05,1.05,0,0,0,2.1,0l.17-3h1.29l.17,3a1.05,1.05,0,0,0,2.1,0l.17-3h2.76L18.87,13.13a5.48,5.48,0,0,0,2.89-.91l.07-.08a1.31,1.31,0,0,0,.09-1.34,25.38,25.38,0,0,0-1.43-2.32,5.46,5.46,0,0,0-1.4-1.59A5.32,5.32,0,0,0,16,6.18h-.59a6.22,6.22,0,0,0-2.67.46c-1.46.71-2,2.45-2.38,3.89S9.24,14.36,9,15.3c-.12.39-.24.77-.35,1.16A1.14,1.14,0,0,0,9.36,17.89Zm11-7.4ZM18.7,10l.65.88-.6.13Zm-5.22-.84a.77.77,0,0,1,.77-.78h.46V8.16A.26.26,0,0,1,15,7.91h1.52a.26.26,0,0,1,.26.25v.22h.55a.78.78,0,0,1,.69.77v2l-1.34.19h0a1,1,0,0,0,.17,1.95L18,13.22h0a.78.78,0,0,1-.78.78h-3a.77.77,0,0,1-.77-.78Z" fill="#64a3c8"/></g></svg>