<svg xmlns="http://www.w3.org/2000/svg" viewBox="0 0 30 30"><g><path d="M25.19,9.64H20.36V4.9A1.9,1.9,0,0,0,18.46,3H11.54a1.9,1.9,0,0,0-1.9,1.9V9.64H4.81A1.81,1.81,0,0,0,3,11.45v7.1a1.81,1.81,0,0,0,1.81,1.81H9.64V25.1a1.9,1.9,0,0,0,1.9,1.9h6.92a1.9,1.9,0,0,0,1.9-1.9V20.36h4.83A1.81,1.81,0,0,0,27,18.55v-7.1A1.81,1.81,0,0,0,25.19,9.64Zm-5.19,7a34.71,34.71,0,0,1-4.64,4.13.51.51,0,0,1-.72,0A34.71,34.71,0,0,1,10,16.64a3.82,3.82,0,0,1-.18-4.8,3.07,3.07,0,0,1,3.61-.71A3.6,3.6,0,0,1,15,12.5h0a3.6,3.6,0,0,1,1.57-1.37,3.07,3.07,0,0,1,3.61.71A3.82,3.82,0,0,1,20,16.64Z" fill="#64a3c8"/></g></svg>