<?xml version="1.0" encoding="UTF-8"?>
<!DOCTYPE svg PUBLIC "-//W3C//DTD SVG 1.1//EN" "http://www.w3.org/Graphics/SVG/1.1/DTD/svg11.dtd">
<svg xmlns="http://www.w3.org/2000/svg" version="1.1" width="32px" height="32px" style="shape-rendering:geometricPrecision; text-rendering:geometricPrecision; image-rendering:optimizeQuality; fill-rule:evenodd; clip-rule:evenodd" xmlns:xlink="http://www.w3.org/1999/xlink">
<g><path style="opacity:0.984" fill="#40acab" d="M 17.5,16.5 C 16.4537,18.8817 16.4537,21.2151 17.5,23.5C 13.6398,29.5083 8.63985,30.675 2.5,27C 1.39127,25.1239 0.391268,23.2905 -0.5,21.5C -0.5,20.5 -0.5,19.5 -0.5,18.5C 1.09373,14.4133 4.09373,11.9133 8.5,11C 5.6212,9.33418 4.78786,6.83418 6,3.5C 10.0612,0.522082 12.8946,1.35541 14.5,6C 14.5159,8.30517 13.5159,9.97184 11.5,11C 13.9962,12.331 15.9962,14.1644 17.5,16.5 Z M 6.5,16.5 C 9.76483,16.2991 12.4315,17.4657 14.5,20C 10.982,24.5901 7.64864,24.5901 4.5,20C 5.30501,18.8873 5.97168,17.7206 6.5,16.5 Z"/></g>
<g><path style="opacity:0.976" fill="#7ad3d0" d="M 31.5,18.5 C 31.5,19.5 31.5,20.5 31.5,21.5C 30.7811,23.0913 29.7811,24.5913 28.5,26C 24.2586,27.1882 20.5919,26.3549 17.5,23.5C 16.4537,21.2151 16.4537,18.8817 17.5,16.5C 21.3009,14.9733 21.9675,12.8067 19.5,10C 20.6908,6.69053 22.8574,5.8572 26,7.5C 26.8632,9.74885 26.3632,11.5822 24.5,13C 27.9117,13.5896 30.245,15.423 31.5,18.5 Z M 22.5,18.5 C 23.5,18.5 24.5,18.5 25.5,18.5C 25.5,19.5 25.5,20.5 25.5,21.5C 22.5065,21.8543 21.5065,20.8543 22.5,18.5 Z"/></g>
</svg>
