<?xml version="1.0" standalone="no"?>
<!DOCTYPE svg PUBLIC "-//W3C//DTD SVG 20010904//EN"
 "http://www.w3.org/TR/2001/REC-SVG-20010904/DTD/svg10.dtd">
<svg version="1.0" xmlns="http://www.w3.org/2000/svg"
 width="549.000000pt" height="550.000000pt" viewBox="0 0 549.000000 550.000000"
 preserveAspectRatio="xMidYMid meet">

<g transform="translate(0.000000,550.000000) scale(0.100000,-0.100000)"
fill="#000000" stroke="none">
<path d="M300 5486 c-148 -41 -258 -158 -289 -306 -9 -41 -11 -647 -9 -2465
l3 -2410 32 -67 c57 -121 162 -203 288 -228 44 -8 696 -10 2455 -8 l2395 3 53
22 c102 42 194 133 235 233 l22 55 0 2430 c0 2331 -1 2432 -18 2483 -25 69
-94 159 -155 200 -27 18 -77 42 -111 53 -61 19 -115 19 -2459 18 -1887 -1
-2407 -3 -2442 -13z m1656 -614 c247 -65 437 -258 498 -506 22 -85 22 -248 1
-331 -59 -233 -242 -424 -475 -497 -107 -33 -283 -33 -390 0 -232 73 -393 231
-467 457 -37 112 -39 285 -4 395 39 128 87 206 181 300 95 95 170 141 290 177
99 29 264 31 366 5z m2175 -752 c298 -92 435 -425 292 -708 -89 -176 -311
-286 -511 -252 -160 27 -302 133 -367 272 -154 335 77 705 441 707 55 1 103
-6 145 -19z m-2262 -809 c125 -25 258 -69 362 -122 183 -92 240 -139 586 -483
l303 -300 177 175 c193 191 265 247 394 308 328 156 708 138 1019 -49 475
-286 649 -890 401 -1395 -62 -125 -125 -209 -234 -310 -372 -347 -929 -378
-1357 -77 -39 27 -348 329 -760 742 -756 757 -757 759 -925 816 -64 22 -104
28 -201 32 -147 5 -233 -11 -349 -68 -341 -166 -495 -552 -364 -914 146 -404
624 -590 1012 -394 93 47 154 98 367 312 107 108 199 196 204 196 11 0 452
-437 466 -462 9 -14 -26 -54 -206 -233 -244 -244 -310 -300 -444 -379 -235
-139 -511 -207 -785 -192 -218 11 -386 56 -578 154 -382 194 -647 544 -739
975 -28 135 -31 396 -5 536 143 772 887 1281 1656 1132z"/>
<path d="M4031 2294 c-25 -9 -63 -27 -85 -41 -46 -29 -336 -312 -336 -328 0
-6 71 -81 158 -167 171 -170 215 -199 324 -218 166 -29 344 64 416 218 24 50
27 69 27 162 0 94 -3 111 -28 165 -45 96 -133 175 -231 208 -62 21 -186 21
-245 1z"/>
</g>
</svg>
