<?xml version="1.0" standalone="no"?>
<!DOCTYPE svg PUBLIC "-//W3C//DTD SVG 20010904//EN"
 "http://www.w3.org/TR/2001/REC-SVG-20010904/DTD/svg10.dtd">
<svg version="1.0" xmlns="http://www.w3.org/2000/svg"
 width="549.000000pt" height="550.000000pt" viewBox="0 0 549.000000 550.000000"
 preserveAspectRatio="xMidYMid meet">

<g transform="translate(0.000000,550.000000) scale(0.100000,-0.100000)"
fill="#000000" stroke="none">
<path d="M845 5483 c-168 -15 -338 -86 -493 -206 -138 -106 -257 -291 -310
-485 l-27 -97 0 -1945 0 -1945 23 -85 c58 -219 198 -422 371 -539 80 -55 210
-116 286 -136 136 -35 220 -36 2125 -33 l1885 3 76 22 c185 52 318 130 444
259 114 116 186 244 237 419 l23 80 3 1885 c2 1285 0 1917 -8 1985 -22 205
-109 391 -250 535 -131 134 -266 212 -455 263 l-80 21 -1905 2 c-1048 0 -1923
-1 -1945 -3z m1130 -568 c137 -29 292 -124 382 -234 53 -65 116 -190 138 -276
21 -84 20 -253 -3 -341 -81 -306 -351 -514 -667 -514 -382 0 -688 308 -687
689 2 444 403 768 837 676z m2171 -749 c166 -44 306 -184 350 -351 21 -75 18
-201 -6 -278 -54 -173 -206 -305 -392 -338 -201 -36 -425 79 -516 265 -40 82
-51 132 -52 227 0 215 139 403 348 470 69 22 196 24 268 5z m-2238 -811 c193
-37 400 -125 557 -237 60 -42 189 -161 393 -362 l303 -300 182 181 c119 118
209 198 259 231 315 204 732 226 1068 57 187 -95 352 -255 450 -437 232 -431
150 -961 -199 -1291 -205 -193 -450 -290 -736 -290 -132 -1 -210 11 -329 49
-190 61 -299 135 -521 355 l-181 178 -289 -290 c-160 -160 -328 -319 -375
-355 -47 -35 -143 -94 -215 -129 -210 -105 -387 -146 -630 -147 -296 -1 -555
78 -796 243 -380 260 -609 694 -609 1158 0 524 283 997 746 1248 130 70 320
130 485 153 91 13 339 4 437 -15z"/>
<path d="M1545 2690 c-198 -28 -384 -143 -495 -307 -98 -146 -137 -286 -127
-453 8 -118 25 -183 76 -285 93 -186 246 -312 450 -371 86 -24 104 -26 225
-22 108 4 144 10 206 32 153 54 192 85 504 399 l289 290 -299 297 c-274 272
-306 300 -379 338 -142 72 -307 102 -450 82z"/>
<path d="M4104 2350 c-89 -19 -145 -59 -307 -219 l-158 -156 158 -159 c87 -87
177 -169 199 -182 23 -14 74 -31 113 -39 332 -70 583 299 399 587 -82 130
-253 200 -404 168z"/>
</g>
</svg>
