<svg xmlns="http://www.w3.org/2000/svg" width="250.446" height="80.038" viewBox="0 0 250.446 80.038">
  <g id="Group_4" data-name="Group 4" transform="translate(-140 -40)">
    <g id="Layer_1" transform="translate(137.8 38.3)">
      <g id="Group_3" data-name="Group 3" transform="translate(42.839 19.264)">
        <g id="Group_1" data-name="Group 1">
          <path id="Path_1" data-name="Path 1" d="M89.234,51.514a10.827,10.827,0,0,1-.964,4.615,8.918,8.918,0,0,1-2.686,3.306,11.782,11.782,0,0,1-4.339,2.2,23.893,23.893,0,0,1-5.993.689H61.2V27.2H73.6a42.246,42.246,0,0,1,5.855.276,11.844,11.844,0,0,1,3.719,1.24A7.1,7.1,0,0,1,86,31.4a8.515,8.515,0,0,1-.344,8.472,7.772,7.772,0,0,1-3.513,2.962v.207a9.724,9.724,0,0,1,5.235,2.824A8.564,8.564,0,0,1,89.234,51.514Zm-11.3-14.4a3.949,3.949,0,0,0-.413-1.722,2.563,2.563,0,0,0-1.378-1.309,4.6,4.6,0,0,0-2.066-.413c-.827,0-2-.069-3.513-.069h-.62v7.439h1.1c1.515,0,2.549,0,3.168-.069a4.66,4.66,0,0,0,1.86-.482,2.831,2.831,0,0,0,1.446-1.378A4.5,4.5,0,0,0,77.938,37.119Zm2.2,14.258a4.006,4.006,0,0,0-.689-2.549,3.614,3.614,0,0,0-2-1.378,6.143,6.143,0,0,0-2.2-.344c-.964,0-2.2-.069-3.788-.069H69.81v8.748h.482c2.273,0,3.857,0,4.753-.069a7.609,7.609,0,0,0,2.686-.62,3.142,3.142,0,0,0,1.722-1.515A3.5,3.5,0,0,0,80.142,51.377Z" transform="translate(-61.2 -27.2)" fill="#3961ad"/>
          <path id="Path_2" data-name="Path 2" d="M121.1,66.465c-4.959,0-8.817-1.171-11.5-3.582s-4-5.786-4-10.194q0-6.509,3.719-10.332c2.48-2.549,5.924-3.857,10.4-3.857,4.064,0,7.095,1.1,9.161,3.306s3.031,5.3,3.031,9.368v2.962H113.866a7.881,7.881,0,0,0,.758,3.1,6.039,6.039,0,0,0,1.722,2,6.733,6.733,0,0,0,2.48,1.033,14.728,14.728,0,0,0,3.1.344,12.679,12.679,0,0,0,2.824-.344,13.814,13.814,0,0,0,2.549-.827,11.754,11.754,0,0,0,1.86-.964,16.253,16.253,0,0,0,1.378-.9h.9V64.4c-.689.276-1.309.482-1.86.758a15.467,15.467,0,0,1-2.273.689c-.9.207-1.791.413-2.755.551C123.646,66.4,122.475,66.465,121.1,66.465Zm2.755-17.289a6.562,6.562,0,0,0-1.24-4A4.364,4.364,0,0,0,119.1,43.8a5.087,5.087,0,0,0-3.788,1.446,6.336,6.336,0,0,0-1.515,3.926Z" transform="translate(-75.018 -30.717)" fill="#3961ad"/>
          <path id="Path_3" data-name="Path 3" d="M162.7,66.465c-4.959,0-8.817-1.171-11.5-3.582S147.2,57.1,147.2,52.689q0-6.509,3.719-10.332c2.48-2.549,5.924-3.857,10.4-3.857,4.064,0,7.095,1.1,9.161,3.306s3.031,5.3,3.031,9.368v2.962H155.466a7.88,7.88,0,0,0,.758,3.1,6.039,6.039,0,0,0,1.722,2,6.733,6.733,0,0,0,2.48,1.033,14.728,14.728,0,0,0,3.1.344,12.678,12.678,0,0,0,2.824-.344,13.814,13.814,0,0,0,2.549-.827,11.757,11.757,0,0,0,1.86-.964,16.257,16.257,0,0,0,1.378-.9h.9V64.4c-.689.276-1.309.482-1.86.758a15.468,15.468,0,0,1-2.273.689c-.9.207-1.791.413-2.755.551C165.246,66.4,164.075,66.465,162.7,66.465Zm2.755-17.289a6.562,6.562,0,0,0-1.24-4A4.364,4.364,0,0,0,160.7,43.8a5.087,5.087,0,0,0-3.788,1.446,6.336,6.336,0,0,0-1.515,3.926Z" transform="translate(-87.964 -30.717)" fill="#3961ad"/>
        </g>
        <g id="Group_2" data-name="Group 2" transform="translate(88.786 1.378)">
          <path id="Path_4" data-name="Path 4" d="M219.718,64.26H210.9V48.693H198.917V64.26H190.1V29.2h8.817V42.012H210.9V29.2h8.817Z" transform="translate(-190.1 -29.2)" fill="#5dab46"/>
          <path id="Path_5" data-name="Path 5" d="M266.165,41.7,252.8,77.862h-8.885l3.995-10.332L238.2,41.7h8.679l5.579,16.6,5.235-16.6Z" transform="translate(-205.069 -33.09)" fill="#5dab46"/>
          <path id="Path_6" data-name="Path 6" d="M306.565,41.7,297.06,68.15h-9.023L278.6,41.7h8.679l5.442,17.5,5.372-17.5Z" transform="translate(-217.642 -33.09)" fill="#5dab46"/>
        </g>
      </g>
      <g id="Layer_2" transform="translate(2.2 1.7)">
        <path id="Path_7" data-name="Path 7" d="M5.5,67.822,13.9,63l8.334,4.822v9.712l-8.4,4.753L5.5,77.465Z" transform="translate(-3.227 -20.777)" fill="#5dab46"/>
        <path id="Path_8" data-name="Path 8" d="M2.544,38.051,9.432,34.4l6.544,4.2-.344,7.715L8.744,49.9,2.2,45.765Z" transform="translate(-2.2 -11.876)" fill="#5dab46"/>
        <path id="Path_9" data-name="Path 9" d="M18.376,17.086,23.541,14.4,28.5,17.5l-.276,5.855-5.166,2.686-4.959-3.1Z" transform="translate(-7.148 -5.652)" fill="#5dab46"/>
        <path id="Path_10" data-name="Path 10" d="M43.2,5.473,46.782,3.2l3.719,2,.207,4.271-3.651,2.2-3.719-2Z" transform="translate(-14.959 -2.167)" fill="#5dab46"/>
        <path id="Path_11" data-name="Path 11" d="M67.2,3.422,70.024,1.7l2.962,1.653.069,3.306L70.162,8.381,67.2,6.728Z" transform="translate(-22.428 -1.7)" fill="#5dab46"/>
      </g>
      <g id="Layer_3" transform="translate(209.94 12.996)">
        <path id="Path_12" data-name="Path 12" d="M347.34,31.394l-7.714,5.855-8.886-3.719-1.24-9.574,7.715-5.855,8.885,3.719Z" transform="translate(-311.798 -18.1)" fill="#3961ad"/>
        <path id="Path_13" data-name="Path 13" d="M359.327,59.876l-6.2,4.684L345.964,61.6,345,53.884l6.2-4.684,7.095,3.031Z" transform="translate(-316.622 -27.778)" fill="#3961ad"/>
        <path id="Path_14" data-name="Path 14" d="M351.514,85.528,346.9,89.041l-5.442-2.273-.758-5.786,4.684-3.582,5.373,2.273Z" transform="translate(-315.283 -36.554)" fill="#3961ad"/>
        <path id="Path_15" data-name="Path 15" d="M331.652,104.055l-3.375,2.617-3.926-1.653-.551-4.2,3.444-2.617,3.857,1.653Z" transform="translate(-310.024 -43.028)" fill="#3961ad"/>
        <path id="Path_16" data-name="Path 16" d="M309.93,112.915l-2.686,2-3.031-1.309L303.8,110.3l2.617-2,3.1,1.24Z" transform="translate(-303.8 -46.171)" fill="#3961ad"/>
      </g>
    </g>
  </g>
</svg>
