<svg xmlns="http://www.w3.org/2000/svg" viewBox="0 0 30 30"><g><path d="M19.12,21.91V18.34A1.41,1.41,0,0,0,17.87,17h-1v-.39a.47.47,0,0,0-.47-.46H13.67a.47.47,0,0,0-.46.46v.39h-.83A1.41,1.41,0,0,0,11,18.34v7.31a1.41,1.41,0,0,0,1.41,1.4h5.33a1.41,1.41,0,0,0,1.41-1.4h0c-.72.06-1.43.09-2.14.11a1.76,1.76,0,0,1-.29-3.5h0Zm2.46-.46c-.32-.45-1.11-1.51-1.18-1.6l.1,1.82Zm4.86.81c0,1.25-1,1.89-2,2.4a15.31,15.31,0,0,1-3.75.83l.15,2.8H9.15l.38-6.91L7.58,28.29H3.5C4,25.92,4.56,23.54,5.23,21.2a18.45,18.45,0,0,1,2.12-5.32C9,13.46,11.73,13,14.48,13h1.07a9.73,9.73,0,0,1,5.57,1.28C22.82,15.45,26.44,20.64,26.44,22.26ZM15,11.73a5.22,5.22,0,1,1,5.24-5.22A5.23,5.23,0,0,1,15,11.73Z" fill="#64a3c8" fill-rule="evenodd"/></g></svg>