<svg width="30" height="30" viewBox="0 0 30 30" fill="none" xmlns="http://www.w3.org/2000/svg">
<path fill-rule="evenodd" clip-rule="evenodd" d="M28 15C28 22.1797 22.1797 28 15 28C7.8203 28 2 22.1797 2 15C2 7.8203 7.8203 2 15 2C22.1797 2 28 7.8203 28 15ZM13 15.1429V20.8571C13 22.0406 13.8954 23 15 23C16.1046 23 17 22.0406 17 20.8571V15.1429C17 13.9594 16.1046 13 15 13C13.8954 13 13 13.9594 13 15.1429ZM15 11C16.1046 11 17 10.1046 17 9C17 7.89543 16.1046 7 15 7C13.8954 7 13 7.89543 13 9C13 10.1046 13.8954 11 15 11Z" fill="#333333"/>
<mask id="mask0_0_15255" style="mask-type:luminance" maskUnits="userSpaceOnUse" x="2" y="2" width="26" height="26">
<path fill-rule="evenodd" clip-rule="evenodd" d="M28 15C28 22.1797 22.1797 28 15 28C7.8203 28 2 22.1797 2 15C2 7.8203 7.8203 2 15 2C22.1797 2 28 7.8203 28 15ZM13 15.1429V20.8571C13 22.0406 13.8954 23 15 23C16.1046 23 17 22.0406 17 20.8571V15.1429C17 13.9594 16.1046 13 15 13C13.8954 13 13 13.9594 13 15.1429ZM15 11C16.1046 11 17 10.1046 17 9C17 7.89543 16.1046 7 15 7C13.8954 7 13 7.89543 13 9C13 10.1046 13.8954 11 15 11Z" fill="white"/>
</mask>
<g mask="url(#mask0_0_15255)">
</g>
</svg>
