<svg width="30" height="31" viewBox="0 0 30 31" fill="none" xmlns="http://www.w3.org/2000/svg">
<path fill-rule="evenodd" clip-rule="evenodd" d="M22.9226 1.13712L27.7562 4.63484C28.2139 4.96565 27.9844 5.70103 27.4227 5.70103H26.4291V11.3488C26.4291 11.7072 26.141 12 25.7894 12H24.3051C23.9535 12 23.6654 11.7072 23.6654 11.3488V10.1287V9.47661C23.6654 8.82088 23.1437 8.28868 22.4999 8.28868C21.8562 8.28868 21.3345 8.82088 21.3345 9.47661V10.1287V11.3488C21.3345 11.7072 21.0468 12 20.6952 12H19.1297C18.7781 12 18.4904 11.7072 18.4904 11.3488V5.70103H17.5776C17.0159 5.70103 16.7859 4.96565 17.2437 4.63484L22.0777 1.13712C22.3308 0.954293 22.6695 0.954293 22.9226 1.13712ZM4.4957 17.0263C6.0057 17.0263 7.2287 15.8023 7.2287 14.2933C7.2287 12.7843 6.0057 11.5603 4.4957 11.5603C2.9867 11.5603 1.7637 12.7843 1.7637 14.2933C1.7637 15.8023 2.9867 17.0263 4.4957 17.0263ZM20.191 22.9491L20.2128 22.9221C20.3148 22.7959 20.4183 22.6679 20.507 22.5251L23.029 18.5081L25.642 22.4051C25.83 22.6851 26.108 22.8581 26.408 22.9491H20.191ZM27.748 22.9491H27.21L27.231 22.9427C27.3552 22.9049 27.4804 22.8668 27.593 22.7911C28.239 22.3581 28.412 21.4841 27.979 20.8391L24.168 15.1531C24.136 15.1071 24.097 15.0551 24.06 15.0121C23.553 14.4321 22.673 14.3731 22.093 14.8791L21.929 15.0231L19.377 17.2501C18.77 16.0281 17.671 14.9221 15.929 14.9221C13.104 14.9221 10.609 16.7881 9.537 17.7881L10.69 19.1501H14.691C16.207 19.1501 17.441 20.3841 17.441 21.9001C17.441 22.2751 17.349 22.6251 17.212 22.9491H15.33C15.688 22.7291 15.941 22.3511 15.941 21.9001C15.941 21.2101 15.38 20.6501 14.691 20.6501H9.995L7.726 17.9711C7.479 17.6791 7.127 17.5291 6.772 17.5291C6.486 17.5291 6.2 17.6271 5.964 17.8251C5.437 18.2711 5.373 19.0591 5.818 19.5871L8.461 22.7081C8.544 22.8041 8.642 22.8821 8.748 22.9491H3.5V19.8591C3.5 19.1691 2.941 18.6091 2.25 18.6091C1.56 18.6091 1 19.1691 1 19.8591V29.5921C1 30.2821 1.56 30.8421 2.25 30.8421C2.941 30.8421 3.5 30.2821 3.5 29.5921V26.8951H26.498V29.5921C26.498 30.2821 27.058 30.8421 27.748 30.8421C28.439 30.8421 28.998 30.2821 28.998 29.5921V24.1991C28.998 23.5091 28.439 22.9491 27.748 22.9491Z" fill="#F47963"/>
<mask id="mask0_1661_20429" style="mask-type:luminance" maskUnits="userSpaceOnUse" x="1" y="11" width="28" height="20">
<path fill-rule="evenodd" clip-rule="evenodd" d="M7.2287 14.2933C7.2287 15.8023 6.0057 17.0263 4.4957 17.0263C2.9867 17.0263 1.7637 15.8023 1.7637 14.2933C1.7637 12.7843 2.9867 11.5603 4.4957 11.5603C6.0057 11.5603 7.2287 12.7843 7.2287 14.2933ZM20.2128 22.9221C20.2055 22.9311 20.1983 22.9401 20.191 22.9491H26.408C26.108 22.8581 25.83 22.6851 25.642 22.4051L23.029 18.5081L20.507 22.5251C20.4183 22.6679 20.3148 22.7959 20.2128 22.9221ZM27.21 22.9491H27.748C28.439 22.9491 28.998 23.5091 28.998 24.1991V29.5921C28.998 30.2821 28.439 30.8421 27.748 30.8421C27.058 30.8421 26.498 30.2821 26.498 29.5921V26.8951H3.5V29.5921C3.5 30.2821 2.941 30.8421 2.25 30.8421C1.56 30.8421 1 30.2821 1 29.5921V19.8591C1 19.1691 1.56 18.6091 2.25 18.6091C2.941 18.6091 3.5 19.1691 3.5 19.8591V22.9491H8.748C8.642 22.8821 8.544 22.8041 8.461 22.7081L5.818 19.5871C5.373 19.0591 5.437 18.2711 5.964 17.8251C6.2 17.6271 6.486 17.5291 6.772 17.5291C7.127 17.5291 7.479 17.6791 7.726 17.9711L9.995 20.6501H14.691C15.38 20.6501 15.941 21.2101 15.941 21.9001C15.941 22.3511 15.688 22.7291 15.33 22.9491H17.212C17.349 22.6251 17.441 22.2751 17.441 21.9001C17.441 20.3841 16.207 19.1501 14.691 19.1501H10.69L9.537 17.7881C10.609 16.7881 13.104 14.9221 15.929 14.9221C17.671 14.9221 18.77 16.0281 19.377 17.2501L21.929 15.0231L22.093 14.8791C22.673 14.3731 23.553 14.4321 24.06 15.0121C24.097 15.0551 24.136 15.1071 24.168 15.1531L27.979 20.8391C28.412 21.4841 28.239 22.3581 27.593 22.7911C27.4804 22.8668 27.3552 22.9049 27.231 22.9427C27.224 22.9448 27.217 22.947 27.21 22.9491Z" fill="white"/>
</mask>
<g mask="url(#mask0_1661_20429)">
</g>
</svg>
