<svg width="31" height="30" viewBox="0 0 31 30" fill="none" xmlns="http://www.w3.org/2000/svg">
<path fill-rule="evenodd" clip-rule="evenodd" d="M13.3128 5.92903C13.3128 8.22103 11.4558 10.078 9.16485 10.078C6.87285 10.078 5.01585 8.22103 5.01585 5.92903C5.01585 3.63803 6.87285 1.78003 9.16485 1.78003C11.4558 1.78003 13.3128 3.63803 13.3128 5.92903ZM16.3041 16.1635C16.5491 16.8305 16.7311 17.5045 16.9031 18.1785C17.0651 18.8475 17.1871 19.5295 17.3071 20.2065C17.4401 20.9575 16.9391 21.6755 16.1871 21.8095C15.4601 21.9385 14.7641 21.4725 14.5991 20.7615L14.5861 20.7005C14.5703 20.6317 14.5546 20.5629 14.5388 20.494C14.4182 19.967 14.2971 19.438 14.1361 18.9215C13.9561 18.3435 13.7691 17.7685 13.5361 17.2225C13.5331 17.2156 13.5299 17.2089 13.5267 17.2022C13.5224 17.1932 13.5181 17.1842 13.5141 17.1745H13.4701V27.9295C13.4701 28.8845 12.6971 29.6585 11.7421 29.6585C10.8011 29.6585 10.0391 28.9065 10.0171 27.9705V23.7815C10.0171 23.3075 9.63615 22.9245 9.16515 22.9175C8.69215 22.9245 8.31115 23.3075 8.31115 23.7815V27.9705C8.29015 28.9065 7.52815 29.6585 6.58715 29.6585C5.63215 29.6585 4.85815 28.8845 4.85815 27.9295V17.1745H4.81415C4.81108 17.182 4.80781 17.1891 4.80461 17.196C4.80051 17.2049 4.79651 17.2135 4.79315 17.2225C4.55915 17.7685 4.37315 18.3435 4.19315 18.9215C4.03218 19.438 3.91111 19.967 3.7905 20.494C3.77474 20.5629 3.75898 20.6318 3.74315 20.7005L3.72915 20.7615C3.56415 21.4725 2.86915 21.9385 2.14115 21.8095C1.38915 21.6755 0.888146 20.9575 1.02115 20.2065C1.14115 19.5295 1.26315 18.8475 1.42515 18.1785C1.59715 17.5045 1.78015 16.8305 2.02415 16.1635C2.40315 15.1285 2.80215 14.0765 3.45015 13.1745C4.17415 12.1665 5.14015 11.6045 6.34415 11.3335C7.21715 11.1375 8.11915 11.0645 9.01215 11.0645H9.31615C10.2101 11.0645 11.1111 11.1375 11.9841 11.3335C13.1881 11.6045 14.1541 12.1665 14.8791 13.1745C15.5261 14.0765 15.9251 15.1285 16.3041 16.1635Z" fill="#64A3C8"/>
<path fill-rule="evenodd" clip-rule="evenodd" d="M17.4627 2.98573L16.9197 3.52874C16.7091 3.73937 16.3681 3.73937 16.158 3.52874C15.9473 3.31811 15.9473 2.97765 16.158 2.76702L18.7674 0.157569C18.9775 -0.052523 19.3185 -0.052523 19.5291 0.157569C19.7392 0.367661 19.7392 0.709195 19.5291 0.919287L18.9861 1.46229L20.9933 3.46948L19.4693 4.99346L17.4627 2.98573ZM18.4648 7.2299L23.2301 2.46458C23.4407 2.25395 23.7823 2.25395 23.9929 2.46458C24.203 2.67467 24.203 3.01567 23.9929 3.2263L23.2856 3.93253L28.0267 8.67361C28.5261 9.17298 28.5584 9.95517 28.1366 10.4987L28.4458 10.8079C28.6817 11.0433 28.6817 11.4247 28.4458 11.6607L28.3391 11.7673L29.8949 13.3231C30.0527 13.4809 30.0527 13.7363 29.8949 13.8941C29.737 14.052 29.4812 14.052 29.3233 13.8941L27.7676 12.3389L27.6609 12.4456C27.426 12.681 27.0441 12.681 26.8081 12.4456L26.4989 12.1364C25.9554 12.5582 25.1732 12.5253 24.6738 12.0265L19.9333 7.28538L19.2265 7.99215C19.0159 8.20224 18.6749 8.20224 18.4648 7.99215C18.2542 7.78206 18.2542 7.44053 18.4648 7.2299ZM23.937 5.88924L23.2248 6.60086C23.067 6.75869 22.8111 6.75869 22.6532 6.60086C22.4954 6.44302 22.4954 6.18767 22.6532 6.02984L23.3649 5.31768C23.5227 5.15984 23.7791 5.15984 23.937 5.31768C24.0943 5.47498 24.0943 5.7314 23.937 5.88924ZM24.2202 7.59684L24.9329 6.88522C25.0908 6.72738 25.0908 6.4715 24.9329 6.31366C24.7751 6.15582 24.5192 6.15582 24.3614 6.31366L23.6492 7.02528C23.4919 7.18312 23.4919 7.439 23.6492 7.59684C23.8071 7.75468 24.0629 7.75468 24.2202 7.59684ZM25.9285 7.8808L25.2169 8.5935C25.0591 8.7508 24.8026 8.7508 24.6453 8.5935C24.4875 8.43566 24.4875 8.17924 24.6453 8.0214L25.3575 7.30978C25.5153 7.15194 25.7707 7.15194 25.9285 7.30978C26.0864 7.46762 26.0864 7.72296 25.9285 7.8808ZM26.2129 9.58895L26.9245 8.87679C27.0823 8.71949 27.0823 8.46307 26.9245 8.30523C26.7672 8.14793 26.5108 8.14793 26.3529 8.30523L25.6413 9.01793C25.4835 9.17577 25.4835 9.43111 25.6413 9.58895C25.7992 9.74678 26.055 9.74678 26.2129 9.58895Z" fill="#64A3C8"/>
<mask id="mask0_1119_19642" style="mask-type:alpha" maskUnits="userSpaceOnUse" x="0" y="1" width="18" height="29">
<path fill-rule="evenodd" clip-rule="evenodd" d="M13.3128 5.92903C13.3128 8.22103 11.4558 10.078 9.16485 10.078C6.87285 10.078 5.01585 8.22103 5.01585 5.92903C5.01585 3.63803 6.87285 1.78003 9.16485 1.78003C11.4558 1.78003 13.3128 3.63803 13.3128 5.92903ZM16.3041 16.1635C16.5491 16.8305 16.7311 17.5045 16.9031 18.1785C17.0651 18.8475 17.1871 19.5295 17.3071 20.2065C17.4401 20.9575 16.9391 21.6755 16.1871 21.8095C15.4601 21.9385 14.7641 21.4725 14.5991 20.7615L14.5861 20.7005C14.5703 20.6317 14.5546 20.5629 14.5388 20.494C14.4182 19.967 14.2971 19.438 14.1361 18.9215C13.9561 18.3435 13.7691 17.7685 13.5361 17.2225C13.5331 17.2156 13.5299 17.2089 13.5267 17.2022C13.5224 17.1932 13.5181 17.1842 13.5141 17.1745H13.4701V27.9295C13.4701 28.8845 12.6971 29.6585 11.7421 29.6585C10.8011 29.6585 10.0391 28.9065 10.0171 27.9705V23.7815C10.0171 23.3075 9.63615 22.9245 9.16515 22.9175C8.69215 22.9245 8.31115 23.3075 8.31115 23.7815V27.9705C8.29015 28.9065 7.52815 29.6585 6.58715 29.6585C5.63215 29.6585 4.85815 28.8845 4.85815 27.9295V17.1745H4.81415C4.81108 17.182 4.80781 17.1891 4.80461 17.196C4.80051 17.2049 4.79651 17.2135 4.79315 17.2225C4.55915 17.7685 4.37315 18.3435 4.19315 18.9215C4.03218 19.438 3.91111 19.967 3.7905 20.494C3.77474 20.5629 3.75898 20.6317 3.74315 20.7005L3.72915 20.7615C3.56415 21.4725 2.86915 21.9385 2.14115 21.8095C1.38915 21.6755 0.888146 20.9575 1.02115 20.2065C1.14115 19.5295 1.26315 18.8475 1.42515 18.1785C1.59715 17.5045 1.78015 16.8305 2.02415 16.1635C2.40315 15.1285 2.80215 14.0765 3.45015 13.1745C4.17415 12.1665 5.14015 11.6045 6.34415 11.3335C7.21715 11.1375 8.11915 11.0645 9.01215 11.0645H9.31615C10.2101 11.0645 11.1111 11.1375 11.9841 11.3335C13.1881 11.6045 14.1541 12.1665 14.8791 13.1745C15.5261 14.0765 15.9251 15.1285 16.3041 16.1635Z" fill="white"/>
</mask>
<g mask="url(#mask0_1119_19642)">
<rect width="30" height="30" fill="#64A3C8"/>
</g>
</svg>
