<svg width="30" height="30" viewBox="0 0 30 30" fill="none" xmlns="http://www.w3.org/2000/svg">
<path d="M24.5702 25.8587C24.7908 26.3269 24.9028 26.8283 24.9028 27.3488C24.9028 27.5021 24.8429 27.6463 24.7346 27.7546C24.6263 27.8628 24.4822 27.9228 24.3284 27.9228L13.1674 27.923C12.1306 27.923 11.1153 27.5024 10.382 26.7689L7.28869 23.6756C7.07824 23.4651 6.85135 23.2701 6.61434 23.0951C5.58715 22.3339 4.31707 21.9151 3.03922 21.9151H1.00025L1 13.1953H9.84666C11.185 13.1953 12.4616 13.6152 13.5391 14.4092C13.7898 14.5941 14.0281 14.799 14.2474 15.0183L18.0486 18.8195C18.1574 18.9278 18.2171 19.072 18.2171 19.2252C18.2171 19.3785 18.1571 19.5227 18.0486 19.6315L17.9573 19.7225C17.6654 20.0147 17.3288 20.2502 16.9567 20.4229C16.4885 20.6404 15.9879 20.7454 15.4903 20.7454C14.5792 20.7457 13.6792 20.3915 13.0099 19.7222L11.7141 18.4269C11.4991 18.2119 11.2138 18.0938 10.91 18.0938H10.2321C9.88426 18.0938 9.66749 18.3186 9.58025 18.5293C9.49323 18.7398 9.48792 19.0519 9.73328 19.2975L13.8722 23.4364C14.1353 23.6995 14.4998 23.8508 14.8719 23.8508H21.4042C21.8135 23.8508 22.2144 23.9208 22.5961 24.0597C23.4586 24.3721 24.1783 25.028 24.5698 25.8586L24.5702 25.8587Z" fill="#F27964"/>
<path d="M29 7.10927C29 8.20705 28.5726 9.23909 27.796 10.0148L22.3704 15.441C22.251 15.5604 22.0924 15.6259 21.9242 15.6259C21.7557 15.6259 21.5969 15.5604 21.478 15.441L16.0518 10.0148C15.6248 9.58813 15.3043 9.08627 15.099 8.52401C14.7623 7.60484 14.7646 6.59306 15.1058 5.67537C15.3122 5.12016 15.6306 4.62461 16.052 4.20325C16.8286 3.4275 17.8606 3 18.9576 3C20.0554 3 21.0874 3.42748 21.8634 4.20325L21.9246 4.26421L21.9851 4.20325C22.6898 3.49932 23.6239 3.07537 24.616 3.00958C25.799 2.93016 26.9582 3.36522 27.7962 4.20325C28.5727 4.97952 29 6.01183 29 7.10934L29 7.10927Z" fill="#F27964"/>
</svg>
