<svg width="30" height="30" viewBox="0 0 30 30" fill="none" xmlns="http://www.w3.org/2000/svg">
<path fill-rule="evenodd" clip-rule="evenodd" d="M3.67851 14.3677C4.84877 13.0383 6.62483 11.5154 8.9047 10.4788C7.70999 11.8082 6.98265 13.5689 6.98265 15.5C6.98265 17.4311 7.70999 19.1918 8.9047 20.5212C6.62483 19.4846 4.84877 17.9617 3.67851 16.6323C3.10138 15.9768 3.10138 15.0232 3.67851 14.3677ZM2.74494 13.5401C4.86749 11.1289 8.90177 8.05794 14.3456 8.00081C14.3826 8.00025 14.4196 8 14.4566 8H14.4747H14.5C20.022 8 24.1125 11.1063 26.2551 13.5401C27.2483 14.6684 27.2483 16.3316 26.2551 17.4599C24.1125 19.8937 20.022 23 14.5 23H14.4747H14.4566C14.4196 23 14.3826 22.9997 14.3456 22.9992C8.90177 22.9421 4.86749 19.8711 2.74494 17.4599C1.75169 16.3316 1.75168 14.6684 2.74494 13.5401ZM14.4743 9.25C14.4365 9.25012 14.3988 9.25031 14.3611 9.25075C10.9653 9.30194 8.22831 12.0802 8.22831 15.5C8.22831 18.9198 10.9653 21.6981 14.3611 21.7492C14.3988 21.7497 14.4365 21.7499 14.4743 21.75C17.906 21.7404 20.6849 18.9459 20.6849 15.5C20.6849 12.0541 17.906 9.25956 14.4743 9.25ZM21.9306 15.5C21.9306 17.4631 21.179 19.2499 19.9489 20.5868C22.2992 19.5496 24.1263 17.99 25.3215 16.6323C25.8986 15.9768 25.8986 15.0232 25.3215 14.3677C24.1263 13.01 22.2992 11.4504 19.9489 10.4133C21.179 11.7501 21.9306 13.5369 21.9306 15.5ZM14.5 19.25C16.5638 19.25 18.2369 17.5711 18.2369 15.5C18.2369 14.9211 18.1062 14.3728 17.8728 13.8833C17.6473 14.1098 17.3356 14.25 16.9913 14.25C16.3034 14.25 15.7457 13.6904 15.7457 13C15.7457 12.6545 15.8854 12.3418 16.1112 12.1155C15.6233 11.8812 15.0769 11.75 14.5 11.75C12.4361 11.75 10.763 13.4289 10.763 15.5C10.763 17.5711 12.4361 19.25 14.5 19.25Z" fill="#64692D"/>
</svg>
