<svg width="30" height="30" viewBox="0 0 30 30" fill="none" xmlns="http://www.w3.org/2000/svg">
<path fill-rule="evenodd" clip-rule="evenodd" d="M12.8974 13.3347C13.2691 14.3769 12.7258 15.526 11.6796 15.8989C10.638 16.2705 9.48864 15.7245 9.11693 14.6823C8.74489 13.6373 9.29031 12.4887 10.3319 12.1178C11.3787 11.7441 12.5246 12.2892 12.8974 13.3347ZM20.2694 17.4452C20.2694 17.4452 20.6908 18.0338 20.8409 18.6054C20.9914 19.1811 20.7601 19.9779 19.9929 20.2511L14.6643 22.151L14.7232 26.7355C14.7478 27.2213 14.3642 27.9445 13.5123 27.9989C12.9176 28.0285 12.3899 27.5046 12.3686 26.776L12.3268 21.5794C12.2055 21.0118 12.5355 20.5086 12.9498 20.2436L16.2538 18.4471C16.2538 18.4471 15.9055 18.0781 15.0281 16.8205L14.9632 17.665C14.9378 17.98 14.7547 18.2607 14.4753 18.4079L11.148 20.1708C11.0451 20.2248 10.937 20.258 10.8284 20.2713C10.4601 20.3166 10.0853 20.1354 9.90149 19.7875C9.66309 19.3376 9.83486 18.7794 10.2848 18.541L13.1643 17.0163L13.401 13.9701C13.4015 13.9581 13.4042 13.9466 13.4068 13.9349C13.4086 13.9271 13.4104 13.9192 13.4116 13.911C13.4116 13.9107 13.4113 13.9103 13.4111 13.91C13.4109 13.9097 13.4107 13.9094 13.4107 13.909C13.4109 13.9085 13.4111 13.908 13.4114 13.9074C13.412 13.9064 13.4125 13.9053 13.4128 13.904C13.4759 13.4927 13.8021 13.1773 14.2063 13.127C14.9541 12.8809 15.9709 13.1768 16.4268 13.4747C18.246 14.3784 20.2694 17.4452 20.2694 17.4452Z" fill="#C1882B"/>
<path fill-rule="evenodd" clip-rule="evenodd" d="M13.4049 2.51713C14.3609 1.82762 15.6405 1.82762 16.5964 2.51713L26.9725 10.0136C28.9014 11.4061 27.9343 14.5 25.5677 14.5H24.6261V25.392C24.6261 26.8319 23.472 28 22.0614 28H21.7814C21.1235 28 20.5901 27.4572 20.5901 26.7876C20.5901 26.1181 21.1235 25.5753 21.7814 25.5753H22.0614C22.1604 25.5753 22.2434 25.4883 22.2434 25.392V13.2876C22.2434 12.6181 22.7768 12.0753 23.4347 12.0753H25.5677C25.5791 12.0753 25.5866 12.0744 25.5908 12.0737C25.5928 12.0733 25.5954 12.0727 25.5954 12.0727C25.5981 12.0697 25.6055 12.0605 25.611 12.043C25.6165 12.0256 25.6157 12.0137 25.6151 12.0096L25.6121 12.0063C25.6091 12.0033 25.6036 11.9982 25.5944 11.9916L15.2186 4.49537C15.0882 4.40142 14.9135 4.40125 14.783 4.49516L4.40652 11.9912C4.39732 11.9978 4.39127 12.0033 4.38836 12.0062L4.38551 12.0093C4.38497 12.0135 4.38426 12.0253 4.38966 12.0425C4.39528 12.0604 4.40293 12.0697 4.40568 12.0726C4.40568 12.0726 4.4083 12.0733 4.41052 12.0737C4.4147 12.0744 4.42221 12.0753 4.43363 12.0753H6.39311C7.05106 12.0753 7.58444 12.6181 7.58444 13.2876V25.392C7.58444 25.4894 7.66757 25.5753 7.76552 25.5753H9.126C9.78395 25.5753 10.3173 26.1181 10.3173 26.7876C10.3173 27.4572 9.78395 28 9.126 28H7.76552C6.35382 28 5.20179 26.8308 5.20179 25.392V14.5H4.43363C2.0694 14.5 1.09644 11.4079 3.02733 10.014L13.4049 2.51713Z" fill="#C1882B"/>
</svg>
