<?xml version="1.0" encoding="UTF-8"?>
<svg width="30px" height="30px" viewBox="0 0 30 30" version="1.1" xmlns="http://www.w3.org/2000/svg" xmlns:xlink="http://www.w3.org/1999/xlink">
    <title>icon/03 forms/mRDT-negative</title>
    <defs>
        <polygon id="path-1" points="0 28.7990605 8.73396053 28.7990605 8.73396053 0.000152631579 0 0.000152631579"></polygon>
    </defs>
    <g id="icon/03-forms/mRDT-negative" stroke="none" stroke-width="1" fill="none" fill-rule="evenodd">
        <g id="Group-7" transform="translate(15.500000, 15.500000) scale(-1, 1) rotate(45.000000) translate(-15.500000, -15.500000) translate(11.000000, 1.000000)">
            <path d="M4.36659868,8.99606711 C5.59070395,8.99606711 6.60226974,8.09783026 6.78580921,6.92561974 L1.94776974,6.92561974 C2.13130921,8.09783026 3.14249342,8.99606711 4.36659868,8.99606711" id="Fill-1" fill="#76B0B0"></path>
            <mask id="mask-2" fill="white">
                <use xlink:href="#path-1"></use>
            </mask>
            <g id="Clip-4"></g>
            <polygon id="Fill-3" fill="#76B0B0" mask="url(#mask-2)" points="2.73553947 23.4283368 5.99765789 23.4283368 5.99765789 13.1653895 2.73553947 13.1653895"></polygon>
            <path d="M4.36659868,4.09220526 C3.14249342,4.09220526 2.13130921,4.99006053 1.94776974,6.16265263 L6.78580921,6.16265263 C6.60226974,4.99006053 5.59070395,4.09220526 4.36659868,4.09220526" id="Fill-5" fill="#76B0B0" mask="url(#mask-2)"></path>
            <path d="M4.36678947,9.72625658 C2.60961842,9.72625658 1.18480263,8.30144079 1.18480263,6.54426974 C1.18480263,4.78671711 2.60961842,3.36190132 4.36678947,3.36190132 C6.12434211,3.36190132 7.54877632,4.78671711 7.54877632,6.54426974 C7.54877632,8.30144079 6.12434211,9.72625658 4.36678947,9.72625658 L4.36678947,9.72625658 Z M1.90369737,24.2609803 L6.83064474,24.2609803 L6.83064474,12.3324408 L1.90369737,12.3324408 L1.90369737,24.2609803 Z M7.4675,-0.000190789474 L1.26684211,-0.000190789474 C0.567026316,-0.000190789474 0,0.567217105 0,1.26665132 L0,27.5322566 C0,28.2320724 0.567026316,28.7990987 1.26684211,28.7990987 L7.4675,28.7990987 C8.16693421,28.7990987 8.73396053,28.2320724 8.73396053,27.5322566 L8.73396053,1.26665132 C8.73396053,0.567217105 8.16693421,-0.000190789474 7.4675,-0.000190789474 L7.4675,-0.000190789474 Z" id="Fill-6" fill="#76B0B0" mask="url(#mask-2)"></path>
        </g>
    </g>
</svg>