<svg xmlns="http://www.w3.org/2000/svg" viewBox="0 0 30 30"><g><path d="M16.91,11.23V10H15.64V8.8H14.36V10H13.09v1.22h1.27v1.22h1.28V11.23ZM22.4,16.3a1.16,1.16,0,0,1-.59,1.53,1,1,0,0,1-.45.1,1.15,1.15,0,0,1-1.05-.7l-2.5-5.84,3,14.61H18l-.16,3a1,1,0,0,1-2.08,0l-.16-3H14.36l-.16,3a1,1,0,0,1-2.08,0L12,26H9.23l3-14.61-2.5,5.84a1.15,1.15,0,0,1-1,.7,1,1,0,0,1-.45-.1A1.16,1.16,0,0,1,7.6,16.3c.16-.37.32-.75.47-1.12l3-7a2.94,2.94,0,0,1,1.11-1.48,4.77,4.77,0,0,1,2.56-.57h.54a4.77,4.77,0,0,1,2.56.57A2.94,2.94,0,0,1,18.94,8.2l3,7C22.08,15.55,22.25,15.93,22.4,16.3ZM15,5.46a2.7,2.7,0,0,1-2.68-2.73,2.68,2.68,0,1,1,5.36,0A2.7,2.7,0,0,1,15,5.46Z" fill="#64a3c8" fill-rule="evenodd"/></g></svg>