<svg xmlns="http://www.w3.org/2000/svg" viewBox="0 0 30 30"><g><path d="M13.69,1.31v.87h.87v.87h.88V2.18h.87V1.31h-.87V.44h-.88v.87Zm3,12.74V13H15.55V12h-1.1v1H13.34v1h1.11v1h1.1v-1ZM15,3.41a3.73,3.73,0,0,0-2.89,1.35L10.51,2a6.92,6.92,0,0,1,4.41-2h.16a6.92,6.92,0,0,1,4.41,2L17.91,4.76A3.73,3.73,0,0,0,15,3.41h0Zm6.44,15a1,1,0,0,1-.52,1.3.88.88,0,0,1-.39.08,1,1,0,0,1-.91-.59l-2.16-5L20,26.6H17.64l-.15,2.55a.9.9,0,0,1-.85.85.89.89,0,0,1-.94-.85l-.15-2.55h-1.1l-.15,2.55a.89.89,0,0,1-.94.85.9.9,0,0,1-.85-.85l-.15-2.55H10l2.56-12.41-2.16,5a1,1,0,0,1-.91.59.88.88,0,0,1-.39-.08,1,1,0,0,1-.52-1.3L9,17.41l1.36-3.12,1.23-2.81a2.51,2.51,0,0,1,1-1.26,4.18,4.18,0,0,1,2.22-.48h.46a4.18,4.18,0,0,1,2.22.48,2.59,2.59,0,0,1,1,1.26c.4.94.81,1.87,1.22,2.81L21,17.41ZM12.67,6.83A2.33,2.33,0,1,1,15,9.15,2.33,2.33,0,0,1,12.67,6.83Z" fill="#64a3c8" fill-rule="evenodd"/></g></svg>