<svg width="30" height="30" viewBox="0 0 30 30" fill="none" xmlns="http://www.w3.org/2000/svg">
<path fill-rule="evenodd" clip-rule="evenodd" d="M19.5681 10.3107C19.5681 12.6897 17.6371 14.6207 15.2574 14.6207C12.8777 14.6207 10.9474 12.6897 10.9474 10.3107C10.9474 7.93101 12.8777 6 15.2574 6C17.6371 6 19.5681 7.93101 19.5681 10.3107ZM22.2808 17.5897C22.5699 18.1193 22.7916 18.6884 22.9278 19.277C23.1306 20.1555 23.1699 21.2413 22.8998 22.113C22.6826 22.8114 22.072 23.3729 21.3978 23.618C21.0248 23.7535 20.6275 23.8095 20.2318 23.8095H15.2431H10.2536C9.85865 23.8095 9.4614 23.7535 9.08837 23.618C8.41342 23.3729 7.80355 22.8114 7.58639 22.113C7.31626 21.2413 7.3556 20.1555 7.55839 19.277C7.69383 18.6884 7.91629 18.1193 8.20534 17.5897C8.91887 16.2859 10.1356 15.1245 11.6868 15.0238C12.6765 15.7752 13.9083 16.2231 15.2431 16.2262C16.5771 16.2231 17.8097 15.7752 18.7994 15.0238C20.3498 15.1245 21.5665 16.2859 22.2808 17.5897Z" fill="#64A3C8"/>
<path fill-rule="evenodd" clip-rule="evenodd" d="M23.799 18.1066H27.0563C27.3253 18.1066 27.5954 18.0685 27.849 17.9764C28.3073 17.8098 28.7224 17.4281 28.87 16.9533C29.0536 16.3608 29.0269 15.6227 28.889 15.0255C28.7964 14.6253 28.6457 14.2385 28.4492 13.8784C27.9637 12.9922 27.1366 12.2026 26.0826 12.1342C25.4098 12.645 24.5719 12.9495 23.6651 12.9515C22.7577 12.9495 21.9203 12.645 21.2475 12.1342C20.919 12.1555 20.6126 12.2468 20.3317 12.3892C20.1011 12.9511 19.7798 13.4662 19.3861 13.9165C21.2357 14.2477 22.5652 15.6697 23.3086 17.0266L23.3095 17.0283C23.4976 17.3729 23.6622 17.7336 23.799 18.1066ZM22.536 18.1066C22.4583 17.9306 22.3731 17.7581 22.2811 17.5895C21.5668 16.2858 20.3501 15.1243 18.7997 15.0237C18.666 15.1252 18.5278 15.2212 18.3856 15.3112C18.3 15.8472 18.3049 16.4523 18.4602 16.9533C18.6078 17.4281 19.0224 17.8098 19.4812 17.9764C19.7348 18.0685 20.0048 18.1066 20.2733 18.1066H22.536ZM23.6747 11.8602C25.2924 11.8602 26.605 10.5476 26.605 8.93037C26.605 7.31267 25.2924 6 23.6747 6C22.057 6 20.7448 7.31267 20.7448 8.93037C20.7448 10.5476 22.057 11.8602 23.6747 11.8602Z" fill="#64A3C8"/>
<path fill-rule="evenodd" clip-rule="evenodd" d="M10.4819 13.003C10.021 12.5244 9.43423 12.1784 8.75255 12.1342C8.07975 12.645 7.24184 12.9495 6.33501 12.9515C5.42766 12.9495 4.59026 12.645 3.91746 12.1342C2.863 12.2026 2.0359 12.9922 1.55084 13.8784C1.35435 14.2385 1.20313 14.6253 1.11106 15.0255C0.973206 15.6227 0.946458 16.3608 1.13009 16.9533C1.27771 17.4281 1.6923 17.8098 2.15111 17.9764C2.4047 18.0685 2.67474 18.1066 2.94325 18.1066H6.33501H6.68695C6.82399 17.7332 6.98887 17.3726 7.17676 17.0283L7.17745 17.027C7.92372 15.6635 9.26199 14.2347 11.1254 13.912C10.8816 13.6325 10.6656 13.3281 10.4819 13.003ZM11.561 15.0342C10.0697 15.1875 8.89936 16.3212 8.20521 17.5895C8.11321 17.7581 8.02797 17.9306 7.95012 18.1066H9.72625C9.99527 18.1066 10.2653 18.0685 10.5189 17.9764C10.9772 17.8098 11.3923 17.4281 11.5399 16.9533C11.7227 16.3637 11.6971 15.6298 11.561 15.0342ZM6.34459 11.8602C7.96229 11.8602 9.27496 10.5476 9.27496 8.93037C9.27496 7.31267 7.96229 6 6.34459 6C4.7269 6 3.41474 7.31267 3.41474 8.93037C3.41474 10.5476 4.7269 11.8602 6.34459 11.8602Z" fill="#64A3C8"/>
</svg>
