<svg width="30" height="30" viewBox="0 0 30 30" fill="none" xmlns="http://www.w3.org/2000/svg">
<path d="M15.0187 7.42074C16.7921 7.42074 18.2291 5.98372 18.2291 4.21037C18.2291 2.43702 16.7921 1 15.0187 1C13.2454 1 11.8083 2.43702 11.8083 4.21037C11.8083 5.98372 13.2454 7.42074 15.0187 7.42074Z" fill="#994B3D"/>
<path d="M22.8458 15.2783C22.7541 15.1254 20.6444 11.487 19.6354 9.98885C18.5347 8.36838 16.2722 8.12378 15.0186 8.12378C13.7651 8.12378 11.5025 8.36838 10.4018 9.98885C9.39283 11.487 7.28316 15.1254 7.19144 15.2783C6.79396 15.9815 7.03856 16.8682 7.71121 17.2657C7.95581 17.388 8.20041 17.4491 8.44501 17.4491C8.93421 17.4491 9.42341 17.2045 9.69858 16.7153C9.69858 16.6848 10.6158 15.1254 11.5331 13.6273L11.5025 17.8772L10.1878 28.1809C10.0655 29.0676 10.7076 29.8626 11.5942 29.9849C12.4809 30.1072 13.2759 29.4651 13.3982 28.5784L14.6211 18.7639H15.3244L16.5474 28.5784C16.6391 29.4039 17.3423 29.9849 18.1373 29.9849C18.1984 29.9849 18.2596 29.9849 18.3513 29.9849C19.238 29.8626 19.88 29.0676 19.7577 28.1809L18.443 17.8772L18.4124 13.6273C19.2991 15.1254 20.2164 16.6848 20.2469 16.7153C20.6444 17.4186 21.5311 17.6326 22.2343 17.2351C22.9987 16.8682 23.2433 15.9815 22.8458 15.2783ZM16.3333 9.9277C16.6085 9.9277 16.8225 10.1417 16.8225 10.4169C16.8225 10.6921 16.6085 10.9061 16.3333 10.9061C16.0582 10.9061 15.8441 10.6921 15.8441 10.4169C15.8441 10.1417 16.0582 9.9277 16.3333 9.9277ZM13.8262 9.98885C14.1014 9.98885 14.3154 10.2029 14.3154 10.4781C14.3154 10.7532 14.1014 10.9672 13.8262 10.9672C13.551 10.9672 13.337 10.7532 13.337 10.4781C13.337 10.2029 13.551 9.98885 13.8262 9.98885ZM13.0007 11.9762C13.2759 11.9762 13.4899 12.1902 13.4899 12.4654C13.4899 12.7406 13.2759 12.9546 13.0007 12.9546C12.7255 12.9546 12.5115 12.7406 12.5115 12.4654C12.5115 12.1902 12.7255 11.9762 13.0007 11.9762ZM13.0924 16.3179C12.8172 16.3179 12.6032 16.1038 12.6032 15.8287C12.6032 15.5535 12.8172 15.3395 13.0924 15.3395C13.3676 15.3395 13.5816 15.5535 13.5816 15.8287C13.5816 16.1038 13.3676 16.3179 13.0924 16.3179ZM14.0096 14.5751C13.7345 14.5751 13.5205 14.3611 13.5205 14.0859C13.5205 13.8107 13.7345 13.5967 14.0096 13.5967C14.2848 13.5967 14.4988 13.8107 14.4988 14.0859C14.4988 14.3611 14.2848 14.5751 14.0096 14.5751ZM15.0186 16.8071C14.7434 16.8071 14.5294 16.593 14.5294 16.3179C14.5294 16.0427 14.7434 15.8287 15.0186 15.8287C15.2938 15.8287 15.5078 16.0427 15.5078 16.3179C15.5078 16.593 15.2938 16.8071 15.0186 16.8071ZM15.1103 12.5266C14.8352 12.5266 14.6211 12.3125 14.6211 12.0374C14.6211 11.7622 14.8352 11.5482 15.1103 11.5482C15.3855 11.5482 15.5995 11.7622 15.5995 12.0374C15.5995 12.3125 15.3855 12.5266 15.1103 12.5266ZM15.6301 14.0247C15.6301 13.7496 15.8441 13.5355 16.1193 13.5355C16.3945 13.5355 16.6085 13.7496 16.6085 14.0247C16.6085 14.2999 16.3945 14.5139 16.1193 14.5139C15.8441 14.5139 15.6301 14.2999 15.6301 14.0247ZM16.9448 16.2567C16.6697 16.2567 16.4556 16.0427 16.4556 15.7675C16.4556 15.4923 16.6697 15.2783 16.9448 15.2783C17.22 15.2783 17.434 15.4923 17.434 15.7675C17.4035 16.0427 17.1894 16.2567 16.9448 16.2567ZM17.22 12.9546C16.9448 12.9546 16.7308 12.7406 16.7308 12.4654C16.7308 12.1902 16.9448 11.9762 17.22 11.9762C17.4952 11.9762 17.7092 12.1902 17.7092 12.4654C17.7092 12.7406 17.4952 12.9546 17.22 12.9546Z" fill="#994B3D"/>
<path d="M22.5 7C23.3284 7 24 6.38496 24 5.62626C24 4.42424 22.5 3 22.5 3C22.5 3 21 4.42424 21 5.62626C21 6.38496 21.6716 7 22.5 7Z" fill="#994B3D"/>
<path d="M27 10.6263C27 11.3849 26.3284 12 25.5 12C24.6716 12 24 11.3849 24 10.6263C24 10.1145 24.2719 9.56247 24.5841 9.09727L24.6101 9.05887C24.6361 9.02087 24.6622 8.98347 24.6886 8.94673C25.0828 8.39607 25.5 8 25.5 8C25.5 8 25.9946 8.46967 26.4158 9.09727C26.4301 9.11853 26.4443 9.14 26.4585 9.16167C26.7524 9.61293 27 10.1379 27 10.6263Z" fill="#994B3D"/>
</svg>
