<?xml version="1.0" encoding="UTF-8"?>
<svg width="29px" height="29px" viewBox="0 0 29 29" version="1.1" xmlns="http://www.w3.org/2000/svg" xmlns:xlink="http://www.w3.org/1999/xlink">
    <!-- Generator: Sketch 64 (93537) - https://sketch.com -->
    <title>icon-warning-ambre</title>
    <desc>Created with Sketch.</desc>
    <g id="Page-2" stroke="none" stroke-width="1" fill="none" fill-rule="evenodd">
        <g id="icon-warning-ambre">
            <rect id="Rectangle" fill="#E9AA22" x="0" y="0" width="28.8799993" height="28.8799993" rx="5.41499986"></rect>
            <path d="M16.3524791,24.4728799 C16.8619814,23.9709899 17.1474996,23.2722802 17.1474996,22.5563488 C17.1474996,21.8477982 16.8619814,21.1466283 16.3524791,20.6447382 C15.8528223,20.140388 15.1562564,19.8549995 14.4399996,19.8549995 C13.7262042,19.8549995 13.0247156,20.140388 12.5225974,20.6447382 C12.0180179,21.1466283 11.7324997,21.8477982 11.7324997,22.5563488 C11.7324997,23.2722802 12.0180179,23.9709899 12.5225974,24.4728799 C13.0247156,24.9772302 13.7262042,25.2699994 14.4399996,25.2699994 C15.1562564,25.2699994 15.8528223,24.9772302 16.3524791,24.4728799 Z" id="path-1-path-copy" fill="#FFFFFF" fill-rule="nonzero"></path>
            <path d="M13.9885975,5.41499986 C12.1074581,5.41499986 11.6313803,6.97458727 11.7493465,7.90659295 L12.8847711,17.7277785 C12.9311149,18.6621259 13.4914543,18.9524995 13.9885975,18.9524995 C14.4330773,18.9524995 15.0545063,18.6152914 15.092424,17.7277785 L16.2278486,7.90659295 C16.3458148,6.99800449 15.8823762,5.41499986 13.9885975,5.41499986 Z" id="path-1-path-copy-2" fill="#FFFFFF" fill-rule="nonzero"></path>
        </g>
    </g>
</svg>
