<svg xmlns="http://www.w3.org/2000/svg" viewBox="0 0 30 30"><g><path d="M29.15,19.28l-6.77-4.8a1,1,0,0,0-1.19,0l-6.77,4.8a.81.81,0,0,0,.47,1.47h1.28v7.76a.89.89,0,0,0,.9.89h2.19a.89.89,0,0,0,.89-.89V25.94a1.64,1.64,0,1,1,3.27,0v2.57a.89.89,0,0,0,.89.89h2.08a.89.89,0,0,0,.9-.89V20.75h1.39A.81.81,0,0,0,29.15,19.28Z" fill="#c1882b"/><path d="M13.78,11.87,7.86,7.67a.9.9,0,0,0-1,0L.9,11.87a.71.71,0,0,0,.4,1.29H2.42V20a.79.79,0,0,0,.79.78H5.13A.78.78,0,0,0,5.91,20V17.7a1.43,1.43,0,0,1,2.86,0V20a.78.78,0,0,0,.78.78h1.82a.79.79,0,0,0,.79-.78V13.16h1.21A.71.71,0,0,0,13.78,11.87Z" fill="#c1882b"/><path d="M15.62,5.26h.87v5.31a.62.62,0,0,0,.62.62h1.5a.61.61,0,0,0,.61-.62V8.81a1.12,1.12,0,1,1,2.24,0v1.76a.62.62,0,0,0,.61.62H23.5a.61.61,0,0,0,.61-.62V5.26h1a.56.56,0,0,0,.32-1L20.75,1a.71.71,0,0,0-.81,0L15.3,4.25A.56.56,0,0,0,15.62,5.26Z" fill="#c1882b"/></g></svg>