<svg width="30" height="30" viewBox="0 0 30 30" fill="none" xmlns="http://www.w3.org/2000/svg">
<path fill-rule="evenodd" clip-rule="evenodd" d="M11.1964 6.33637C11.1964 7.62709 10.1348 8.67274 8.82516 8.67274C7.5155 8.67274 6.45391 7.62709 6.45391 6.33637C6.45391 5.04531 7.5155 4 8.82516 4C10.1348 4 11.1964 5.04531 11.1964 6.33637ZM13.1233 11.8719L14.8484 18.6204C14.9847 19.1533 14.6565 19.6939 14.1159 19.8282C14.0331 19.8487 13.95 19.8584 13.8682 19.8584C13.4169 19.8584 13.0052 19.5579 12.8901 19.1065L11.6945 14.4298V18.6038C11.6953 18.6092 11.6967 18.6144 11.6981 18.6197C11.6996 18.6258 11.7012 18.6319 11.7019 18.6383C11.704 18.6549 11.706 18.6771 11.707 18.694L12.4101 28.7594C12.4546 29.3992 11.9645 29.9537 11.3152 29.9974C10.6831 30.0405 10.1328 29.5809 10.0631 28.9664L9.00051 19.4591H8.62488L7.56194 28.9664C7.49059 29.6035 6.90863 30.0634 6.26171 29.9931C5.63196 29.9248 5.17286 29.3766 5.21527 28.7594L5.91806 18.694C5.919 18.68 5.92186 18.6667 5.92471 18.6533C5.92695 18.6429 5.92918 18.6325 5.93051 18.6217V14.4298L4.73529 19.1065C4.61985 19.5576 4.20854 19.8584 3.75684 19.8584C3.67505 19.8584 3.59225 19.8487 3.50945 19.8282C2.96856 19.6939 2.64038 19.1533 2.7767 18.6204L4.5017 11.8719C4.52897 11.7655 4.57643 11.67 4.63331 11.5817C5.15098 10.3076 6.42395 9.32562 7.6545 9.32562H8.80024L8.82515 9.40422V9.32562H9.97055C11.2018 9.32562 12.4747 10.3083 12.9921 11.5831C13.049 11.6709 13.0961 11.7658 13.1233 11.8719Z" fill="#70A2A0"/>
<mask id="mask0_1255_20123" style="mask-type:alpha" maskUnits="userSpaceOnUse" x="15" y="0" width="15" height="15">
<path fill-rule="evenodd" clip-rule="evenodd" d="M15.5693 2.38286V8.98125C15.5693 10.2973 16.6192 11.3641 17.9144 11.3641H20.142L20.0788 13.8293C20.043 14.1015 20.1784 14.3675 20.418 14.4945C20.5182 14.5484 20.6296 14.5761 20.7428 14.5752C20.953 14.5733 21.1539 14.487 21.3021 14.3353L24.2691 11.3641H27.655C28.9502 11.3641 30 10.2973 30 8.98125V2.38286C30 1.06676 28.9502 0 27.655 0H17.9144C16.6192 0 15.5693 1.06676 15.5693 2.38286" fill="white"/>
</mask>
<g mask="url(#mask0_1255_20123)">
<rect x="12.9177" y="-2.65186" width="19.8875" height="19.8875" fill="#70A2A0"/>
</g>
</svg>
