<svg xmlns="http://www.w3.org/2000/svg" viewBox="0 0 30 30"><g><path d="M12.24,15.32a1,1,0,0,1,.94.65L14,18.13l2.35-6.88a1,1,0,0,1,1.9.05l1.41,4.85.09-.22a1,1,0,0,1,.92-.6h6.16a8.14,8.14,0,0,0-1.05-7.81A6.29,6.29,0,0,0,18.18,6a7.56,7.56,0,0,0-3.29,3s0,0,0,0a7.56,7.56,0,0,0-3.29-3A6.28,6.28,0,0,0,4,7.52,8.09,8.09,0,0,0,3,15.32Z" fill="#64a3c8"/><path d="M21.31,17.33l-.94,2.15a1,1,0,0,1-1,.59,1,1,0,0,1-.89-.72L17.2,14.9,15,21.41a1,1,0,0,1-.93.68h0a1,1,0,0,1-.93-.65l-1.55-4.12H3.93c.14.23.3.46.46.68,2.5,3.36,9.74,9,9.74,9a1.05,1.05,0,0,0,1.51,0s7.24-5.67,9.74-9c.16-.22.32-.44.46-.67Z" fill="#64a3c8"/></g></svg>