<svg xmlns="http://www.w3.org/2000/svg" viewBox="0 0 30 30"><g><path d="M20.21,13.31a21.91,21.91,0,0,0-2.5-3.9,12,12,0,0,0-2.87-3.19,3.4,3.4,0,0,0-2.38-.41C11.3,6.06,10.61,7.49,10,8.37L8,11.09l0,0a1,1,0,0,0,.18,1.34l3.6,2.94a1,1,0,0,0,1.17.05c-.24.95-3.65,10.61-3.69,10.74h3.91L13.31,29a1,1,0,0,0,2,0l.15-2.78H19c0-.25-.35-5.17-.32-5.74s.65-.91,1-1.25a5.41,5.41,0,0,0,1-1.41,4.28,4.28,0,0,0,.36-1.49A6.23,6.23,0,0,0,20.21,13.31Zm-10-1.73,2.1-2.4c.14.66.3,1.32.45,2A11.14,11.14,0,0,1,13.15,14a1.58,1.58,0,0,0-.12-.15Z" fill="#f47963"/><path d="M15.89,5.51a2.72,2.72,0,0,0,2.69-2.73,2.69,2.69,0,1,0-5.37,0A2.71,2.71,0,0,0,15.89,5.51Z" fill="#f47963"/></g></svg>