<svg xmlns="http://www.w3.org/2000/svg" viewBox="0 0 30 30"><g><path d="M22,16.83c-.2-.78-1.28-5-1.63-6.38A6.66,6.66,0,0,0,19.1,7.5a3.84,3.84,0,0,0-2.49-1.36H13.47A3.84,3.84,0,0,0,11,7.5a6.66,6.66,0,0,0-1.27,2.95c-.35,1.34-1.43,5.6-1.63,6.38a1.15,1.15,0,0,0,.84,1.39,1.43,1.43,0,0,0,.29,0,1.14,1.14,0,0,0,1.12-.86L11.71,12v4.82s-.83,11.67-.83,11.67a1.36,1.36,0,0,0,2.71.24l1.22-10.95h.46l1.22,11a1.36,1.36,0,0,0,2.71-.24s-.82-11.64-.83-11.67V12l1.38,5.38a1.14,1.14,0,0,0,1.12.86,1.43,1.43,0,0,0,.29,0A1.15,1.15,0,0,0,22,16.83Zm-5-5.58h-1.3v1.2H14.38v-1.2h-1.3v-1.2h1.3V8.86h1.29v1.19H17Z" fill="#64a3c8" fill-rule="evenodd"/><path d="M15,5.38a2.71,2.71,0,0,0,2.73-2.69,2.73,2.73,0,0,0-5.46,0A2.71,2.71,0,0,0,15,5.38Z" fill="#64a3c8" fill-rule="evenodd"/></g></svg>