<svg width="30" height="30" viewBox="0 0 30 30" fill="none" xmlns="http://www.w3.org/2000/svg">
<path fill-rule="evenodd" clip-rule="evenodd" d="M16.3484 9.66334C15.4362 11.2423 13.4168 11.7828 11.8379 10.8706C10.259 9.95846 9.71845 7.93905 10.6306 6.36012C11.5428 4.78119 13.5622 4.24067 15.1411 5.15283C16.7201 6.065 17.2606 8.08441 16.3484 9.66334ZM14.8166 9.24771C14.6612 9.41454 14.4 9.42381 14.2333 9.26846L12.1831 7.35912C12.0163 7.20381 12.007 6.94264 12.1623 6.77585C12.3177 6.60908 12.5788 6.59975 12.7456 6.7551L14.7958 8.66443C14.9626 8.81975 14.9719 9.08093 14.8166 9.24771Z" fill="#DA2E1E"/>
<path d="M8.31658 2.75731C8.40143 2.07622 7.6595 1.57395 7.05477 1.9031L2.32545 4.47698C1.77989 4.7739 1.75496 5.54093 2.27933 5.89591L6.34513 8.64833C6.86949 9.0033 7.57652 8.69805 7.65308 8.08362L8.31658 2.75731Z" fill="#DA2E1E"/>
<path fill-rule="evenodd" clip-rule="evenodd" d="M9.36825 16.2882C10.7306 16.4077 11.932 15.4002 12.0515 14.0378C12.1711 12.6755 11.1636 11.4742 9.80123 11.3546L4.86767 10.9216C3.50527 10.8021 2.30396 11.8095 2.18437 13.1719C2.06484 14.5343 3.07229 15.7356 4.43469 15.8552L9.36825 16.2882ZM7.35504 15.2829L9.44039 15.4659C10.3486 15.5456 11.1495 14.8739 11.2292 13.9657C11.309 13.0574 10.6373 12.2566 9.72906 12.1768L7.64371 11.9938L7.35504 15.2829Z" fill="#DA2E1E"/>
<path d="M26.8975 4.34789C27.3744 4.1172 27.885 4 28.4152 4C28.5713 4 28.7182 4.0627 28.8284 4.17593C28.9387 4.28916 28.9997 4.43996 28.9997 4.6008L29 16.2741C29 17.3585 28.5716 18.4204 27.8245 19.1874L24.674 22.4227C24.4597 22.6428 24.261 22.8801 24.0828 23.128C23.3076 24.2023 22.881 25.5307 22.881 26.8672L22.881 28.9997L14 29L14 19.7473C14 18.3475 14.4277 17.0123 15.2363 15.8853C15.4246 15.6231 15.6333 15.3739 15.8567 15.1445L19.7282 11.1688C19.8384 11.055 19.9853 10.9926 20.1414 10.9926C20.2975 10.9926 20.4444 11.0553 20.5551 11.1688L20.6479 11.2643C20.9454 11.5696 21.1853 11.9217 21.3612 12.3109C21.5828 12.8006 21.6897 13.3241 21.6897 13.8445C21.6899 14.7974 21.3293 15.7388 20.6476 16.4388L19.3283 17.7941C19.1093 18.019 18.989 18.3174 18.989 18.6351L18.989 19.3442C18.989 19.7079 19.218 19.9347 19.4326 20.0259C19.647 20.1169 19.9649 20.1225 20.215 19.8658L24.4305 15.5369C24.6984 15.2618 24.8524 14.8806 24.8524 14.4914L24.8524 7.65917C24.8524 7.23112 24.9238 6.81178 25.0652 6.4126C25.3834 5.51049 26.0514 4.75778 26.8974 4.34831L26.8975 4.34789Z" fill="#E0381F"/>
</svg>
