<svg xmlns="http://www.w3.org/2000/svg" viewBox="0 0 30 30"><g><path d="M4.34,13.73H16a2.19,2.19,0,0,0,2.19-2.19V4.66A2.19,2.19,0,0,0,16,2.47H4.34A2.19,2.19,0,0,0,2.16,4.66v6.88A2.19,2.19,0,0,0,4.34,13.73ZM15.85,4.19a1,1,0,1,1-1,1A1,1,0,0,1,15.85,4.19Zm0,2.95a1,1,0,1,1-1,1A1,1,0,0,1,15.85,7.14Zm0,3a1,1,0,1,1-1,.95A1,1,0,0,1,15.85,10.09ZM13,4.19a1,1,0,1,1-1,1A1,1,0,0,1,13,4.19Zm0,2.95a1,1,0,1,1-1,1A1,1,0,0,1,13,7.14Zm0,3a1,1,0,1,1-1,.95A1,1,0,0,1,13,10.09Zm-2.8-5.9a1,1,0,1,1-1,1A1,1,0,0,1,10.24,4.19Zm0,2.95a1,1,0,1,1-1,1A1,1,0,0,1,10.24,7.14Zm0,3a1,1,0,1,1-1,.95A1,1,0,0,1,10.24,10.09ZM7.43,4.19a1,1,0,1,1-1,1A1,1,0,0,1,7.43,4.19Zm0,2.95a1,1,0,1,1-1,1A1,1,0,0,1,7.43,7.14Zm0,3a1,1,0,1,1-1,.95A1,1,0,0,1,7.43,10.09Zm-2.8-5.9a1,1,0,1,1-1,1A1,1,0,0,1,4.63,4.19Zm0,2.95a1,1,0,1,1-1,1A1,1,0,0,1,4.63,7.14Zm0,3a1,1,0,1,1-1,.95A1,1,0,0,1,4.63,10.09Z" fill="#64a3c8"/><path d="M29,13.85a4.15,4.15,0,0,0-.48-2.27,3.42,3.42,0,0,0-.76-.89,3.19,3.19,0,0,0-.44-.31l.12-.68a1,1,0,0,0-2.06-.37l-.08.47a3.43,3.43,0,0,0-1.92.54c-1.92,1.28-1.59,4-2.28,5.92a16,16,0,0,1-2.92,4.44,6.27,6.27,0,0,0-.88.07,3.63,3.63,0,0,0-2.88,2,3.67,3.67,0,0,0,.45,3.48A7.15,7.15,0,0,0,18,28.77a7.48,7.48,0,0,0,3,.66,5.86,5.86,0,0,0,.94-.07,3.63,3.63,0,0,0,2.87-2,3.56,3.56,0,0,0-.32-3.25,21.51,21.51,0,0,0,3.07-4.48A16.54,16.54,0,0,0,29,13.85ZM23,26.55h0a1.79,1.79,0,0,1-1.37.84,5.23,5.23,0,0,1-2.81-.45,5.15,5.15,0,0,1-2.22-1.78,1.76,1.76,0,0,1-.3-1.58,1.75,1.75,0,0,1,1.37-.83,3,3,0,0,1,.61-.05,5.59,5.59,0,0,1,2.2.49A5.15,5.15,0,0,1,22.65,25,1.77,1.77,0,0,1,23,26.55Z" fill="#64a3c8"/><path d="M15.28,18.89a.75.75,0,0,0-.45-1l-4.05-1.49-.09,0a2.18,2.18,0,0,0-2.53,1.44,2.2,2.2,0,0,0-2.53-1.44l-.1,0L1.48,17.93A.75.75,0,0,0,2,19.34l4-1.47c.5-.08.76.3,1.23,1.7v.05a1.07,1.07,0,0,0-.58.89v7.25c0,.63.67,1.13,1.5,1.13s1.5-.5,1.5-1.13V20.51a1.06,1.06,0,0,0-.59-.89l0-.05c.46-1.4.73-1.78,1.23-1.7l4,1.47A.76.76,0,0,0,15.28,18.89Z" fill="#64a3c8"/></g></svg>