<svg xmlns="http://www.w3.org/2000/svg" viewBox="0 0 30 30"><g><path d="M27.79,16.62a7.17,7.17,0,0,0-3.67-3.76,6.67,6.67,0,0,0-1.89-.58,7.14,7.14,0,0,0,.47-2,7.22,7.22,0,0,0-1.45-5.09A6.56,6.56,0,0,0,17,2.65a.54.54,0,0,0-.54.28.53.53,0,0,0,.22.71h0a5.61,5.61,0,0,1,3,6.16,4.8,4.8,0,0,1-.25.81,7.23,7.23,0,0,0-8.82,0,4,4,0,0,1-.25-.76,5.6,5.6,0,0,1,3-6.19h0a.53.53,0,0,0-.32-1A6.5,6.5,0,0,0,8.72,5.22a7.22,7.22,0,0,0-1.4,5.1,7.31,7.31,0,0,0,.46,1.94,7,7,0,0,0-1.89.58,7.19,7.19,0,0,0-3.68,3.78,6.53,6.53,0,0,0,0,4.95.53.53,0,0,0,.51.33.52.52,0,0,0,.5-.55h0A5.63,5.63,0,0,1,7,15.62a4.86,4.86,0,0,1,.82-.19,7.15,7.15,0,0,0,4.48,7.66,4.92,4.92,0,0,1-.57.64,5.63,5.63,0,0,1-6.86.52h0a.53.53,0,0,0-.6,0,.54.54,0,0,0-.1.74,6.6,6.6,0,0,0,4.35,2.4,7.17,7.17,0,0,0,5.09-1.35A6.88,6.88,0,0,0,15,24.73a7,7,0,0,0,1.4,1.32,7.22,7.22,0,0,0,5.09,1.35A6.54,6.54,0,0,0,25.85,25a.53.53,0,0,0-.7-.77h0a5.62,5.62,0,0,1-6.87-.51,3.9,3.9,0,0,1-.58-.64,7.26,7.26,0,0,0,4.57-6.73,7.61,7.61,0,0,0-.07-1,4.75,4.75,0,0,1,.83.19,5.63,5.63,0,0,1,3.82,5.74h0a.53.53,0,0,0,1,.23A6.56,6.56,0,0,0,27.79,16.62ZM15,11.12a5.22,5.22,0,0,1,3.24,1.15,4.69,4.69,0,0,1-6.48,0A5.18,5.18,0,0,1,15,11.12ZM13.13,21.26a5.26,5.26,0,0,1-3.38-4.89,4.78,4.78,0,0,1,.08-.76,4.71,4.71,0,0,1,3.3,5.65ZM15,18a1.65,1.65,0,1,1,1.65-1.65A1.65,1.65,0,0,1,15,18Zm1.85,3.24a4.71,4.71,0,0,1-.14-1.12V20a4.58,4.58,0,0,1,.65-2.22,4.73,4.73,0,0,1,2.81-2.17,5,5,0,0,1,.08.78A5.24,5.24,0,0,1,16.86,21.26Z" fill="#df3a26"/></g></svg>