<svg xmlns="http://www.w3.org/2000/svg" viewBox="0 0 30 30"><g><path d="M22.13,23H9.21V18.56a1.17,1.17,0,0,0-2.34,0v8.22a1.17,1.17,0,1,0,2.34,0v-1.4H21v1.4a1.17,1.17,0,1,0,2.34,0V24.21A1.17,1.17,0,0,0,22.13,23Z" fill="#c2892b"/><path d="M8.08,15.07A16.57,16.57,0,0,0,10,13.19.91.91,0,1,0,8.65,12a13.54,13.54,0,0,1-1.72,1.66.92.92,0,0,0-.13,1.29.9.9,0,0,0,.7.33A1,1,0,0,0,8.08,15.07Z" fill="#c2892b"/><path d="M10.37,11.31a.92.92,0,0,0,.45.12.89.89,0,0,0,.79-.47,10.61,10.61,0,0,0,1-2.37A6.3,6.3,0,0,0,15,9a6.42,6.42,0,0,0,2.37-.43,10.62,10.62,0,0,0,1,2.35.89.89,0,0,0,.79.47.92.92,0,0,0,.45-.12A.91.91,0,0,0,20,10.07,8.28,8.28,0,0,1,19.1,8a1,1,0,0,0-.24-.43,1.54,1.54,0,0,0,.28-.86c0-1.14-1.38-2.09-3.23-2.33V3a.91.91,0,0,0-1.82,0V4.34c-1.83.24-3.19,1.19-3.19,2.32a1.56,1.56,0,0,0,.26.84A1,1,0,0,0,10.9,8,8.28,8.28,0,0,1,10,10.07.91.91,0,0,0,10.37,11.31Z" fill="#c2892b"/><path d="M4.94,15c-.42.24-.86.48-1.31.7a.92.92,0,0,0-.51.82v1.56a.91.91,0,1,0,1.82,0v-1c.32-.17.63-.34.93-.52A.91.91,0,1,0,4.94,15Z" fill="#c2892b"/><path d="M4.94,20.72a.91.91,0,0,0-1.82,0v2.39s0,.09,0,.21a.91.91,0,0,0,.91.9h0A.91.91,0,0,0,5,23.3a2,2,0,0,0,0-.29Z" fill="#c2892b"/><path d="M3.94,25a.9.9,0,0,0-1.22.4A1.89,1.89,0,0,1,2,26.2a.91.91,0,0,0-.3,1.26.9.9,0,0,0,.77.43A.91.91,0,0,0,3,27.76a3.67,3.67,0,0,0,1.36-1.52A.9.9,0,0,0,3.94,25Z" fill="#c2892b"/><path d="M23.07,13.65A13.54,13.54,0,0,1,21.35,12,.91.91,0,0,0,20,13.19a16.57,16.57,0,0,0,2,1.88,1,1,0,0,0,.58.2.9.9,0,0,0,.7-.33A.92.92,0,0,0,23.07,13.65Z" fill="#c2892b"/><path d="M25.06,18.12a.91.91,0,1,0,1.82,0V16.56a.92.92,0,0,0-.51-.82c-.45-.22-.89-.46-1.31-.7a.91.91,0,1,0-.93,1.56c.3.18.61.35.93.52Z" fill="#c2892b"/><path d="M26,24.22a.91.91,0,0,0,.91-.9c0-.12,0-.19,0-.2v-2.4a.91.91,0,0,0-1.82,0V23a2,2,0,0,0,0,.29.91.91,0,0,0,.9.92Z" fill="#c2892b"/><path d="M28,26.2a1.89,1.89,0,0,1-.69-.78.91.91,0,0,0-1.62.82A3.67,3.67,0,0,0,27,27.76a.91.91,0,0,0,.48.13.9.9,0,0,0,.77-.43A.91.91,0,0,0,28,26.2Z" fill="#c2892b"/><path d="M10.9,21.59h11V20.17c0-.76-.36-1.32-1-1.32h-10Z" fill="#c2892b"/></g></svg>