<svg xmlns="http://www.w3.org/2000/svg" viewBox="0 0 30 30"><g><path d="M8.39,11.93A3.24,3.24,0,1,0,5.16,8.7,3.23,3.23,0,0,0,8.39,11.93Z" fill="#e0381f" fill-rule="evenodd"/><path d="M10.76,12.73H6c-2.38-.14-3.33,1.35-3.48,2,0,0-1.61,5.42-1.33,6.67.17.78,1.45,1.73,2.82,2.44L2.15,29.7H15l-1.77-6c1.22-.68,2.29-1.53,2.44-2.24.28-1.27-1.35-6.63-1.35-6.63A3.5,3.5,0,0,0,10.76,12.73Zm2,7.64a6.06,6.06,0,0,1-3.07,1.51,4.51,4.51,0,0,1-1.9.07c-.65-.15-1.47-.65-1.49-1.39a1,1,0,0,1,0-.17,1.88,1.88,0,0,1-.88.22,2,2,0,1,1,2-2,1.55,1.55,0,0,1,0,.31,5.19,5.19,0,0,1,2.25-.59,4.2,4.2,0,0,1,1.82.32,2.76,2.76,0,0,1,1.35,1.24.33.33,0,0,1-.06.47Z" fill="#e0381f" fill-rule="evenodd"/><path d="M28.56,9.23,24,1.34a2.27,2.27,0,0,0-3.94,0l-4.61,8a2.27,2.27,0,0,0,2,3.41h9.24a2.27,2.27,0,0,0,2.25-2.27A2.24,2.24,0,0,0,28.56,9.23ZM22,2.91A1,1,0,0,1,23.1,4l-.54,4.2a.52.52,0,0,1-.52.52.5.5,0,0,1-.53-.52L21,4A1,1,0,0,1,22,2.91Zm.77,8.23a1.1,1.1,0,0,1-.77.32,1.12,1.12,0,0,1-.78-.32,1.11,1.11,0,0,1,0-1.56A1.12,1.12,0,0,1,22,9.26a1.1,1.1,0,0,1,.77,1.88Z" fill="#e0381f" fill-rule="evenodd"/></g></svg>