<svg xmlns="http://www.w3.org/2000/svg" viewBox="0 0 30 30"><g><circle cx="15" cy="4.47" r="4.35" transform="translate(-0.52 2.46) rotate(-9.22)" fill="#79b0b1"/><path d="M19.06,19.86,16.41,23l2.07,2-1.63,2.48a1.55,1.55,0,0,0,2.44,1.9,38.43,38.43,0,0,0,3-3.57,2.69,2.69,0,0,0,0-2.66C21.91,22.46,19,19.87,19.06,19.86Z" fill="#79b0b1"/><path d="M10.94,19.86s-2.85,2.6-3.3,3.28a2.69,2.69,0,0,0,0,2.66,38.43,38.43,0,0,0,3,3.57,1.55,1.55,0,0,0,2.44-1.9L11.52,25l2.07-2Z" fill="#79b0b1"/><path d="M24.39,16.53c-.37-.52-2-2.51-2.38-3s-2.18-3-4.36-3.53a10.09,10.09,0,0,0-2.51-.25h-.28a10.09,10.09,0,0,0-2.51.25c-2.18.55-3.95,3.05-4.36,3.53s-2,2.47-2.38,3a1.33,1.33,0,0,0,1.93,1.81c.35-.28,3.23-2.93,3.42-3.12V18H19V15.22c.19.19,3.07,2.84,3.42,3.12a1.33,1.33,0,0,0,1.93-1.81Z" fill="#79b0b1"/></g></svg>