<svg width="30" height="30" viewBox="0 0 30 30" fill="none" xmlns="http://www.w3.org/2000/svg">
<path fill-rule="evenodd" clip-rule="evenodd" d="M11.5401 11.7782H6.45971C5.98213 11.7782 5.595 11.4394 5.595 11.0214V9.75603C5.595 9.33874 5.98213 9 6.45971 9H11.5401C12.0169 9 12.4048 9.33874 12.4048 9.75603V11.0214C12.4048 11.4386 12.0169 11.7782 11.5401 11.7782ZM13.5953 10.9646V11.0217C13.5953 12.0951 12.6734 12.9685 11.5406 12.9685H6.46021C5.32736 12.9685 4.40554 12.0951 4.40554 11.0217V10.9646H3.8169C2.3104 10.9646 2 12.0586 2 13.4017V26.132C2 27.4766 2.3104 28.5698 3.8169 28.5698L14.1839 28.569C15.6896 28.569 16 27.4758 16 26.132V13.4017C16.0008 12.0586 15.6896 10.9646 14.1839 10.9646H13.5953ZM12.3323 24.359H5.66767C5.33924 24.359 5.07269 24.0925 5.07269 23.764C5.07269 23.4356 5.33924 23.169 5.66767 23.169H12.3323C12.6607 23.169 12.9273 23.4356 12.9273 23.764C12.9273 24.0925 12.6607 24.359 12.3323 24.359ZM5.66767 26.6032H12.3323C12.6607 26.6032 12.9273 26.3367 12.9273 26.0082C12.9273 25.6798 12.6607 25.4133 12.3323 25.4133H5.66767C5.33924 25.4133 5.07269 25.6798 5.07269 26.0082C5.07269 26.3367 5.33924 26.6032 5.66767 26.6032ZM9.00045 14.3737C11.075 14.3737 12.756 16.0254 12.756 18.0626C12.756 20.0998 11.075 21.7523 9.00045 21.7523C6.92594 21.7523 5.24412 20.0998 5.24412 18.0626C5.24412 16.0254 6.92594 14.3737 9.00045 14.3737Z" fill="#983916"/>
<path d="M9.36673 15.3899V15.8328C9.83853 15.9027 10.2031 16.2988 10.246 16.8116C10.246 16.8583 10.246 16.9048 10.2031 16.9282C10.1817 16.9748 10.1388 16.9748 10.0958 16.9748L9.64557 16.9747C9.58124 16.9747 9.51692 16.928 9.49538 16.8581C9.47398 16.7415 9.36673 16.6484 9.23808 16.6484H8.83058C8.61606 16.6484 8.42308 16.8116 8.42308 17.0213C8.40169 17.1379 8.44447 17.2544 8.53033 17.3476C8.59466 17.4407 8.70192 17.4874 8.83056 17.4874H9.17372C9.49534 17.4874 9.81712 17.6272 10.0315 17.9068C10.246 18.1632 10.3531 18.5127 10.3317 18.8624C10.2888 19.3983 9.90282 19.8412 9.38805 19.9577V20.4005C9.38805 20.4937 9.32373 20.5638 9.23786 20.5638H8.78743C8.70172 20.5638 8.63724 20.4939 8.63724 20.4005V19.9577C8.16545 19.8878 7.80087 19.4916 7.75795 18.9789C7.75795 18.9322 7.75795 18.8857 7.80088 18.8623C7.82227 18.8391 7.8652 18.8157 7.90814 18.8157H8.35856C8.42289 18.8157 8.48721 18.8623 8.50876 18.9322C8.53015 19.0488 8.63741 19.1419 8.76605 19.1419H9.17355C9.38807 19.1419 9.55949 18.9787 9.58105 18.769C9.60245 18.6525 9.55966 18.5359 9.4738 18.4427C9.40947 18.3496 9.30221 18.3029 9.17357 18.3029H8.87334C8.2515 18.3029 7.73674 17.8134 7.67244 17.1843C7.60812 16.5318 8.0156 15.9491 8.61607 15.8326V15.3898C8.61607 15.2966 8.6804 15.2266 8.76626 15.2266L9.21669 15.2267C9.30241 15.2267 9.36673 15.2966 9.36673 15.3899Z" fill="#983916"/>
<path d="M23.7947 11.1688C24.0064 10.9602 24.125 10.6699 24.125 10.3724C24.125 10.078 24.0064 9.78669 23.7947 9.57815C23.587 9.36858 23.2976 9.25 23 9.25C22.7034 9.25 22.4119 9.36858 22.2033 9.57815C21.9936 9.78669 21.875 10.078 21.875 10.3724C21.875 10.6699 21.9936 10.9602 22.2033 11.1688C22.4119 11.3784 22.7034 11.5 23 11.5C23.2976 11.5 23.587 11.3784 23.7947 11.1688Z" fill="white"/>
<path d="M22.8124 3.25C22.0308 3.25 21.833 3.89803 21.882 4.28529L22.3538 8.36611C22.373 8.75435 22.6059 8.875 22.8124 8.875C22.9971 8.875 23.2553 8.73489 23.2711 8.36611L23.7429 4.28529C23.7919 3.90776 23.5993 3.25 22.8124 3.25Z" fill="white"/>
<path fill-rule="evenodd" clip-rule="evenodd" d="M23.2497 8.99977V8.24973C23.2497 8.0425 23.4181 7.87471 23.6253 7.87471H24.3747C24.5819 7.87471 24.7497 8.0425 24.7497 8.24973V8.99977C24.7497 9.207 24.5819 9.37479 24.3747 9.37479H23.6253C23.4181 9.37479 23.2497 9.207 23.2497 8.99977ZM20.6252 8.99977V8.24973C20.6252 8.0425 20.793 7.87471 20.9996 7.87471H21.7496C21.9575 7.87471 22.1247 8.0425 22.1247 8.24973V8.99977C22.1247 9.207 21.9575 9.37479 21.7496 9.37479H20.9996C20.793 9.37479 20.6252 9.207 20.6252 8.99977ZM25.8747 6.37471V5.62467C25.8747 5.41744 26.0425 5.24965 26.2497 5.24965H26.9998C27.2064 5.24965 27.3748 5.41744 27.3748 5.62467V6.37471C27.3748 6.58194 27.2064 6.74973 26.9998 6.74973H26.2497C26.0425 6.74973 25.8747 6.58194 25.8747 6.37471ZM23.2497 6.37471V5.62467C23.2497 5.41744 23.4181 5.24965 23.6253 5.24965H24.3747C24.5819 5.24965 24.7497 5.41744 24.7497 5.62467V6.37471C24.7497 6.58194 24.5819 6.74973 24.3747 6.74973H23.6253C23.4181 6.74973 23.2497 6.58194 23.2497 6.37471ZM20.6252 6.37471V5.62467C20.6252 5.41744 20.793 5.24965 20.9996 5.24965H21.7496C21.9575 5.24965 22.1247 5.41744 22.1247 5.62467V6.37471C22.1247 6.58194 21.9575 6.74973 21.7496 6.74973H20.9996C20.793 6.74973 20.6252 6.58194 20.6252 6.37471ZM19.5001 10.5H28.4999V4.12529H19.5001V10.5ZM28.8743 1.50008H28.1249V0.937236C28.1249 0.419471 27.7048 0 27.187 0C26.6693 0 26.2498 0.419471 26.2498 0.937236V1.50008H21.7496V0.937236C21.7496 0.419471 21.3307 0 20.8123 0C20.2946 0 19.8745 0.419471 19.8745 0.937236V1.50008H19.1251C18.5034 1.50008 18 2.00344 18 2.62451V10.8749C18 11.496 18.5034 12 19.1251 12H28.8743C29.4966 12 29.9994 11.496 29.9994 10.8749V2.62451C29.9994 2.00344 29.4966 1.50008 28.8743 1.50008Z" fill="#983916"/>
</svg>
