<?xml version="1.0" encoding="UTF-8"?>
<svg width="30px" height="30px" viewBox="0 0 30 30" version="1.1" xmlns="http://www.w3.org/2000/svg" xmlns:xlink="http://www.w3.org/1999/xlink">
    <title>icon/03 forms/mRDT-positive</title>
    <defs>
        <polygon id="path-1" points="0 28.5507928 8.65866776 28.5507928 8.65866776 0.000151315789 0 0.000151315789"></polygon>
    </defs>
    <g id="icon/03-forms/mRDT-positive" stroke="none" stroke-width="1" fill="none" fill-rule="evenodd">
        <g id="Group-9" transform="translate(15.435029, 15.435029) scale(-1, 1) rotate(45.000000) translate(-15.435029, -15.435029) translate(10.935029, 0.935029)">
            <path d="M6.72753783,6.10945066 C6.56487336,5.07066776 5.74625493,4.25242763 4.70785033,4.08938487 L4.70785033,6.10945066 L6.72753783,6.10945066 Z" id="Fill-1" fill="#E33030"></path>
            <mask id="mask-2" fill="white">
                <use xlink:href="#path-1"></use>
            </mask>
            <g id="Clip-4"></g>
            <polygon id="Fill-3" fill="#E33030" mask="url(#mask-2)" points="2.71233553 23.2263684 5.94633224 23.2263684 5.94633224 13.0518947 2.71233553 13.0518947"></polygon>
            <path d="M4.70769901,8.88601974 C5.74648191,8.72297697 6.56472204,7.90435855 6.72738651,6.86595395 L4.70769901,6.86595395 L4.70769901,8.88601974 Z" id="Fill-5" fill="#E33030" mask="url(#mask-2)"></path>
            <path d="M4.32922039,9.64240954 C2.58719737,9.64240954 1.17466447,8.22987664 1.17466447,6.48785362 C1.17466447,4.7454523 2.58719737,3.33291941 4.32922039,3.33291941 C6.07162171,3.33291941 7.48377632,4.7454523 7.48377632,6.48785362 C7.48377632,8.22987664 6.07162171,9.64240954 4.32922039,9.64240954 L4.32922039,9.64240954 Z M1.88736184,24.0518339 L6.77183553,24.0518339 L6.77183553,12.2261266 L1.88736184,12.2261266 L1.88736184,24.0518339 Z M7.40320066,-0.000189144737 L1.25561842,-0.000189144737 C0.562213816,-0.000189144737 7.56578947e-05,0.562327303 7.56578947e-05,1.25573191 L7.56578947e-05,27.2949095 C7.56578947e-05,27.9886924 0.562213816,28.5508306 1.25561842,28.5508306 L7.40320066,28.5508306 C8.09660526,28.5508306 8.65874342,27.9886924 8.65874342,27.2949095 L8.65874342,1.25573191 C8.65874342,0.562327303 8.09660526,-0.000189144737 7.40320066,-0.000189144737 L7.40320066,-0.000189144737 Z" id="Fill-6" fill="#E33030" mask="url(#mask-2)"></path>
            <path d="M3.95112007,4.08923355 C2.91233717,4.25189803 2.09334046,5.07051645 1.93105428,6.10929934 L3.95112007,6.10929934 L3.95112007,4.08923355 Z" id="Fill-7" fill="#E33030" mask="url(#mask-2)"></path>
            <path d="M1.93094079,6.86602961 C2.09360526,7.9048125 2.91222368,8.72380921 3.95100658,8.88609539 L3.95100658,6.86602961 L1.93094079,6.86602961 Z" id="Fill-8" fill="#E33030" mask="url(#mask-2)"></path>
        </g>
    </g>
</svg>