<svg xmlns="http://www.w3.org/2000/svg" viewBox="0 0 30 30"><g><path d="M15,3.2a1.22,1.22,0,1,0,1.21,1.22A1.22,1.22,0,0,0,15,3.2ZM13.77,7.65v3.24a1.21,1.21,0,1,0,2.42,0V7.65a1.21,1.21,0,0,0-2.42,0ZM15,14.28a6.64,6.64,0,1,1,6.64-6.63A6.64,6.64,0,0,1,15,14.28ZM24.8,29.53H19.74a2.28,2.28,0,1,1,0-4.55h2.78V21.85a2.28,2.28,0,1,1,4.56,0v5.41A2.28,2.28,0,0,1,24.8,29.53Zm-14.58,0H5.16a2.28,2.28,0,0,1-2.28-2.27V21.85a2.28,2.28,0,0,1,4.56,0V25h2.78a2.28,2.28,0,0,1,0,4.55Zm14.4-11a3,3,0,1,1,3-3v0A3,3,0,0,1,24.62,18.53Zm-19.27,0a3,3,0,0,1-3-3v0a3,3,0,1,1,3,3Z" fill="#64a3c8" fill-rule="evenodd"/></g></svg>