<svg width="30" height="30" viewBox="0 0 30 30" fill="none" xmlns="http://www.w3.org/2000/svg">
<rect x="8.91187" y="14.3862" width="13.6139" height="13.6139" rx="6.80693" fill="#C38813"/>
<path d="M16.2939 17.4301V18.1114C17.0827 18.219 17.6923 18.8285 17.7641 19.6174C17.7641 19.6891 17.7641 19.7607 17.6923 19.7967C17.6565 19.8685 17.5847 19.8685 17.5129 19.8685L16.7601 19.8682C16.6526 19.8682 16.545 19.7964 16.509 19.6889C16.4732 19.5096 16.2939 19.3662 16.0788 19.3662H15.3975C15.0388 19.3662 14.7161 19.6174 14.7161 19.94C14.6804 20.1193 14.7519 20.2987 14.8955 20.442C15.003 20.5853 15.1824 20.6571 15.3974 20.6571H15.9712C16.5089 20.6571 17.0469 20.8722 17.4053 21.3023C17.764 21.6968 17.943 22.2345 17.9073 22.7725C17.8355 23.5971 17.1902 24.2784 16.3295 24.4577V25.139C16.3295 25.2824 16.222 25.3902 16.0784 25.3902H15.3253C15.182 25.3902 15.0742 25.2826 15.0742 25.139V24.4577C14.2854 24.3502 13.6758 23.7407 13.6041 22.9518C13.6041 22.88 13.6041 22.8085 13.6758 22.7724C13.7116 22.7367 13.7834 22.7007 13.8552 22.7007H14.6083C14.7158 22.7007 14.8234 22.7724 14.8594 22.88C14.8952 23.0593 15.0745 23.2026 15.2896 23.2026H15.9709C16.3296 23.2026 16.6162 22.9515 16.6522 22.6289C16.688 22.4496 16.6165 22.2702 16.4729 22.1269C16.3654 21.9836 16.186 21.9118 15.9709 21.9118H15.469C14.4293 21.9118 13.5686 21.1587 13.4611 20.1908C13.3536 19.1868 14.0349 18.2904 15.0388 18.1112V17.4298C15.0388 17.2865 15.1464 17.1787 15.2899 17.1787L16.043 17.179C16.1864 17.179 16.2939 17.2865 16.2939 17.4301Z" fill="white"/>
<path d="M14.4155 5.77014V11.5671C14.4155 11.7658 14.5812 11.9315 14.7799 11.9315H16.0388C16.2375 11.9315 16.4031 11.7658 16.4031 11.5671V5.77014H18.4901C18.6558 5.77014 18.7882 5.70382 18.8545 5.53815C18.9208 5.40575 18.9208 5.24007 18.8215 5.10745L15.7407 1.16568C15.6744 1.06632 15.542 1 15.4426 1C15.343 1 15.1773 1.06632 15.1112 1.16568L12.0304 5.14069C11.9311 5.27309 11.9311 5.40572 11.9974 5.57139C12.0637 5.7038 12.1961 5.80339 12.3618 5.80339L14.4155 5.80315L14.4155 5.77014Z" fill="#C38813"/>
<path d="M7.69144 15.0123L8.65196 14.2172C8.81764 14.0848 8.81764 13.8529 8.68501 13.6872L4.97523 9.21534L6.5652 7.89044C6.69761 7.79108 6.73088 7.65844 6.6976 7.493C6.66456 7.32732 6.5652 7.22796 6.39953 7.19492L1.46375 6.13478C1.33135 6.10174 1.23176 6.13478 1.1324 6.2011C1.03304 6.26742 1 6.39982 1 6.53245L1.19872 11.6007C1.19872 11.7663 1.29808 11.8657 1.43071 11.932C1.56311 11.9983 1.72879 11.9651 1.82815 11.8657L3.41812 10.5408L7.12813 14.9796C7.29403 15.1117 7.52579 15.145 7.69146 15.0124L7.69144 15.0123Z" fill="#C38813"/>
<path d="M29.6865 6.20092C29.5872 6.13461 29.4545 6.10156 29.3552 6.10156L24.4194 7.1617C24.2537 7.19474 24.1544 7.2941 24.1213 7.45978C24.0883 7.62545 24.1213 7.75785 24.2537 7.85721L25.8437 9.18212L22.1009 13.6542C21.9685 13.8199 22.0016 14.0516 22.134 14.1843L23.0945 15.0124C23.2602 15.1448 23.4919 15.1118 23.6245 14.9794L27.3678 10.5406L28.9578 11.8655C29.0902 11.9648 29.2228 11.9979 29.3552 11.9318C29.4876 11.8655 29.5872 11.7331 29.5872 11.6005L29.7859 6.5653C29.8192 6.39963 29.7859 6.30028 29.6865 6.20092Z" fill="#C38813"/>
</svg>
