<svg width="30" height="30" viewBox="0 0 30 30" fill="none" xmlns="http://www.w3.org/2000/svg">
<path fill-rule="evenodd" clip-rule="evenodd" d="M23.2497 8.99977V8.24973C23.2497 8.0425 23.4181 7.87471 23.6253 7.87471H24.3747C24.5819 7.87471 24.7497 8.0425 24.7497 8.24973V8.99977C24.7497 9.207 24.5819 9.37479 24.3747 9.37479H23.6253C23.4181 9.37479 23.2497 9.207 23.2497 8.99977ZM20.6252 8.99977V8.24973C20.6252 8.0425 20.793 7.87471 20.9996 7.87471H21.7496C21.9575 7.87471 22.1247 8.0425 22.1247 8.24973V8.99977C22.1247 9.207 21.9575 9.37479 21.7496 9.37479H20.9996C20.793 9.37479 20.6252 9.207 20.6252 8.99977ZM25.8747 6.37471V5.62467C25.8747 5.41744 26.0425 5.24965 26.2497 5.24965H26.9998C27.2064 5.24965 27.3748 5.41744 27.3748 5.62467V6.37471C27.3748 6.58194 27.2064 6.74973 26.9998 6.74973H26.2497C26.0425 6.74973 25.8747 6.58194 25.8747 6.37471ZM23.2497 6.37471V5.62467C23.2497 5.41744 23.4181 5.24965 23.6253 5.24965H24.3747C24.5819 5.24965 24.7497 5.41744 24.7497 5.62467V6.37471C24.7497 6.58194 24.5819 6.74973 24.3747 6.74973H23.6253C23.4181 6.74973 23.2497 6.58194 23.2497 6.37471ZM20.6252 6.37471V5.62467C20.6252 5.41744 20.793 5.24965 20.9996 5.24965H21.7496C21.9575 5.24965 22.1247 5.41744 22.1247 5.62467V6.37471C22.1247 6.58194 21.9575 6.74973 21.7496 6.74973H20.9996C20.793 6.74973 20.6252 6.58194 20.6252 6.37471ZM19.5001 10.5H28.4999V4.12529H19.5001V10.5ZM28.8743 1.50008H28.1249V0.937236C28.1249 0.419471 27.7048 0 27.187 0C26.6693 0 26.2498 0.419471 26.2498 0.937236V1.50008H21.7496V0.937236C21.7496 0.419471 21.3307 0 20.8123 0C20.2946 0 19.8745 0.419471 19.8745 0.937236V1.50008H19.1251C18.5034 1.50008 18 2.00344 18 2.62451V10.8749C18 11.496 18.5034 12 19.1251 12H28.8743C29.4966 12 29.9994 11.496 29.9994 10.8749V2.62451C29.9994 2.00344 29.4966 1.50008 28.8743 1.50008Z" fill="#C2892B"/>
<rect x="4.04614" y="19.293" width="10.7071" height="10.7071" rx="5.35357" fill="#C38813"/>
<path d="M9.85173 21.6867V22.2226C10.4721 22.3071 10.9515 22.7865 11.008 23.407C11.008 23.4634 11.008 23.5197 10.9515 23.548C10.9234 23.6045 10.8669 23.6045 10.8105 23.6045L10.2184 23.6043C10.1338 23.6043 10.0492 23.5478 10.0209 23.4632C9.99276 23.3222 9.85172 23.2095 9.68255 23.2095H9.14669C8.86461 23.2095 8.61083 23.407 8.61083 23.6607C8.5827 23.8018 8.63896 23.9428 8.75188 24.0555C8.83646 24.1682 8.9775 24.2247 9.14667 24.2247H9.59792C10.0208 24.2247 10.444 24.3939 10.7258 24.7322C11.0079 25.0424 11.1488 25.4654 11.1206 25.8885C11.0642 26.537 10.5567 27.0729 9.87976 27.2139V27.7497C9.87976 27.8624 9.79517 27.9472 9.68226 27.9472H9.08996C8.97724 27.9472 8.89246 27.8626 8.89246 27.7497V27.2139C8.27205 27.1293 7.79265 26.6499 7.7362 26.0295C7.7362 25.973 7.7362 25.9167 7.79265 25.8884C7.82078 25.8603 7.87724 25.832 7.93369 25.832H8.526C8.61059 25.832 8.69517 25.8884 8.7235 25.973C8.75163 26.114 8.89267 26.2268 9.06184 26.2268H9.5977C9.87978 26.2268 10.1052 26.0293 10.1336 25.7755C10.1617 25.6345 10.1054 25.4934 9.99251 25.3807C9.90793 25.268 9.76688 25.2115 9.59772 25.2115H9.20292C8.38522 25.2115 7.70831 24.6192 7.62376 23.858C7.53917 23.0684 8.07501 22.3634 8.86462 22.2224V21.6865C8.86462 21.5738 8.94921 21.489 9.06212 21.489L9.65442 21.4892C9.76714 21.4892 9.85173 21.5738 9.85173 21.6867Z" fill="white"/>
<path d="M8.34994 13.9262V17.4823C8.34994 17.6043 8.45652 17.7059 8.58435 17.7059H9.39415C9.52198 17.7059 9.62856 17.6043 9.62856 17.4823V13.9262H10.9711C11.0777 13.9262 11.1628 13.8855 11.2055 13.7839C11.2482 13.7027 11.2482 13.6011 11.1842 13.5197L9.2024 11.1016C9.15974 11.0407 9.07456 11 9.01064 11C8.94658 11 8.84 11.0407 8.79749 11.1016L6.81564 13.5401C6.75173 13.6213 6.75173 13.7027 6.79439 13.8043C6.83705 13.8855 6.92222 13.9466 7.0288 13.9466L8.34994 13.9465L8.34994 13.9262Z" fill="#C38813"/>
<path d="M3.90333 19.8887L4.45522 19.3936C4.55041 19.3112 4.55041 19.1667 4.4742 19.0636L2.34266 16.2792L3.25622 15.4542C3.33229 15.3924 3.35141 15.3098 3.33229 15.2068C3.31331 15.1036 3.25622 15.0418 3.16103 15.0212L0.325054 14.3611C0.24898 14.3405 0.191758 14.3611 0.134669 14.4024C0.0775794 14.4437 0.0585938 14.5261 0.0585938 14.6087L0.172772 17.7644C0.172772 17.8676 0.229861 17.9294 0.306069 17.9707C0.382144 18.012 0.477336 17.9913 0.534426 17.9294L1.44798 17.1045L3.57966 19.8683C3.67498 19.9506 3.80815 19.9713 3.90334 19.8887L3.90333 19.8887Z" fill="#C38813"/>
<path d="M17.8765 14.4148C17.8195 14.3736 17.7433 14.353 17.6862 14.353L14.8506 15.0116C14.7554 15.0322 14.6983 15.0939 14.6794 15.1968C14.6604 15.2997 14.6794 15.382 14.7554 15.4437L15.6689 16.2668L13.5187 19.0451C13.4426 19.148 13.4616 19.292 13.5376 19.3744L14.0894 19.8889C14.1846 19.9711 14.3178 19.9506 14.394 19.8684L16.5444 17.1108L17.4579 17.9339C17.5339 17.9956 17.6101 18.0161 17.6862 17.9751C17.7623 17.9339 17.8195 17.8516 17.8195 17.7692L17.9336 14.6411C17.9527 14.5382 17.9336 14.4765 17.8765 14.4148Z" fill="#C38813"/>
</svg>
