<svg width="30" height="30" viewBox="0 0 30 30" fill="none" xmlns="http://www.w3.org/2000/svg">
<path d="M5 20V25.4444C5 26.3036 5.67155 27 6.5 27C7.32845 27 8 26.3036 8 25.4444V20H5Z" fill="#64A3C8"/>
<path d="M2 16.75V12.25C2 11.0073 2.89543 10 4 10H8V19H5H4C2.89543 19 2 17.9927 2 16.75Z" fill="#64A3C8"/>
<path d="M21 14.4286V13.5714C21 12.1512 20.1046 11 19 11V17C20.1046 17 21 15.8488 21 14.4286Z" fill="#64A3C8"/>
<path d="M10 19.4825V8.51753L16.8823 4.11547C17.3664 3.80579 18 4.15536 18 4.73218V23.2678C18 23.8446 17.3664 24.1942 16.8823 23.8845L10 19.4825Z" fill="#64A3C8"/>
<path fill-rule="evenodd" clip-rule="evenodd" d="M26.2214 10.3181C26.4256 10.6464 26.3428 11.0898 26.0365 11.3086L24.0365 12.7372C23.7302 12.956 23.3163 12.8673 23.1121 12.5391C22.9078 12.2109 22.9906 11.7674 23.2969 11.5486L25.2969 10.12C25.6032 9.90122 26.0171 9.98994 26.2214 10.3181ZM23.0001 15C23.0001 14.6055 23.2985 14.2857 23.6667 14.2857H26.3333C26.7015 14.2857 27 14.6055 27 15C27 15.3945 26.7015 15.7143 26.3333 15.7143H23.6667C23.2985 15.7143 23.0001 15.3945 23.0001 15ZM23.1121 17.4609C23.3163 17.1327 23.7302 17.044 24.0365 17.2628L26.0365 18.6913C26.3428 18.9102 26.4256 19.3537 26.2214 19.6819C26.0171 20.0101 25.6032 20.0988 25.2969 19.8799L23.2969 18.4514C22.9906 18.2326 22.9078 17.7891 23.1121 17.4609Z" fill="#64A3C8"/>
</svg>
