<?xml version="1.0" encoding="UTF-8"?>
<svg width="30px" height="30px" viewBox="0 0 30 30" version="1.1" xmlns="http://www.w3.org/2000/svg" xmlns:xlink="http://www.w3.org/1999/xlink">
    <title>icon/03 forms/mRDTpng</title>
    <defs>
        <polygon id="path-1" points="0 0.000237499997 8.64214989 0.000237499997 8.64214989 28.4992871 0 28.4992871"></polygon>
    </defs>
    <g id="icon/03-forms/mRDT" stroke="none" stroke-width="1" fill="none" fill-rule="evenodd">
        <g id="Group-3" transform="translate(15.500000, 15.500000) scale(-1, 1) rotate(45.000000) translate(-15.500000, -15.500000) translate(11.000000, 1.000000)">
            <mask id="mask-2" fill="white">
                <use xlink:href="#path-1"></use>
            </mask>
            <g id="Clip-2"></g>
            <path d="M4.32202495,9.62516238 C2.58352497,9.62516238 1.17277499,8.2144124 1.17277499,6.47591242 C1.17277499,4.73741244 2.58352497,3.32666246 4.32202495,3.32666246 C6.06052492,3.32666246 7.46889991,4.73741244 7.46889991,6.47591242 C7.46889991,8.2144124 6.06052492,9.62516238 4.32202495,9.62516238 L4.32202495,9.62516238 Z M1.88289998,24.0105372 L6.75877492,24.0105372 L6.75877492,12.2044123 L1.88289998,12.2044123 L1.88289998,24.0105372 Z M7.39052491,-0.000712499991 L1.25352498,-0.000712499991 C0.560024993,-0.000712499991 -0.000474999994,0.562162493 -0.000474999994,1.25328748 L-0.000474999994,27.2452872 C-0.000474999994,27.9387871 0.560024993,28.4992875 1.25352498,28.4992875 L7.39052491,28.4992875 C8.0816499,28.4992875 8.64214989,27.9387871 8.64214989,27.2452872 L8.64214989,1.25328748 C8.64214989,0.562162493 8.0816499,-0.000712499991 7.39052491,-0.000712499991 L7.39052491,-0.000712499991 Z M2.70939997,23.1840372 L5.93702493,23.1840372 L5.93702493,13.0285373 L2.70939997,13.0285373 L2.70939997,23.1840372 Z M4.32202495,7.6895374 C3.65227495,7.6895374 3.10839996,7.14566241 3.10839996,6.47591242 C3.10839996,5.80853743 3.65227495,5.26466243 4.32202495,5.26466243 C4.98939994,5.26466243 5.53327493,5.80853743 5.53327493,6.47591242 C5.53327493,7.14566241 4.98939994,7.6895374 4.32202495,7.6895374 L4.32202495,7.6895374 Z M4.32202495,4.04866245 C2.98252496,4.04866245 1.89714998,5.13641244 1.89714998,6.47591242 C1.89714998,7.8154124 2.98252496,8.90316239 4.32202495,8.90316239 C5.65914993,8.90316239 6.74689992,7.8154124 6.74689992,6.47591242 C6.74689992,5.13641244 5.65914993,4.04866245 4.32202495,4.04866245 L4.32202495,4.04866245 Z" id="Fill-1" fill="#63A2C6" mask="url(#mask-2)"></path>
        </g>
    </g>
</svg>