<svg xmlns="http://www.w3.org/2000/svg" viewBox="0 0 30 30"><g><path d="M17.06,12.91a.76.76,0,0,0,.75-.76.76.76,0,0,0-1.51,0A.77.77,0,0,0,17.06,12.91Z" fill="#64692d"/><path d="M20.67,10.82a.76.76,0,0,0-.75.76.75.75,0,0,0,.75.75.76.76,0,0,0,.76-.75A.77.77,0,0,0,20.67,10.82Z" fill="#64692d"/><path d="M24.59,8.8A.76.76,0,0,0,25.34,8a.74.74,0,0,0-.75-.75.76.76,0,1,0,0,1.51Z" fill="#64692d"/><path d="M25.06,11.1a.76.76,0,1,0-.76.75A.76.76,0,0,0,25.06,11.1Z" fill="#64692d"/><path d="M27.69,5.84a.75.75,0,1,0,.53.92A.75.75,0,0,0,27.69,5.84Z" fill="#64692d"/><path d="M19.53,13.26a.74.74,0,0,0-.92.53.75.75,0,0,0,.53.92.76.76,0,0,0,.93-.53A.75.75,0,0,0,19.53,13.26Z" fill="#64692d"/><path d="M22.92,13.41a.75.75,0,0,0-.92.53.75.75,0,0,0,1.45.39A.75.75,0,0,0,22.92,13.41Z" fill="#64692d"/><path d="M27.42,12.24a.76.76,0,1,0,.53.93A.75.75,0,0,0,27.42,12.24Z" fill="#64692d"/><path d="M25.32,15.32a.77.77,0,0,0-.54.93.76.76,0,0,0,.93.53.75.75,0,0,0,.53-.92A.76.76,0,0,0,25.32,15.32Z" fill="#64692d"/><path d="M18.48,10.56a.76.76,0,0,0-.39-1.46.76.76,0,0,0-.54.92A.75.75,0,0,0,18.48,10.56Z" fill="#64692d"/><path d="M22.28,8.33a.77.77,0,0,0-.93-.54.76.76,0,0,0-.53.93.75.75,0,0,0,.92.53A.76.76,0,0,0,22.28,8.33Z" fill="#64692d"/><path d="M22.29,6A.76.76,0,0,0,21.9,4.5a.76.76,0,0,0-.54.92A.75.75,0,0,0,22.29,6Z" fill="#64692d"/><path d="M14.42,14.28H12.31v-.65H13a1.76,1.76,0,0,0,1.76-1.75l0-1.15c0,.06.45,0,.49,0a.5.5,0,0,0,.42-.52,1.66,1.66,0,0,0-.18-.53l-.24-.61c-.17-.42-.34-.84-.5-1.27v0s-.1-1-.19-1.34a4.49,4.49,0,0,0-4.26-3.18,4.44,4.44,0,0,0-2.74,7.94v3.06H5.72a4.29,4.29,0,0,0-4.3,4.18V28H19V19.11A4.68,4.68,0,0,0,14.42,14.28Zm-2.46-3a.76.76,0,1,1,.53.93A.76.76,0,0,1,12,11.28ZM9.59,13a.76.76,0,1,1,.53.93A.76.76,0,0,1,9.59,13ZM15.38,26a.47.47,0,0,1-.37.23.69.69,0,0,1-.5-.23l-.33-.24a4.84,4.84,0,0,0-1-.5c-.71-.3-1.38-.58-1.38-1.31,0-.09,0-.21,0-.34a5.41,5.41,0,0,0,0-.63,6,6,0,0,0-.16-.93,7.46,7.46,0,0,1-.15-.89,1.72,1.72,0,0,1-.82-.48,2.78,2.78,0,0,1-.57-.9,2.78,2.78,0,0,1-.57.9,1.74,1.74,0,0,1-.81.48,6.09,6.09,0,0,1-.16.89,5.75,5.75,0,0,0-.15.93c0,.24,0,.46,0,.63s0,.25,0,.34c0,.73-.67,1-1.37,1.31a4.92,4.92,0,0,0-1,.5L5.84,26a.74.74,0,0,1-.5.22A.44.44,0,0,1,5,26c-.49-.7-.61-3,0-5,.53-1.78,2.15-3.53,3.27-3.53a.54.54,0,0,1,.42.18c.29.32.24,1,.2,1.72l0,.4c0-.05.06.13.06.37L9,20a4.78,4.78,0,0,0,.74-2.9v-.33c0-.36,0-.66-.05-.87a.45.45,0,0,1,.38-.51.33.33,0,0,1,.1,0h.1a.44.44,0,0,1,.38.5c0,.22,0,.54,0,.9v.28A4.74,4.74,0,0,0,11.35,20a.58.58,0,0,0,.12.1c0-.23,0-.41.06-.36,0-.13,0-.26,0-.4,0-.72-.09-1.4.2-1.72a.52.52,0,0,1,.42-.18c1.12,0,2.74,1.75,3.27,3.53C16,22.93,15.86,25.27,15.38,26Z" fill="#64692d"/></g></svg>