<svg width="30" height="31" viewBox="0 0 30 31" fill="none" xmlns="http://www.w3.org/2000/svg">
<path fill-rule="evenodd" clip-rule="evenodd" d="M11.4625 6.4026C11.4625 7.72893 10.4041 8.8052 9.10009 8.8052C7.79579 8.8052 6.73766 7.72893 6.73766 6.4026C6.73766 5.07627 7.79579 4 9.10009 4C10.4041 4 11.4625 5.07627 11.4625 6.4026ZM15.4061 17.8521C15.4765 18.0165 15.5468 18.1809 15.6171 18.3454C15.8388 18.8635 15.6053 19.4667 15.0959 19.6921C14.9651 19.7498 14.8289 19.7774 14.6948 19.7774C14.3067 19.7774 13.9368 19.5472 13.7718 19.162L11.5744 14.0246L14.1743 26.8815H11.7766L11.6324 29.5236C11.6072 29.9906 11.2403 30.3737 10.7701 30.4003C10.2657 30.429 9.83441 30.0363 9.80624 29.5236L9.66202 26.8815H9.10059H8.53883L8.39428 29.5236C8.36644 30.0363 7.93514 30.429 7.43072 30.4003C6.96085 30.3737 6.59361 29.9906 6.56846 29.5236L6.42424 26.8815H4.0266L6.62648 14.0246L4.42905 19.162C4.26405 19.5472 3.89412 19.7774 3.50608 19.7774C3.37193 19.7774 3.23577 19.7498 3.10497 19.6921C2.59552 19.4667 2.36209 18.8635 2.58378 18.3454C2.72464 18.0165 2.86517 17.6876 3.00569 17.3588L4.38914 14.1249L5.63274 11.2181C5.85879 10.6896 6.11267 10.225 6.61273 9.91015C7.27813 9.49124 8.10182 9.41278 8.86683 9.41278H9.10059H9.33435C10.099 9.41278 10.9227 9.49124 11.5881 9.91015C12.0882 10.225 12.3421 10.6896 12.5681 11.2181L13.8117 14.1249L15.1952 17.3588C15.2654 17.5232 15.3358 17.6876 15.4061 17.8521Z" fill="#F27964"/>
<mask id="mask0_1255_20153" style="mask-type:alpha" maskUnits="userSpaceOnUse" x="15" y="0" width="15" height="15">
<path fill-rule="evenodd" clip-rule="evenodd" d="M15.5693 2.38286V8.98125C15.5693 10.2973 16.6192 11.3641 17.9144 11.3641H20.142L20.0788 13.8293C20.043 14.1015 20.1784 14.3675 20.418 14.4945C20.5182 14.5484 20.6296 14.5761 20.7428 14.5752C20.953 14.5733 21.1539 14.487 21.3021 14.3353L24.2691 11.3641H27.655C28.9502 11.3641 30 10.2973 30 8.98125V2.38286C30 1.06676 28.9502 0 27.655 0H17.9144C16.6192 0 15.5693 1.06676 15.5693 2.38286" fill="white"/>
</mask>
<g mask="url(#mask0_1255_20153)">
<rect x="12.9177" y="-2.65186" width="19.8875" height="19.8875" fill="#F27964"/>
</g>
</svg>
