<svg width="30" height="30" viewBox="0 0 30 30" fill="none" xmlns="http://www.w3.org/2000/svg">
<path d="M4.8322 12.4937C4.83258 12.6639 4.8666 12.8322 4.93227 12.9889C4.99794 13.1457 5.09395 13.2877 5.21469 13.4066C5.33544 13.5256 5.4785 13.6192 5.63554 13.6819C5.79258 13.7446 5.96044 13.7752 6.12934 13.7719H6.21933C9.42185 13.6031 11.0107 10.9594 12.3637 8.25C12.885 7.20937 13.4777 6.025 14.4615 5.32812C15.3583 4.70312 16.4041 4.70312 17.9588 5.36875C18.1144 5.43181 18.2816 5.46053 18.4491 5.45299C18.6167 5.44544 18.7807 5.40179 18.9301 5.325C19.1204 5.23215 19.2899 5.10109 19.4281 4.93987C19.5663 4.77865 19.6704 4.59068 19.7338 4.3875C19.9355 3.675 19.56 2.97812 18.8029 2.65312C17.8612 2.22979 16.8426 2.00741 15.8114 2H15.7586C15.2519 2.00709 14.7494 2.09354 14.2691 2.25625C13.0278 2.69062 11.9665 3.55937 11.0107 4.90937C10.5835 5.57512 10.2099 6.27423 9.89354 7C8.98429 8.87499 8.05333 10.8375 6.1914 10.9375C5.99912 10.9452 5.81039 10.9922 5.63665 11.0755C5.46292 11.1589 5.30781 11.2769 5.18072 11.4224C5.05362 11.5679 4.9572 11.7379 4.89729 11.922C4.83738 12.1062 4.81524 12.3007 4.8322 12.4937ZM27.9573 16.8437C27.2932 14.075 24.9503 12.3562 22.2847 12.6719C21.394 12.775 20.7082 13.2219 20.0441 13.6531C19.5486 14.0239 18.9887 14.2984 18.3932 14.4625C17.0744 14.7406 16.0224 13.2719 15.2559 12.2031L15.1069 12C14.9833 11.8088 14.8101 11.6553 14.6061 11.5561C14.4021 11.457 14.175 11.416 13.9494 11.4375C13.6831 11.4757 13.431 11.582 13.217 11.7461C13.003 11.9101 12.8342 12.1267 12.7268 12.375C12.6134 12.621 12.5685 12.8934 12.5969 13.1631C12.6254 13.4328 12.726 13.6897 12.8881 13.9062C13.2534 14.4215 13.6492 14.9141 14.0736 15.3812C15.2031 16.6062 16.5841 17.55 18.3746 17.4156C19.3521 17.3469 20.069 16.8937 20.761 16.4562C21.031 16.2875 21.3071 16.1125 21.5988 15.9594C21.9357 15.7645 22.3121 15.6491 22.6997 15.6221C23.0873 15.595 23.4759 15.6569 23.8363 15.8031C24.1544 15.9631 24.4317 16.1945 24.6469 16.4795C24.8621 16.7645 25.0095 17.0954 25.0775 17.4469C25.1508 17.7726 25.3341 18.0626 25.5962 18.2672C25.8583 18.4718 26.1828 18.5784 26.5143 18.5687C26.644 18.569 26.7732 18.5532 26.8991 18.5219C27.0809 18.4871 27.2537 18.4153 27.4068 18.3106C27.5598 18.206 27.69 18.0709 27.7892 17.9136C27.8884 17.7563 27.9544 17.5802 27.9834 17.3962C28.0123 17.2122 28.0034 17.0242 27.9573 16.8437ZM18.5236 20.55C16.8385 20.4625 15.5476 21.3812 14.297 22.2656C13.7187 22.7027 13.1053 23.0905 12.463 23.425C11.02 24.1187 9.73837 24.2375 8.65535 23.775C7.77404 23.4 6.98893 22.7 6.22864 22.025C5.9928 21.8125 5.75695 21.6031 5.52111 21.4C5.32014 21.226 5.07629 21.1098 4.81525 21.0636C4.5542 21.0174 4.28562 21.0429 4.03778 21.1375C3.78165 21.2284 3.55313 21.3843 3.37429 21.5902C3.19545 21.796 3.07233 22.0448 3.01682 22.3125C2.9795 22.5405 3.00456 22.7744 3.0893 22.9891C3.17404 23.2038 3.31527 23.3912 3.49782 23.5312L3.9695 23.9281C5.74144 25.4375 7.56923 27 10.0921 27C10.3369 27.0006 10.5815 26.986 10.8245 26.9562C12.1512 26.7807 13.4269 26.3283 14.5701 25.6281C14.987 25.3819 15.3881 25.1095 15.771 24.8125C16.6399 24.15 17.5367 23.4562 18.4894 23.5125C18.7246 23.5308 18.9604 23.4858 19.1725 23.382C19.3847 23.2782 19.5656 23.1194 19.6966 22.9219C19.8383 22.6883 19.9182 22.4219 19.9285 22.1484C19.9388 21.8748 19.8793 21.6031 19.7555 21.3594C19.6425 21.1245 19.4681 20.9252 19.251 20.7826C19.034 20.64 18.7825 20.5596 18.5236 20.55ZM19.107 9.77812C19.163 9.94976 19.2526 10.1084 19.3703 10.2447C19.4881 10.381 19.6317 10.4922 19.7928 10.5719C19.9852 10.6697 20.1979 10.72 20.4134 10.7187C20.5611 10.718 20.7077 10.6938 20.8479 10.6469C21.1039 10.5606 21.3288 10.3998 21.4941 10.1848C21.6595 9.96986 21.7578 9.71035 21.7767 9.43912C21.7956 9.16789 21.7342 8.89711 21.6003 8.661C21.4664 8.4249 21.2659 8.23407 21.0244 8.11265C20.7828 7.99123 20.5109 7.94466 20.243 7.97883C19.9751 8.01301 19.7233 8.12638 19.5195 8.30464C19.3156 8.48289 19.1687 8.71801 19.0975 8.98028C19.0263 9.24255 19.0339 9.5202 19.1194 9.77812H19.107ZM20.1931 8.70937C20.2599 8.68606 20.3303 8.67444 20.401 8.67499C20.5136 8.67513 20.6244 8.70411 20.7228 8.75921C20.8213 8.81431 20.9042 8.89372 20.9638 8.98997C21.0234 9.08622 21.0577 9.19616 21.0634 9.30943C21.0692 9.4227 21.0463 9.5356 20.9968 9.63749C20.9178 9.79668 20.7795 9.91798 20.612 9.97499C20.4454 10.0305 20.2636 10.0172 20.1066 9.93817C19.9496 9.85912 19.8301 9.72068 19.7742 9.55312C19.72 9.38651 19.7333 9.2051 19.8111 9.04829C19.889 8.89148 20.0251 8.77194 20.19 8.71562L20.1931 8.70937ZM23.5166 7.45937C23.709 7.55719 23.9218 7.60753 24.1373 7.60625C24.2849 7.60552 24.4316 7.58126 24.5717 7.53437C24.8723 7.43387 25.129 7.2315 25.2979 6.96176C25.4669 6.69202 25.5378 6.3716 25.4984 6.05514C25.459 5.73868 25.3119 5.44577 25.082 5.22634C24.8522 5.00691 24.5539 4.87455 24.238 4.85183C23.9221 4.82911 23.6081 4.91743 23.3497 5.10173C23.0912 5.28603 22.9042 5.55491 22.8206 5.86252C22.7369 6.17014 22.7618 6.49744 22.891 6.78863C23.0202 7.07982 23.2457 7.31687 23.529 7.45937H23.5166ZM23.9169 5.58437C23.9838 5.56106 24.0541 5.54944 24.1249 5.55C24.2375 5.55013 24.3482 5.57911 24.4467 5.63421C24.5451 5.68931 24.6281 5.76872 24.6876 5.86497C24.7472 5.96123 24.7815 6.07116 24.7873 6.18443C24.7931 6.29771 24.7702 6.4106 24.7207 6.5125C24.6416 6.67169 24.5033 6.79299 24.3359 6.85C24.1692 6.90547 23.9875 6.89223 23.8305 6.81318C23.6735 6.73412 23.5539 6.59568 23.498 6.42812C23.4438 6.26151 23.4571 6.0801 23.535 5.92329C23.6128 5.76648 23.749 5.64694 23.9138 5.59062L23.9169 5.58437ZM23.6935 22.4125C23.3503 22.5287 23.0668 22.7771 22.9051 23.1033C22.7434 23.4296 22.7167 23.8071 22.8308 24.1531C22.8869 24.3247 22.9764 24.4834 23.0942 24.6197C23.2119 24.756 23.3556 24.8672 23.5166 24.9469C23.709 25.0447 23.9218 25.095 24.1373 25.0937C24.2849 25.093 24.4316 25.0687 24.5717 25.0219C24.7419 24.9646 24.8991 24.8742 25.0346 24.7557C25.17 24.6373 25.2809 24.4931 25.3611 24.3315C25.4412 24.1698 25.4889 23.9939 25.5015 23.8137C25.514 23.6335 25.4913 23.4526 25.4344 23.2812C25.3776 23.1099 25.2878 22.9515 25.1701 22.8151C25.0525 22.6788 24.9093 22.567 24.7488 22.4864C24.5883 22.4057 24.4136 22.3576 24.2347 22.345C24.0557 22.3323 23.8761 22.3552 23.7059 22.4125H23.6935ZM24.7207 24.0125C24.6416 24.1717 24.5033 24.293 24.3359 24.35C24.1692 24.4055 23.9875 24.3922 23.8305 24.3132C23.6735 24.2341 23.5539 24.0957 23.498 23.9281C23.4703 23.845 23.4592 23.7572 23.4653 23.6698C23.4713 23.5824 23.4945 23.497 23.5334 23.4186C23.5724 23.3402 23.6263 23.2703 23.6921 23.213C23.7579 23.1556 23.8343 23.1119 23.9169 23.0844C23.9838 23.0611 24.0541 23.0494 24.1249 23.05C24.2375 23.0501 24.3482 23.0791 24.4467 23.1342C24.5451 23.1893 24.6281 23.2687 24.6876 23.365C24.7472 23.4612 24.7815 23.5711 24.7873 23.6844C24.7931 23.7977 24.7702 23.9106 24.7207 24.0125ZM4.58704 5.8875C4.77944 5.98531 4.99217 6.03566 5.20769 6.03437C5.35536 6.03365 5.50199 6.00939 5.64214 5.9625C5.98405 5.84565 6.26625 5.59746 6.42726 5.27202C6.58827 4.94657 6.61503 4.57023 6.50173 4.225C6.43005 4.01097 6.30712 3.81801 6.1438 3.66319C5.98049 3.50837 5.78181 3.39645 5.56533 3.33732C5.34885 3.27819 5.12125 3.27368 4.90263 3.32418C4.68401 3.37468 4.48111 3.47864 4.31186 3.62686C4.14262 3.77509 4.01224 3.96302 3.93225 4.17404C3.85227 4.38507 3.82514 4.61268 3.85326 4.83677C3.88138 5.06086 3.96389 5.27453 4.0935 5.45888C4.2231 5.64322 4.39581 5.79258 4.59635 5.89375L4.58704 5.8875ZM4.98736 4.0125C5.05421 3.98919 5.12453 3.97756 5.19527 3.97812C5.35399 3.97542 5.50837 4.03033 5.6302 4.13282C5.75202 4.2353 5.83316 4.37851 5.85876 4.53627C5.88437 4.69403 5.85275 4.85581 5.76967 4.99202C5.68659 5.12823 5.5576 5.22979 5.40629 5.27812C5.23962 5.3336 5.05791 5.32036 4.90091 5.2413C4.7439 5.16225 4.62436 5.02381 4.56842 4.85625C4.51706 4.69086 4.53176 4.51182 4.60941 4.35718C4.68706 4.20254 4.82154 4.08449 4.98425 4.02812L4.98736 4.0125ZM7.55682 15.2156C7.25171 15.3213 6.99349 15.5321 6.82775 15.8109C6.66202 16.0897 6.59942 16.4185 6.65102 16.7392C6.70262 17.0599 6.86509 17.352 7.10975 17.5638C7.35441 17.7756 7.66553 17.8936 7.98816 17.8969C8.13584 17.8961 8.28247 17.8719 8.42261 17.825C8.76393 17.7106 9.04678 17.4654 9.20997 17.1426C9.37316 16.8198 9.40357 16.4452 9.29462 16.1C9.23791 15.9272 9.14771 15.7674 9.02923 15.63C8.91074 15.4925 8.76635 15.3802 8.6044 15.2993C8.44246 15.2185 8.2662 15.1709 8.08584 15.1592C7.90548 15.1475 7.72461 15.172 7.55371 15.2312L7.55682 15.2156ZM8.19918 17.1531C8.03251 17.2086 7.85081 17.1953 7.6938 17.1163C7.53679 17.0372 7.41725 16.8988 7.36131 16.7312C7.33361 16.6481 7.32248 16.5604 7.32856 16.4729C7.33464 16.3855 7.35781 16.3001 7.39673 16.2217C7.43565 16.1433 7.48957 16.0734 7.55539 16.0161C7.6212 15.9587 7.69762 15.915 7.78025 15.8875C7.8471 15.8642 7.91742 15.8526 7.98816 15.8531C8.14688 15.8504 8.30126 15.9053 8.42309 16.0078C8.54491 16.1103 8.62605 16.2535 8.65165 16.4113C8.67726 16.569 8.64564 16.7308 8.56256 16.867C8.47948 17.0032 8.35049 17.1048 8.19918 17.1531ZM10.9703 18.0281C10.6652 18.1338 10.407 18.3446 10.2413 18.6234C10.0756 18.9022 10.013 19.231 10.0646 19.5517C10.1162 19.8724 10.2786 20.1645 10.5233 20.3763C10.7679 20.5881 11.0791 20.7061 11.4017 20.7094C11.5494 20.7086 11.696 20.6844 11.8361 20.6375C12.1775 20.5231 12.4603 20.2779 12.6235 19.9551C12.7867 19.6323 12.8171 19.2577 12.7081 18.9125C12.6514 18.7397 12.5612 18.5799 12.4428 18.4425C12.3243 18.305 12.1799 18.1927 12.0179 18.1118C11.856 18.031 11.6797 17.9834 11.4994 17.9717C11.319 17.96 11.1381 17.9845 10.9672 18.0437L10.9703 18.0281ZM11.6127 19.9656C11.446 20.0211 11.2643 20.0078 11.1073 19.9288C10.9503 19.8497 10.8308 19.7113 10.7748 19.5437C10.7471 19.4606 10.736 19.3729 10.7421 19.2854C10.7482 19.198 10.7713 19.1126 10.8103 19.0342C10.8492 18.9558 10.9031 18.8859 10.9689 18.8286C11.0347 18.7712 11.1112 18.7275 11.1938 18.7C11.2606 18.6767 11.331 18.6651 11.4017 18.6656C11.5604 18.6629 11.7148 18.7178 11.8366 18.8203C11.9584 18.9228 12.0396 19.066 12.0652 19.2238C12.0908 19.3815 12.0592 19.5433 11.9761 19.6795C11.893 19.8157 11.764 19.9173 11.6127 19.9656Z" fill="#C38813"/>
</svg>
