<svg xmlns="http://www.w3.org/2000/svg" viewBox="0 0 30 30"><g><path d="M8.09,23.06A1.22,1.22,0,0,0,8,24.39l1.47,2.84a.52.52,0,0,0,.87.08C11.54,25.66,13.4,23,14.15,22l-2.47-3.43C10.78,19.77,9,22,8.09,23.06Z" fill="#df3a26" fill-rule="evenodd"/><path d="M22.08,23.06S13,11.16,11.52,7.7c0,0,0,0,0,0a4.5,4.5,0,0,1,.75-.41,6.81,6.81,0,0,1,6.14.43c-.3.71-1.71,3.39-2.4,4.6l2.46,3.51c1-1.47,2.66-4.22,2.78-4.5.75-1.61,1.07-3,.16-4.21A20,20,0,0,0,19.74,5a7,7,0,0,0-3.3-2.36A5.9,5.9,0,0,0,13,2.84,8.21,8.21,0,0,0,10.3,5a14,14,0,0,0-2,2.52,3.29,3.29,0,0,0-.19,2.27A11.19,11.19,0,0,0,9.63,13c2.61,4.18,10.11,14.16,10.23,14.33a.52.52,0,0,0,.87-.08c.42-.79,1.07-2.05,1.48-2.84A1.22,1.22,0,0,0,22.08,23.06Z" fill="#df3a26" fill-rule="evenodd"/></g></svg>