<svg width="30" height="30" viewBox="0 0 30 30" fill="none" xmlns="http://www.w3.org/2000/svg">
<path fill-rule="evenodd" clip-rule="evenodd" d="M10.0865 5.46024C11.5675 5.46024 12.7705 4.23724 12.7705 2.73024C12.7705 1.22324 11.5675 0.000244141 10.0865 0.000244141C8.60451 0.000244141 7.40151 1.22324 7.40151 2.73024C7.40151 4.23724 8.60451 5.46024 10.0865 5.46024ZM14.4077 13.2615C13.7407 11.8625 12.8447 10.5905 11.9077 9.36054C11.7532 9.15747 11.5988 8.94572 11.442 8.73083L11.442 8.73078C10.7505 7.78273 10.0144 6.77346 9.03371 6.17754C8.35271 5.76254 7.45371 5.58954 6.65871 5.76254C5.7209 5.96708 5.08505 6.93633 4.53823 7.76989C4.40867 7.96738 4.2841 8.15726 4.16171 8.32754C3.74246 8.91145 3.03241 9.89985 2.59516 10.5085L2.59397 10.5102L2.21371 11.0395L2.18371 11.0805C1.88371 11.5015 1.95771 12.0905 2.36471 12.4235L5.96871 15.3645C6.31271 15.6455 6.78171 15.6435 7.13471 15.4105C6.94084 16.186 4.95555 21.8381 4.02374 24.491L4.02366 24.4912C3.81156 25.0951 3.65405 25.5435 3.58471 25.7435L3.44071 26.1565H7.35471L7.50171 28.9315C7.52971 29.4745 7.94171 29.9205 8.47071 29.9515C9.03671 29.9845 9.52171 29.5285 9.55371 28.9315L9.69971 26.1565H13.1597C13.1571 26.1055 13.1417 25.8727 13.1189 25.5275L13.1189 25.5275C13.0263 24.1265 12.8114 20.8747 12.8347 20.4165C12.8539 20.0332 13.1977 19.7191 13.5019 19.4413C13.6095 19.343 13.7122 19.2492 13.7937 19.1585C14.1657 18.7445 14.5307 18.2685 14.7597 17.7485C14.9657 17.2795 15.0877 16.7765 15.1157 16.2605C15.1737 15.2125 14.8477 14.1875 14.4077 13.2615ZM6.50071 9.12854L4.40971 11.5325L7.22271 13.8275C7.25519 13.8548 7.27881 13.888 7.30234 13.9211C7.31503 13.9389 7.32769 13.9567 7.34171 13.9735C7.36671 13.0105 7.18071 12.0515 6.95871 11.1135C6.80271 10.4525 6.64771 9.79054 6.50071 9.12854Z" fill="#E9AA22"/>
<rect x="17.0642" y="2" width="11" height="11" rx="2" fill="#E9AA22"/>
<path d="M23.2926 11.3214C23.4867 11.1302 23.5955 10.8641 23.5955 10.5914C23.5955 10.3215 23.4867 10.0545 23.2926 9.8633C23.1023 9.6712 22.837 9.5625 22.5642 9.5625C22.2923 9.5625 22.0251 9.6712 21.8339 9.8633C21.6417 10.0545 21.533 10.3215 21.533 10.5914C21.533 10.8641 21.6417 11.1302 21.8339 11.3214C22.0251 11.5135 22.2923 11.625 22.5642 11.625C22.837 11.625 23.1023 11.5135 23.2926 11.3214Z" fill="white"/>
<path d="M22.3923 4.0625C21.6758 4.0625 21.4944 4.65653 21.5394 5.01151L21.9718 8.75227C21.9895 9.10815 22.2029 9.21875 22.3923 9.21875C22.5616 9.21875 22.7983 9.09031 22.8127 8.75227L23.2452 5.01151C23.2901 4.66544 23.1136 4.0625 22.3923 4.0625Z" fill="white"/>
</svg>
