<svg xmlns="http://www.w3.org/2000/svg" viewBox="0 0 30 30"><g><path d="M26.83,14.15a2.33,2.33,0,0,0-2,1.19l-3.22-.58c0-.14,0-.29,0-.43a6.52,6.52,0,0,0-.71-2.95L23.15,10a1.74,1.74,0,0,0,1,.34,1.76,1.76,0,1,0-1.76-1.76,1.59,1.59,0,0,0,.12.62l-2.13,1.32a6.47,6.47,0,0,0-1.76-1.7l1.24-2.35a1.87,1.87,0,0,0,.34,0,1.76,1.76,0,1,0-1.76-1.76A1.73,1.73,0,0,0,19,6L17.78,8.34A6.51,6.51,0,0,0,15,7.73a6.58,6.58,0,0,0-2.14.36L11.56,5.43a2.28,2.28,0,0,0,.67-1.63A2.32,2.32,0,1,0,9.92,6.12a2.58,2.58,0,0,0,.29,0l1.32,2.65a6.62,6.62,0,0,0-1.78,1.64L8.13,9.25a1.86,1.86,0,0,0,.13-.67A1.76,1.76,0,1,0,6.5,10.34a1.82,1.82,0,0,0,1-.31l1.71,1.19a6.65,6.65,0,0,0-.72,2.3l-3.13,0a2.31,2.31,0,1,0,0,1.5l3.13,0a6.58,6.58,0,0,0,1.9,4L9,20.44a1.66,1.66,0,0,0-.77-.19A1.77,1.77,0,1,0,10,22a1.68,1.68,0,0,0-.25-.89l1.36-1.48a6.68,6.68,0,0,0,2.62,1.16l-.35,3.28a2.31,2.31,0,0,0,.6,4.54,2.32,2.32,0,0,0,.9-4.45l.34-3.26a6.5,6.5,0,0,0,2.25-.46l1,2.15a1.73,1.73,0,0,0-.59,1.3,1.76,1.76,0,1,0,1.76-1.76,2.3,2.3,0,0,0-.26,0l-1-2.17a6.58,6.58,0,0,0,3-3.76l3.21.58a2.31,2.31,0,1,0,2.28-2.67Zm-14.15.51A1.3,1.3,0,1,1,14,13.36,1.31,1.31,0,0,1,12.68,14.66Zm2.87,1.81a.88.88,0,1,1,.89-.88A.89.89,0,0,1,15.55,16.47Zm2-2.94A1.52,1.52,0,1,1,19.06,12,1.53,1.53,0,0,1,17.51,13.53Z" fill="#64a3c8" fill-rule="evenodd"/></g></svg>