<svg width="30" height="30" viewBox="0 0 30 30" fill="none" xmlns="http://www.w3.org/2000/svg">
<path d="M19.4602 3.74269C19.4602 5.25744 18.2323 6.48538 16.7175 6.48538C15.2028 6.48538 13.9749 5.25744 13.9749 3.74269C13.9749 2.22794 15.2028 1 16.7175 1C18.2323 1 19.4602 2.22794 19.4602 3.74269Z" fill="#79B1B1"/>
<path d="M14.86 21.6661L15.9291 21.5895C15.9323 21.5181 15.934 21.4463 15.934 21.3741C15.934 18.7774 13.8289 16.6724 11.2322 16.6724C10.5385 16.6724 9.87992 16.8226 9.28711 17.0923C9.32073 17.9939 9.41406 18.7191 9.55346 19.1065C10.6224 22.0771 14.86 21.6661 14.86 21.6661Z" fill="#79B1B1"/>
<path fill-rule="evenodd" clip-rule="evenodd" d="M25.6027 25.6085C26.3078 27.2339 23.8772 28.4483 22.9124 26.9911C21.9476 25.5338 19.554 21.3302 19.554 21.3302L19.0683 21.3649V21.3745C19.0683 25.7023 15.5598 29.2108 11.232 29.2108C6.9042 29.2108 3.39575 25.7023 3.39575 21.3745C3.39575 18.0116 5.51413 15.1433 8.48932 14.0316V9.42421L6.45189 7.89614L7.39225 6.64233L10.0566 8.64058V10.3628C10.2543 9.74816 10.4933 9.21459 10.7778 8.81274C12.3921 6.53349 12.7075 6.36532 14.4887 6.53349C16.2699 6.70165 19.2757 12.6427 19.2757 12.6427C19.2757 12.6427 23.0608 13.5395 24.5081 14.0439C25.9553 14.5483 25.0461 16.5287 24.1184 16.4913C23.1907 16.454 18.1068 15.9495 17.4203 15.5573C16.7338 15.1649 15.5834 13.2779 15.5834 13.2779L15.4703 14.7823C16.3499 15.3488 17.1087 16.0867 17.6996 16.9486C19.1118 17.0714 20.7171 17.2013 21.1868 17.2013C22.0774 17.2013 22.2815 17.8179 22.2815 17.8179C22.2815 17.8179 24.8977 23.9831 25.6027 25.6085ZM15.4615 16.7471C15.4186 16.7079 15.3753 16.6694 15.3314 16.6314C14.2323 15.6807 12.7993 15.1055 11.232 15.1055C10.5542 15.1055 9.90142 15.2131 9.28995 15.4121C6.77827 16.2296 4.963 18.59 4.963 21.3745C4.963 24.8368 7.76972 27.6435 11.232 27.6435C14.6943 27.6435 17.501 24.8368 17.501 21.3745C17.501 19.5422 16.7149 17.8933 15.4615 16.7471Z" fill="#79B1B1"/>
</svg>
