<svg width="30" height="30" viewBox="0 0 30 30" fill="none" xmlns="http://www.w3.org/2000/svg">
<path fill-rule="evenodd" clip-rule="evenodd" d="M18.1873 6.54906H11.6973C11.0872 6.54906 10.5926 6.11632 10.5926 5.58224V3.96581C10.5926 3.43274 11.0872 3 11.6973 3H18.1873C18.7964 3 19.292 3.43274 19.292 3.96581V5.58224C19.292 6.11531 18.7964 6.54906 18.1873 6.54906ZM20.8127 5.50982V5.58278C20.8127 6.95396 19.6351 8.06976 18.1879 8.06976H11.6978C10.2506 8.06976 9.07302 6.95396 9.07302 5.58278V5.50982H8.32105C6.39653 5.50982 6 6.90735 6 8.6231V24.8857C6 26.6035 6.39653 28 8.32105 28L21.5646 27.999C23.4882 27.999 23.8847 26.6025 23.8847 24.8857V8.6231C23.8857 6.90735 23.4882 5.50982 21.5646 5.50982H20.8127ZM19.1993 22.6207H10.6854C10.2658 22.6207 9.92532 22.2802 9.92532 21.8606C9.92532 21.441 10.2658 21.1005 10.6854 21.1005H19.1993C19.6189 21.1005 19.9594 21.441 19.9594 21.8606C19.9594 22.2802 19.6189 22.6207 19.1993 22.6207ZM10.6854 25.4878H19.1993C19.6189 25.4878 19.9594 25.1473 19.9594 24.7277C19.9594 24.3082 19.6189 23.9677 19.1993 23.9677H10.6854C10.2658 23.9677 9.92532 24.3082 9.92532 24.7277C9.92532 25.1473 10.2658 25.4878 10.6854 25.4878ZM14.9429 9.86473C17.5931 9.86473 19.7405 11.9747 19.7405 14.5772C19.7405 17.1797 17.5931 19.2907 14.9429 19.2907C12.2928 19.2907 10.1443 17.1797 10.1443 14.5772C10.1443 11.9747 12.2928 9.86473 14.9429 9.86473Z" fill="#983916"/>
<path d="M15.411 11.1631V11.7288C16.0137 11.8181 16.4794 12.3242 16.5343 12.9792C16.5343 13.0388 16.5343 13.0982 16.4794 13.1281C16.4521 13.1877 16.3972 13.1877 16.3424 13.1877L15.7672 13.1875C15.685 13.1875 15.6028 13.1279 15.5753 13.0386C15.548 12.8897 15.411 12.7707 15.2466 12.7707H14.726C14.452 12.7707 14.2055 12.9792 14.2055 13.2471C14.1782 13.396 14.2328 13.5449 14.3425 13.6639C14.4247 13.7829 14.5617 13.8425 14.726 13.8425H15.1644C15.5753 13.8425 15.9863 14.0211 16.2602 14.3783C16.5342 14.7058 16.671 15.1523 16.6437 15.599C16.5888 16.2837 16.0958 16.8494 15.4382 16.9983V17.564C15.4382 17.683 15.356 17.7725 15.2463 17.7725H14.6709C14.5614 17.7725 14.4791 17.6832 14.4791 17.564V16.9983C13.8764 16.909 13.4106 16.4029 13.3558 15.7478C13.3558 15.6882 13.3558 15.6288 13.4106 15.5989C13.438 15.5692 13.4928 15.5393 13.5477 15.5393H14.1231C14.2052 15.5393 14.2874 15.5989 14.3149 15.6882C14.3423 15.8371 14.4793 15.9561 14.6436 15.9561H15.1642C15.4382 15.9561 15.6572 15.7476 15.6848 15.4797C15.7121 15.3308 15.6574 15.1819 15.5477 15.0629C15.4656 14.944 15.3286 14.8843 15.1642 14.8843H14.7807C13.9863 14.8843 13.3287 14.259 13.2466 13.4553C13.1644 12.6217 13.6849 11.8774 14.452 11.7286V11.1629C14.452 11.0439 14.5342 10.9543 14.6439 10.9543L15.2193 10.9546C15.3288 10.9546 15.411 11.0439 15.411 11.1631Z" fill="#983916"/>
</svg>
