<svg xmlns="http://www.w3.org/2000/svg" viewBox="0 0 30 30"><g><path d="M13.71,11.27h-.16V8.62H4.83v2.65H4.67A2.72,2.72,0,0,0,2,14V24.78A2.71,2.71,0,0,0,4.67,27.5h9a2.71,2.71,0,0,0,2.69-2.72V14A2.72,2.72,0,0,0,13.71,11.27Zm-.33,11.94A1.4,1.4,0,0,1,12,24.62H4V14.4h8a1.39,1.39,0,0,1,1.38,1.4Z" fill="#64a3c8"/><path d="M28.72,22.86l0-.09a2.56,2.56,0,0,0-3.37-1.34l-4.74,2.1a2.6,2.6,0,0,0-1.32,3.4l0,.1a2.56,2.56,0,0,0,2.35,1.55,2.47,2.47,0,0,0,1-.22l4.74-2.1A2.6,2.6,0,0,0,28.72,22.86Zm-6.59,4.27a1.22,1.22,0,0,1-1.62-.64l0-.09a1.25,1.25,0,0,1,.63-1.64l2.22-1,1,2.37Z" fill="#64a3c8"/><path d="M19.19,21.17a2.48,2.48,0,0,0,1.75.71H21a2.54,2.54,0,0,0,1.79-.8l3.57-3.8a2.64,2.64,0,0,0,.7-1.84,2.58,2.58,0,0,0-.79-1.81l-.08-.07a2.52,2.52,0,0,0-3.61.09L19,17.44a2.65,2.65,0,0,0-.7,1.85,2.62,2.62,0,0,0,.79,1.81Zm4.36-6.6a1.23,1.23,0,0,1,1.74,0l.07.07a1.2,1.2,0,0,1,.38.87,1.26,1.26,0,0,1-.33.89l-1.67,1.77-1.86-1.78Z" fill="#64a3c8"/><path d="M14.57,3.74a1.06,1.06,0,0,0-1-1.07H4.74a1,1,0,0,0-.93,1.07V7.12H14.57Z" fill="#64a3c8"/><polygon points="9.59 16.4 7.59 16.4 7.59 18.45 5.53 18.45 5.53 20.45 7.59 20.45 7.59 22.51 9.59 22.51 9.59 20.45 11.65 20.45 11.65 18.45 9.59 18.45 9.59 16.4" fill="#64a3c8"/></g></svg>