<svg width="30" height="30" viewBox="0 0 30 30" fill="none" xmlns="http://www.w3.org/2000/svg">
<path fill-rule="evenodd" clip-rule="evenodd" d="M11.1964 6.33637C11.1964 7.62709 10.1348 8.67274 8.82516 8.67274C7.5155 8.67274 6.45391 7.62709 6.45391 6.33637C6.45391 5.04531 7.5155 4 8.82516 4C10.1348 4 11.1964 5.04531 11.1964 6.33637ZM13.1234 11.8719L14.8484 18.6204C14.9847 19.1533 14.6565 19.6939 14.1159 19.8282C14.0331 19.8487 13.95 19.8584 13.8682 19.8584C13.4169 19.8584 13.0052 19.5579 12.8901 19.1065L11.6945 14.4298V18.6038C11.6953 18.6092 11.6967 18.6144 11.6981 18.6197C11.6996 18.6258 11.7012 18.6319 11.7019 18.6383C11.704 18.6549 11.706 18.6771 11.707 18.694L12.4101 28.7594C12.4546 29.3992 11.9645 29.9537 11.3152 29.9974C10.6831 30.0405 10.1328 29.5809 10.0631 28.9664L9.00051 19.4591H8.62488L7.56194 28.9664C7.49059 29.6035 6.90863 30.0634 6.26171 29.9931C5.63196 29.9248 5.17286 29.3766 5.21527 28.7594L5.91806 18.694C5.919 18.68 5.92186 18.6667 5.92471 18.6533C5.92695 18.6429 5.92918 18.6325 5.93051 18.6217V14.4298L4.73529 19.1065C4.61985 19.5576 4.20854 19.8584 3.75684 19.8584C3.67505 19.8584 3.59225 19.8487 3.50945 19.8282C2.96856 19.6939 2.64038 19.1533 2.7767 18.6204L4.5017 11.8719C4.52897 11.7655 4.57643 11.67 4.63331 11.5817C5.15098 10.3076 6.42395 9.32562 7.6545 9.32562H8.80024L8.82515 9.40422V9.32562H9.97055C11.2018 9.32562 12.4747 10.3083 12.9921 11.5831C13.049 11.6709 13.0961 11.7658 13.1234 11.8719Z" fill="#70A2A0"/>
<path fill-rule="evenodd" clip-rule="evenodd" d="M18.1657 6.26525V8.20904H17.5587C16.9599 8.20904 16.4743 8.6914 16.4743 9.28547C16.4743 9.87914 16.96 10.3614 17.5587 10.3614H18.1657V11.3685C18.1657 11.9626 18.6518 12.4444 19.25 12.4444C19.8488 12.4444 20.3349 11.9626 20.3349 11.3685V10.3614H20.9829C21.5812 10.3614 22.0673 9.87903 22.0673 9.28547C22.0673 8.6914 21.5811 8.20904 20.9829 8.20904H20.3344C20.3348 8.20904 20.3348 6.26525 20.3348 6.26525C21.5957 5.82188 22.5 4.62726 22.5 3.22467C22.5 1.4451 21.0439 0 19.25 0C17.4565 0 16 1.44518 16 3.22467C16 4.62731 16.9043 5.82183 18.1657 6.26525H18.1657ZM19.25 2.15245C19.8469 2.15245 20.3312 2.633 20.3312 3.22485C20.3312 3.81709 19.8469 4.29763 19.25 4.29763C18.6535 4.29763 18.1692 3.81709 18.1692 3.22485C18.1692 2.633 18.6535 2.15245 19.25 2.15245Z" fill="#70A2A0"/>
<path fill-rule="evenodd" clip-rule="evenodd" d="M25.1979 3.67392V6.17923C23.9738 6.6226 23.0962 7.81721 23.0962 9.21979C23.0962 10.9998 24.5093 12.4444 26.2501 12.4444C27.991 12.4444 29.404 10.9997 29.404 9.21979C29.404 7.81715 28.5265 6.62265 27.3024 6.17923V3.67392L27.7033 4.08386C28.1144 4.50369 28.7813 4.50369 29.192 4.08386C29.6027 3.66402 29.6027 2.98209 29.192 2.56223L26.9944 0.315264C26.5832 -0.105088 25.9168 -0.105088 25.5056 0.315264L23.308 2.56223C22.8973 2.98207 22.8973 3.66399 23.308 4.08386C23.7186 4.50372 24.386 4.50369 24.7967 4.08386L25.1976 3.67392H25.1979ZM26.2502 10.2926C25.6713 10.2926 25.2013 9.81162 25.2013 9.21979C25.2013 8.62797 25.6713 8.1474 26.2502 8.1474C26.829 8.1474 27.2994 8.62794 27.2994 9.21979C27.2994 9.81164 26.829 10.2926 26.2502 10.2926V10.2926Z" fill="#70A2A0"/>
</svg>
