<svg xmlns="http://www.w3.org/2000/svg" viewBox="0 0 30 30"><g><path d="M13.5,23.23a1.5,1.5,0,0,1,0-3h10a1.5,1.5,0,0,1,0,3Zm0-7a1.5,1.5,0,0,1,0-3h10a1.5,1.5,0,0,1,0,3Zm0-7a1.5,1.5,0,0,1,0-3h10a1.5,1.5,0,0,1,0,3Zm-3,5a.44.44,0,0,1-.11.45l-1,1L9.6,17a.39.39,0,0,1,0,.26.42.42,0,0,1-.57.18l-1.24-.65-1.24.65A.42.42,0,0,1,5.9,17l.24-1.38-1-1A.45.45,0,0,1,5,14.39a.43.43,0,0,1,.37-.47l1.38-.19.62-1.27a.41.41,0,0,1,.2-.19.42.42,0,0,1,.56.19l.62,1.26,1.39.2A.44.44,0,0,1,10.48,14.21Zm0-7.19a.42.42,0,0,1-.11.45l-1,1L9.6,9.82a.34.34,0,0,1,0,.26.41.41,0,0,1-.56.18L7.76,9.6l-1.25.66a.41.41,0,0,1-.27,0,.42.42,0,0,1-.34-.48l.24-1.37-1-1a.42.42,0,0,1,.23-.72l1.39-.19.62-1.26a.35.35,0,0,1,.19-.19.41.41,0,0,1,.56.19l.62,1.25,1.39.2A.44.44,0,0,1,10.48,7ZM6.14,22.49l-1-1A.45.45,0,0,1,5,21.25a.43.43,0,0,1,.37-.47l1.39-.19.62-1.27a.39.39,0,0,1,.19-.19.42.42,0,0,1,.56.19l.62,1.26,1.39.2a.42.42,0,0,1,.27.14.43.43,0,0,1,0,.6l-1,1,.23,1.39a.34.34,0,0,1,0,.26.41.41,0,0,1-.56.18l-1.24-.66-1.25.66a.41.41,0,0,1-.27,0,.42.42,0,0,1-.34-.48Z" fill="#e9a724" fill-rule="evenodd"/></g></svg>