<?xml version="1.0" encoding="UTF-8"?>
<svg width="30px" height="30px" viewBox="0 0 30 30" version="1.1" xmlns="http://www.w3.org/2000/svg" xmlns:xlink="http://www.w3.org/1999/xlink">
    <title>icon/03 forms/hand-wash@2x</title>
    <g id="icon/03-forms/hand-wash" stroke="none" stroke-width="1" fill="none" fill-rule="evenodd">
        <path d="M13.1334541,13.1799801 C14.1546019,12.1710351 15.6945935,13.4517558 14.5627015,14.5701216 C13.4308094,15.6888427 12.2974792,16.8082743 11.7264993,17.3724308 C11.1551599,17.9369427 11.8207038,18.5895596 12.6498471,17.7703247 C13.4789904,16.9510897 18.197844,12.2886269 19.308522,11.1912216 C20.4188405,10.0941715 21.887999,11.4239184 20.7108025,12.5870473 C19.533606,13.7501761 16.3324514,16.9130767 15.8869576,17.3532467 C15.4418235,17.7930614 16.0023761,18.4407047 16.5143883,17.9351664 C17.0260409,17.4292728 21.1411947,13.3632955 22.0767675,12.4392582 C23.0119807,11.5148656 24.3592487,12.8694808 23.4639825,13.754084 C22.5682848,14.6390425 18.5807744,18.5789017 17.9781534,19.1743214 C17.513603,19.6333203 18.0374806,20.2322926 18.6465737,19.6308335 C19.2557028,19.0286283 22.5280142,15.7957766 23.180614,15.1509755 C24.0022065,14.3392011 25.2538317,15.6632638 24.4915664,16.4160647 C23.7296607,17.1688655 20.3164021,20.5413353 19.8252084,21.0266592 C19.4566604,21.390803 20.0247637,21.9069992 20.4167191,21.5201185 C20.808243,21.1332379 22.8724718,19.0936413 23.8389667,18.1387317 C24.805102,17.1837865 26.2174861,18.4499415 25.1693353,19.4855312 C21.3576493,23.2516671 15.0872982,32.0568439 9.14558411,26.1861339 C3.93773013,21.0405144 9.63674184,16.5734459 13.1334541,13.1799801 M17.1579991,2.14979534 C17.6311788,2.16471636 18.5462567,3.89377811 18.5210876,4.68103943 C18.4959185,5.46794549 17.8296554,6.08574668 17.033232,6.06087831 C16.2364491,6.03600995 15.6111758,5.37806412 15.636345,4.5908028 C15.6615141,3.80389674 16.6848193,2.13522959 17.1579991,2.14979534 M21.3961221,2.2133873 C21.8693019,2.22830832 22.7840203,3.95737007 22.7588511,4.74427612 C22.7340416,5.53118218 22.0677785,6.14933863 21.2709956,6.12411501 C20.4745722,6.09960191 19.8492989,5.44130081 19.874468,4.65403949 C19.8996372,3.86713344 20.9229424,2.19882154 21.3961221,2.2133873 M25.6367622,2.19775575 C26.1099419,2.21232151 27.0246603,3.94173852 26.9994911,4.72864458 C26.974322,5.5159059 26.3084185,6.13370709 25.5120311,6.10883873 C24.7152122,6.08397036 24.0899389,5.42566927 24.115108,4.63876321 C24.1402772,3.85150189 25.1635824,2.18319 25.6367622,2.19775575 M19.2772404,6.24881208 C19.7504202,6.2637331 20.6651385,7.99279485 20.6400053,8.77970091 C20.6148002,9.56660697 19.9488968,10.1847634 19.1521138,10.1595398 C18.3556904,10.1350267 17.7304171,9.4767256 17.7555863,8.68981954 C17.7803959,7.90255822 18.8040606,6.23424633 19.2772404,6.24881208 M23.5179163,6.23318054 C23.9910602,6.24810156 24.9057785,7.97716331 24.8806094,8.76406937 C24.8554402,9.55133069 24.1895368,10.1691319 23.3927538,10.1442635 C22.5963304,10.1193952 21.9706976,9.46109406 21.9962263,8.674188 C22.0213954,7.88692668 23.0447006,6.21861479 23.5179163,6.23318054 M15.1279284,8.17859705 C16.5719177,8.17859705 16.7445061,10.1602503 15.1433894,10.1602503 L11.1325077,10.1602503 C10.3242188,10.1602503 10.328174,11.0867745 11.5006962,11.0864192 L18.5006287,11.0864192 L16.5100736,13.0531515 L15.4360705,13.0531515 C15.2498189,12.695047 14.9251371,12.4172319 14.5432853,12.2786796 C13.5077551,11.901391 12.9342583,12.4886396 12.2928049,13.0996908 C10.1232253,15.1705149 7.46608356,17.4800753 6.61141158,20.2507662 C4.47778789,19.3515973 3,17.6690749 3,14.5889505 C2.99964044,7.31211223 10.2267783,8.13525505 15.1279284,8.17859705" id="Fill-1" fill="#63A2C6"></path>
    </g>
</svg>