<svg width="30" height="30" viewBox="0 0 30 30" fill="none" xmlns="http://www.w3.org/2000/svg">
<path fill-rule="evenodd" clip-rule="evenodd" d="M3 6.92368V17.7888C3 19.9559 4.74599 21.7124 6.90009 21.7124H10.605L10.4999 25.7717C10.4402 26.2198 10.6654 26.6579 11.0639 26.8671C11.2306 26.9558 11.4158 27.0015 11.6041 26.9999C11.9537 26.9968 12.2878 26.8547 12.5342 26.6048L17.4688 21.7124H23.0999C25.254 21.7124 27 19.9559 27 17.7888V6.92368C27 4.75655 25.254 3 23.0999 3H6.90009C4.74599 3 3 4.75655 3 6.92368Z" fill="#218E7F"/>
<path fill-rule="evenodd" clip-rule="evenodd" d="M15.5603 6.24945C15.9058 6.5833 15.9073 7.126 15.5636 7.46162L14.6969 8.30802C15.251 8.30715 15.5224 8.31093 15.6304 8.32414C18.1163 8.62849 20 10.6886 20 13.1429C20 15.8254 17.7614 18 15 18C12.2386 18 10 15.8254 10 13.1429C10 12.6695 10.395 12.2858 10.8824 12.2858C11.3697 12.2858 11.7647 12.6695 11.7647 13.1429C11.7647 14.8786 13.2132 16.2857 15 16.2857C16.7868 16.2857 18.2353 14.8786 18.2353 13.1429C18.2353 11.5551 17.016 10.2216 15.4097 10.025C15.3973 10.0234 14.8599 10.0213 14.2354 10.0237L15.5337 11.3085C15.8751 11.6463 15.8699 12.189 15.5222 12.5206C15.1744 12.8523 14.6158 12.8472 14.2744 12.5094L11.7219 9.9835C11.3833 9.64852 11.3852 9.11137 11.726 8.77857L14.3125 6.25265C14.6562 5.91704 15.2149 5.9156 15.5603 6.24945Z" fill="white"/>
<mask id="mask0_0_14946" style="mask-type:luminance" maskUnits="userSpaceOnUse" x="10" y="6" width="10" height="12">
<path fill-rule="evenodd" clip-rule="evenodd" d="M15.5603 6.24945C15.9058 6.5833 15.9073 7.126 15.5636 7.46162L14.6969 8.30802C15.251 8.30715 15.5224 8.31093 15.6304 8.32414C18.1163 8.62849 20 10.6886 20 13.1429C20 15.8254 17.7614 18 15 18C12.2386 18 10 15.8254 10 13.1429C10 12.6695 10.395 12.2858 10.8824 12.2858C11.3697 12.2858 11.7647 12.6695 11.7647 13.1429C11.7647 14.8786 13.2132 16.2857 15 16.2857C16.7868 16.2857 18.2353 14.8786 18.2353 13.1429C18.2353 11.5551 17.016 10.2216 15.4097 10.025C15.3973 10.0234 14.8599 10.0213 14.2354 10.0237L15.5337 11.3085C15.8751 11.6463 15.8699 12.189 15.5222 12.5206C15.1744 12.8523 14.6158 12.8472 14.2744 12.5094L11.7219 9.9835C11.3833 9.64852 11.3852 9.11137 11.726 8.77857L14.3125 6.25265C14.6562 5.91704 15.2149 5.9156 15.5603 6.24945Z" fill="white"/>
</mask>
<g mask="url(#mask0_0_14946)">
</g>
</svg>
